<svg width="36" height="36" viewBox="0 0 36 36" fill="none" xmlns="http://www.w3.org/2000/svg">
<path d="M30.6206 2.13692C33.5888 2.13692 36 4.54811 36 7.51632C36 10.1717 34.0695 12.3769 31.5362 12.8118V34.9474C31.5362 35.451 31.1242 35.8631 30.6206 35.8631C30.117 35.8631 29.705 35.451 29.705 34.9474V12.8118C27.1717 12.3769 25.2412 10.164 25.2412 7.51632C25.2412 4.54811 27.66 2.13692 30.6206 2.13692ZM30.6206 11.0644C32.574 11.0644 34.1687 9.47732 34.1687 7.51632C34.1687 5.55532 32.5816 3.9682 30.6206 3.9682C28.6596 3.9682 27.0725 5.55532 27.0725 7.51632C27.0725 9.47732 28.6672 11.0644 30.6206 11.0644Z" fill="white"/>
<path d="M18.0458 20.3735C17.5422 20.3735 17.1301 19.9614 17.1301 19.4578C17.1301 18.9542 17.5422 18.5422 18.0458 18.5422C18.5494 18.5422 18.9614 18.9542 18.9614 19.4578C18.9614 19.9691 18.5494 20.3735 18.0458 20.3735Z" fill="white"/>
<path d="M18.0458 10.5303C17.5422 10.5303 17.1301 10.1183 17.1301 9.61466C17.1301 9.11106 17.5422 8.69902 18.0458 8.69902C18.5494 8.69902 18.9614 9.11106 18.9614 9.61466C18.9614 10.1183 18.5494 10.5303 18.0458 10.5303Z" fill="white"/>
<path d="M18.0458 17.0924C17.5422 17.0924 17.1301 16.6804 17.1301 16.1768C17.1301 15.6732 17.5422 15.2611 18.0458 15.2611C18.5494 15.2611 18.9614 15.6732 18.9614 16.1768C18.9614 16.6804 18.5494 17.0924 18.0458 17.0924Z" fill="white"/>
<path d="M18.0458 7.24925C17.5422 7.24925 17.1301 6.83721 17.1301 6.33361C17.1301 5.83001 17.5422 5.41797 18.0458 5.41797C18.5494 5.41797 18.9614 5.83001 18.9614 6.33361C18.9614 6.83721 18.5494 7.24925 18.0458 7.24925Z" fill="white"/>
<path d="M18.0458 23.6545C17.5422 23.6545 17.1301 23.2425 17.1301 22.7389C17.1301 22.2353 17.5422 21.8232 18.0458 21.8232C18.5494 21.8232 18.9614 22.2353 18.9614 22.7389C18.9614 23.2501 18.5494 23.6545 18.0458 23.6545Z" fill="white"/>
<path d="M18.0458 13.8114C17.5422 13.8114 17.1301 13.3993 17.1301 12.8957C17.1301 12.3921 17.5422 11.9801 18.0458 11.9801C18.5494 11.9801 18.9614 12.3921 18.9614 12.8957C18.9614 13.3993 18.5494 13.8114 18.0458 13.8114Z" fill="white"/>
<path d="M18.0459 25.1043C21.0141 25.1043 23.4253 27.5155 23.4253 30.4837C23.4253 33.4519 21.0141 35.8631 18.0459 35.8631C15.0777 35.8631 12.6665 33.4519 12.6665 30.4837C12.6665 27.5155 15.0777 25.1043 18.0459 25.1043ZM18.0459 34.0318C19.9993 34.0318 21.594 32.4447 21.594 30.4837C21.594 28.5227 20.0069 26.9356 18.0459 26.9356C16.0925 26.9356 14.4978 28.5227 14.4978 30.4837C14.4978 32.4447 16.0925 34.0318 18.0459 34.0318Z" fill="white"/>
<path d="M5.37939 2.13692C8.3476 2.13692 10.7588 4.54811 10.7588 7.51632C10.7588 10.1717 8.82831 12.3769 6.29503 12.8118V34.9474C6.29503 35.451 5.88299 35.8631 5.37939 35.8631C4.87579 35.8631 4.46375 35.451 4.46375 34.9474V12.8118C1.93047 12.3769 -7.62939e-06 10.164 -7.62939e-06 7.51632C-7.62939e-06 4.54811 2.41118 2.13692 5.37939 2.13692ZM5.37939 11.0644C7.33276 11.0644 8.9275 9.47732 8.9275 7.51632C8.9275 5.55532 7.33276 3.9682 5.37939 3.9682C3.42602 3.9682 1.83128 5.55532 1.83128 7.51632C1.83128 9.47732 3.41839 11.0644 5.37939 11.0644Z" fill="white"/>
</svg>
