<svg width="32" height="31" viewBox="0 0 32 31" fill="none" xmlns="http://www.w3.org/2000/svg">
<path d="M20.6317 9.34331L21.4809 8.81529L20.6317 9.34331C20.907 9.78614 21.3444 10.1039 21.8507 10.229L30.3668 12.332L24.7132 19.039C24.3771 19.4377 24.2101 19.9519 24.2476 20.472L25.245 20.4L24.2476 20.472L24.8792 29.2211L16.7534 25.9168C16.2703 25.7204 15.7297 25.7204 15.2466 25.9168L15.6233 26.8432L15.2466 25.9168L7.12085 29.2211L7.75239 20.472C7.78993 19.9519 7.62286 19.4377 7.28678 19.039L1.63324 12.332L10.1493 10.229C10.6556 10.1039 11.093 9.78614 11.3683 9.34331L16 1.89389L20.6317 9.34331Z" stroke="#CC32A1" stroke-width="2"/>
</svg>
