<svg width="15" height="15" viewBox="0 0 15 15" fill="none" xmlns="http://www.w3.org/2000/svg">
<path d="M13.9075 13.8266L10.6073 10.5265C11.4926 9.50873 12.0286 8.18084 12.0286 6.7295C12.0286 3.53475 9.43001 0.939201 6.23827 0.939201C3.04352 0.939201 0.447968 3.53776 0.447968 6.7295C0.447968 9.92124 3.04653 12.5198 6.23827 12.5198C7.68961 12.5198 9.01749 11.9838 10.0352 11.0986L13.3354 14.3987C13.4137 14.477 13.5191 14.5192 13.6214 14.5192C13.7238 14.5192 13.8292 14.48 13.9075 14.3987C14.0641 14.2421 14.0641 13.9832 13.9075 13.8266ZM1.25795 6.7295C1.25795 3.9834 3.49217 1.75219 6.23526 1.75219C8.98136 1.75219 11.2126 3.98641 11.2126 6.7295C11.2126 9.47259 8.98136 11.7098 6.23526 11.7098C3.49217 11.7098 1.25795 9.4756 1.25795 6.7295Z" fill="#1A1A1A"/>
</svg>
