<svg width="249" height="128" viewBox="0 0 249 128" fill="none" xmlns="http://www.w3.org/2000/svg">
<path d="M187.333 1.24918C182.999 -0.084157 157.301 2.03525 156.801 23.5357C155.531 78.133 239.386 87.5358 246.833 52.7493C253.301 22.5358 223.566 1.24917 191.833 21.7493C164.093 39.6697 152.3 85.0357 82.3005 116.036C45.447 132.357 4.86729 111.332 1.33265 80.7493C-3.1995 41.5357 38.8005 -1.46434 113.801 30.5357C170.977 54.9308 198.83 109.025 180.333 122.749C164.833 134.249 140.238 119.907 146.833 100.749C150.865 89.0357 164.492 86.6693 171.333 92.4343M171.333 92.4343C177.027 97.2331 179.197 104.249 171.333 104.249C167.833 104.249 162.333 97.7493 169.333 96.7493C172.798 96.2543 172.893 93.7493 171.333 92.4343Z" stroke="url(#paint0_radial)"/>
<defs>
<radialGradient id="paint0_radial" cx="0" cy="0" r="1" gradientUnits="userSpaceOnUse" gradientTransform="translate(139 42.4355) rotate(99.8363) scale(85.6818 167.88)">
<stop/>
<stop offset="1" stop-color="#ACACAC"/>
</radialGradient>
</defs>
</svg>
