<svg width="29" height="29" viewBox="0 0 29 29" fill="none" xmlns="http://www.w3.org/2000/svg">
<path d="M24.5157 17.4639C23.9055 16.8285 23.1695 16.4888 22.3894 16.4888C21.6156 16.4888 20.8733 16.8222 20.2379 17.4576L18.2501 19.4392C18.0865 19.3511 17.9229 19.2693 17.7657 19.1876C17.5392 19.0743 17.3253 18.9674 17.1429 18.8541C15.2808 17.6715 13.5886 16.1302 11.9655 14.136C11.1792 13.1421 10.6508 12.3054 10.267 11.4562C10.7829 10.9844 11.261 10.4937 11.7265 10.0219C11.9026 9.84572 12.0788 9.66329 12.2549 9.48714C13.576 8.16608 13.576 6.45498 12.2549 5.13391L10.5375 3.41652C10.3425 3.22151 10.1412 3.0202 9.95248 2.8189C9.57504 2.42887 9.17872 2.02626 8.76981 1.64881C8.15961 1.04489 7.42987 0.72406 6.6624 0.72406C5.89492 0.72406 5.1526 1.04489 4.52352 1.64881C4.51723 1.6551 4.51723 1.6551 4.51094 1.66139L2.37207 3.81913C1.56685 4.62436 1.10762 5.60572 1.00696 6.74436C0.855986 8.58127 1.39699 10.2924 1.81219 11.4121C2.8313 14.1612 4.35367 16.709 6.62465 19.4392C9.38002 22.7293 12.6953 25.3274 16.4823 27.158C17.9292 27.8437 19.8605 28.6552 22.0182 28.7936C22.1504 28.7999 22.2887 28.8062 22.4146 28.8062C23.8677 28.8062 25.0882 28.2841 26.0444 27.2461C26.0506 27.2335 26.0632 27.2272 26.0695 27.2146C26.3966 26.8183 26.7741 26.4597 27.1704 26.076C27.4409 25.8181 27.7177 25.5476 27.9882 25.2645C28.611 24.6165 28.9381 23.8616 28.9381 23.0879C28.9381 22.3078 28.6047 21.5592 27.9693 20.9301L24.5157 17.4639ZM26.7678 24.0881C26.7615 24.0881 26.7615 24.0944 26.7678 24.0881C26.5225 24.3523 26.2708 24.5914 26.0003 24.8556C25.5914 25.2456 25.1762 25.6545 24.7862 26.1137C24.1508 26.7931 23.4022 27.114 22.4209 27.114C22.3265 27.114 22.2258 27.114 22.1315 27.1077C20.2631 26.9882 18.5268 26.2584 17.2247 25.6356C13.6641 23.912 10.5375 21.4648 7.93943 18.3635C5.79427 15.7779 4.35996 13.3874 3.41005 10.8208C2.82501 9.25439 2.61112 8.03397 2.70548 6.88275C2.76839 6.14673 3.05148 5.53652 3.57361 5.01439L5.71878 2.86922C6.02702 2.57985 6.35415 2.42258 6.67498 2.42258C7.0713 2.42258 7.39213 2.66163 7.59343 2.86293C7.59973 2.86922 7.60602 2.87551 7.61231 2.8818C7.99605 3.24038 8.36091 3.61154 8.74465 4.00786C8.93967 4.20916 9.14097 4.41047 9.34228 4.61807L11.0597 6.33545C11.7265 7.00228 11.7265 7.61878 11.0597 8.2856C10.8772 8.46804 10.7011 8.65047 10.5187 8.82661C9.99023 9.36762 9.48697 9.87088 8.93967 10.3616C8.92708 10.3741 8.9145 10.3804 8.90821 10.393C8.3672 10.934 8.46786 11.4625 8.58109 11.821C8.58738 11.8399 8.59367 11.8588 8.59996 11.8776C9.04661 12.9597 9.67569 13.9788 10.6319 15.1929L10.6382 15.1992C12.3744 17.3381 14.2051 19.0051 16.2244 20.2822C16.4823 20.4457 16.7466 20.5778 16.9982 20.7036C17.2247 20.8169 17.4385 20.9238 17.621 21.0371C17.6461 21.0496 17.6713 21.0685 17.6965 21.0811C17.9103 21.188 18.1117 21.2384 18.3193 21.2384C18.8414 21.2384 19.1685 20.9112 19.2755 20.8043L21.4269 18.6528C21.6408 18.439 21.9805 18.181 22.3768 18.181C22.7668 18.181 23.0877 18.4264 23.2827 18.6403C23.289 18.6466 23.289 18.6466 23.2953 18.6528L26.7615 22.1191C27.4095 22.7607 27.4095 23.4213 26.7678 24.0881Z" fill="white"/>
</svg>
