<svg width="696" height="172" viewBox="0 0 696 172" fill="none" xmlns="http://www.w3.org/2000/svg">
<path d="M307.5 61.9355C316.5 56.4355 331.5 39.4355 324 22.4355C307.598 -14.7427 263.392 22.8253 284.5 33.9355C294 38.9357 308 24.4355 295.5 16.4355C276.846 4.49698 257 29.4354 238 42.4353C219.523 55.0778 180 59.1225 169.5 39.4355C164.784 30.5931 170.5 21.474 176 18.9355C189 12.9355 199.5 25.9355 190 36.9355C186.982 40.4306 180.844 41.3209 177 38.9355C173.561 36.8011 172.103 31.745 174 28.4355C179.5 18.8391 189 28.9355 183 30.9355" stroke="url(#paint0_linear)"/>
<path d="M197 52.9355C203.555 53.3399 215.062 54.4977 229.773 46.7437C235.768 43.5836 239.077 41.9342 251.21 32.4198C262.801 23.3293 270.415 15.9722 280 13.9355C269.099 16.7323 256.888 32.4232 244.748 40.9458C240.051 44.2435 229.456 49.9072 222.335 51.3847C210.325 54.7203 196.849 52.9262 197 52.9355Z" fill="#1A1A1A" stroke="#1A1A1A"/>
<path d="M186 29.4355C185.5 31.9355 183.7 32.9355 181.5 32.9355C179.301 32.9355 177.751 30.5046 178.649 28.2607C179.649 25.7607 184.503 27.6148 181.149 24.2607C180.649 23.7607 183.373 24.3524 184.649 25.7607C185.649 26.7607 186.196 28.4549 186 29.4355Z" fill="#1A1A1A"/>
<path d="M321.692 48.9555C319.712 52.3155 317.132 55.3155 313.952 57.9555C310.832 60.5355 307.322 62.8455 303.422 64.8855C299.582 66.8655 295.472 68.6055 291.092 70.1055C286.772 71.6055 282.362 72.9255 277.862 74.0655C273.422 75.1455 269.042 76.1055 264.722 76.9455C260.402 77.7255 256.322 78.4455 252.482 79.1055C250.802 81.1455 249.092 83.2155 247.352 85.3155C245.672 87.3555 243.962 89.3955 242.222 91.4355C244.922 92.1555 247.952 92.9355 251.312 93.7755C254.672 94.5555 258.152 95.4555 261.752 96.4755C265.412 97.4355 269.102 98.5155 272.822 99.7155C276.602 100.916 280.232 102.296 283.712 103.856C287.252 105.356 290.552 107.066 293.612 108.986C296.732 110.906 299.462 113.096 301.802 115.556C302.102 115.856 302.342 116.126 302.522 116.366C302.762 116.666 302.882 116.966 302.882 117.266C302.882 117.746 302.582 118.226 301.982 118.706C301.442 119.186 300.812 119.516 300.092 119.696C297.632 117.176 294.812 114.926 291.632 112.946C288.452 110.966 285.062 109.226 281.462 107.726C277.922 106.166 274.232 104.786 270.392 103.586C266.612 102.386 262.862 101.306 259.142 100.346C255.482 99.3255 251.942 98.4255 248.522 97.6455C245.102 96.8055 241.982 95.9655 239.162 95.1255C236.882 97.8255 234.722 100.406 232.682 102.866C230.702 105.266 228.932 107.396 227.372 109.256C225.872 111.056 224.672 112.526 223.772 113.666C222.872 114.746 222.362 115.316 222.242 115.376L221.792 115.826C221.492 116.126 221.222 116.276 220.982 116.276C220.322 116.276 219.992 115.976 219.992 115.376C219.992 114.896 220.202 114.446 220.622 114.026C220.682 113.966 221.132 113.426 221.972 112.406C222.872 111.326 224.042 109.916 225.482 108.176C226.982 106.376 228.692 104.306 230.612 101.966C232.592 99.6255 234.692 97.1055 236.912 94.4055C233.672 93.3855 231.122 92.2755 229.262 91.0755C227.402 89.8755 226.472 88.4955 226.472 86.9355C226.472 85.7355 227.072 84.7155 228.272 83.8755C229.472 82.9755 231.122 82.1955 233.222 81.5355C235.382 80.8755 237.902 80.2755 240.782 79.7355C243.662 79.1955 246.782 78.6555 250.142 78.1155C252.722 74.9355 255.182 71.9055 257.522 69.0255C259.922 66.1455 262.022 63.5955 263.822 61.3755C265.682 59.1555 267.152 57.3855 268.232 56.0655C269.312 54.7455 269.882 54.0555 269.942 53.9955C270.062 53.8155 270.362 53.4855 270.842 53.0055C271.382 52.5255 271.892 52.2855 272.372 52.2855C273.152 52.2855 273.542 52.6155 273.542 53.2755C273.542 53.9355 273.212 54.5355 272.552 55.0755C272.492 55.1355 271.922 55.7955 270.842 57.0555C269.822 58.3155 268.442 59.9655 266.702 62.0055C265.022 64.0455 263.072 66.4155 260.852 69.1155C258.632 71.7555 256.292 74.5755 253.832 77.5755C259.232 76.6755 264.932 75.5955 270.932 74.3355C276.992 73.0155 282.902 71.2455 288.662 69.0255C294.422 66.8055 299.852 63.9855 304.952 60.5655C310.052 57.0855 314.342 52.7355 317.822 47.5155C317.942 47.3355 318.062 47.1855 318.182 47.0655C318.422 46.8255 318.722 46.7055 319.082 46.7055C319.322 46.7055 319.622 46.7955 319.982 46.9755C320.462 47.2755 320.882 47.6355 321.242 48.0555C321.662 48.4155 321.812 48.7155 321.692 48.9555ZM248.882 79.7355C246.242 80.1555 243.812 80.6055 241.592 81.0855C239.432 81.5055 237.542 81.9555 235.922 82.4355C234.362 82.8555 233.132 83.3355 232.232 83.8755C231.392 84.3555 230.972 84.9255 230.972 85.5855C230.972 86.6055 231.752 87.5055 233.312 88.2855C234.932 89.0655 237.122 89.8755 239.882 90.7155C241.382 88.9155 242.852 87.1155 244.292 85.3155C245.792 83.4555 247.322 81.5955 248.882 79.7355ZM330.525 108.626C330.525 108.806 330.465 108.956 330.345 109.076C330.285 109.136 330.195 109.196 330.075 109.256C326.355 110.936 323.235 111.776 320.715 111.776C319.155 111.776 317.955 111.296 317.115 110.336C315.555 111.896 313.785 113.216 311.805 114.296C309.885 115.376 307.965 115.916 306.045 115.916C305.205 115.916 304.545 115.706 304.065 115.286C303.585 114.926 303.345 114.266 303.345 113.306C303.345 112.106 303.885 110.636 304.965 108.896C306.105 107.156 307.455 105.476 309.015 103.856C310.575 102.236 312.165 100.856 313.785 99.7155C315.465 98.5755 316.845 98.0055 317.925 98.0055C318.225 98.0055 318.495 98.1255 318.735 98.3655C319.035 98.5455 319.185 98.7255 319.185 98.9055C319.185 99.0255 319.095 99.1155 318.915 99.1755C318.735 99.1755 318.555 99.1755 318.375 99.1755C317.655 99.1755 316.635 99.6555 315.315 100.616C314.055 101.516 312.795 102.596 311.535 103.856C310.275 105.116 309.195 106.436 308.295 107.816C307.395 109.196 306.945 110.336 306.945 111.236C306.945 112.556 307.605 113.216 308.925 113.216C310.005 113.216 311.205 112.856 312.525 112.136C313.905 111.356 315.195 110.426 316.395 109.346C315.975 108.566 315.765 107.576 315.765 106.376C315.765 105.536 315.885 104.696 316.125 103.856C316.425 102.956 316.815 102.176 317.295 101.516C317.775 100.856 318.345 100.316 319.005 99.8955C319.725 99.4755 320.505 99.2655 321.345 99.2655C322.485 99.2655 323.055 99.8055 323.055 100.886C323.055 101.846 322.635 103.046 321.795 104.486C321.015 105.926 319.935 107.396 318.555 108.896C319.215 109.736 320.175 110.156 321.435 110.156C322.275 110.156 323.145 110.066 324.045 109.886C324.945 109.706 325.785 109.526 326.565 109.346C327.405 109.106 328.125 108.866 328.725 108.626C329.325 108.386 329.775 108.176 330.075 107.996H330.165C330.285 107.996 330.375 108.086 330.435 108.266C330.495 108.386 330.525 108.506 330.525 108.626ZM321.435 102.326C321.435 101.486 320.895 101.066 319.815 101.066C319.155 101.066 318.585 101.516 318.105 102.416C317.685 103.256 317.475 104.216 317.475 105.296C317.475 105.776 317.505 106.226 317.565 106.646C317.625 107.066 317.745 107.486 317.925 107.906C318.945 106.886 319.785 105.866 320.445 104.846C321.105 103.826 321.435 102.986 321.435 102.326ZM355.788 101.786C355.788 103.046 355.128 104.306 353.808 105.566C352.548 106.826 351.018 107.966 349.218 108.986C347.478 109.946 345.678 110.756 343.818 111.416C341.958 112.076 340.458 112.406 339.318 112.406C338.238 112.406 337.548 112.196 337.248 111.776C336.948 111.296 336.678 110.936 336.438 110.696C336.378 110.636 336.348 110.516 336.348 110.336C336.348 110.036 336.438 109.766 336.618 109.526C336.858 109.226 337.128 108.956 337.428 108.716C337.728 108.476 337.998 108.296 338.238 108.176C338.538 107.996 338.778 107.906 338.958 107.906C339.378 107.906 339.648 108.026 339.768 108.266C339.948 108.506 340.098 108.776 340.218 109.076C340.338 109.316 340.578 109.586 340.938 109.886C341.358 110.186 341.958 110.336 342.738 110.336C343.758 110.336 344.778 110.126 345.798 109.706C346.878 109.286 347.838 108.746 348.678 108.086C349.578 107.366 350.298 106.616 350.838 105.836C351.438 104.996 351.738 104.186 351.738 103.406C351.738 102.626 351.438 102.116 350.838 101.876C350.298 101.576 349.698 101.426 349.038 101.426C347.898 101.426 346.428 101.726 344.628 102.326C342.888 102.926 340.878 103.766 338.598 104.846C335.478 108.386 332.358 112.166 329.238 116.186C326.178 120.206 323.178 124.166 320.238 128.066C317.238 132.026 314.328 135.806 311.508 139.406C308.688 143.066 305.958 146.246 303.318 148.946C300.678 151.706 298.158 153.896 295.758 155.516C293.298 157.196 290.988 158.036 288.828 158.036C287.688 158.036 286.728 157.736 285.948 157.136C285.168 156.536 284.778 155.606 284.778 154.346C284.778 151.886 285.558 149.186 287.118 146.246C288.618 143.366 290.688 140.396 293.328 137.336C295.908 134.276 298.908 131.216 302.328 128.156C305.688 125.096 309.258 122.126 313.038 119.246C316.758 116.426 320.568 113.786 324.468 111.326C328.308 108.806 331.968 106.646 335.448 104.846C336.108 103.826 336.708 102.926 337.248 102.146C337.788 101.366 338.268 100.706 338.688 100.166C339.168 99.5055 339.558 98.9355 339.858 98.4555C339.858 98.2155 340.008 98.0655 340.308 98.0055C340.668 97.9455 340.968 97.9155 341.208 97.9155C341.628 97.9755 342.048 98.0355 342.468 98.0955C342.888 98.0955 343.098 98.2755 343.098 98.6355C343.098 98.8755 342.858 99.3855 342.378 100.166C341.898 100.886 341.478 101.426 341.118 101.786L340.578 102.326C342.978 101.246 345.138 100.406 347.058 99.8055C349.038 99.2055 350.688 98.9055 352.008 98.9055C352.848 98.9055 353.688 99.2055 354.528 99.8055C355.368 100.346 355.788 101.006 355.788 101.786ZM333.738 107.276C330.678 108.956 327.438 110.906 324.018 113.126C320.598 115.286 317.238 117.626 313.938 120.146C310.638 122.726 307.458 125.396 304.398 128.156C301.338 130.976 298.668 133.766 296.388 136.526C294.108 139.346 292.278 142.106 290.898 144.806C289.518 147.566 288.828 150.146 288.828 152.546C288.828 153.026 289.008 153.596 289.368 154.256C289.668 154.916 290.328 155.246 291.348 155.246C292.668 155.246 294.378 154.406 296.478 152.726C298.518 151.106 300.828 148.946 303.408 146.246C305.928 143.606 308.568 140.576 311.328 137.156C314.088 133.796 316.848 130.316 319.608 126.716C322.308 123.176 324.858 119.696 327.258 116.276C329.718 112.916 331.878 109.916 333.738 107.276ZM385.501 119.606C385.501 120.026 385.291 120.446 384.871 120.866C384.451 121.286 383.791 121.496 382.891 121.496C382.291 121.496 381.091 121.436 379.291 121.316C377.491 121.256 375.661 121.226 373.801 121.226C373.501 121.226 373.231 121.226 372.991 121.226C372.751 121.226 372.481 121.256 372.181 121.316C371.581 123.596 370.531 126.056 369.031 128.696C367.531 131.396 365.731 134.036 363.631 136.616C361.531 139.256 359.221 141.776 356.701 144.176C354.241 146.636 351.751 148.766 349.231 150.566C346.651 152.426 344.161 153.896 341.761 154.976C339.301 156.116 337.081 156.686 335.101 156.686C333.781 156.686 332.761 156.326 332.041 155.606C331.261 154.946 330.871 153.956 330.871 152.636C330.871 149.696 331.981 146.576 334.201 143.276C336.421 140.036 339.361 136.886 343.021 133.826C346.681 130.826 350.911 128.096 355.711 125.636C360.451 123.176 365.341 121.286 370.381 119.966V119.426C370.381 118.106 370.111 116.906 369.571 115.826C369.031 114.746 368.161 113.816 366.961 113.036C366.481 112.916 365.971 112.706 365.431 112.406C364.951 112.046 364.711 111.716 364.711 111.416C364.771 111.176 365.011 110.936 365.431 110.696C365.911 110.456 366.361 110.276 366.781 110.156C367.621 109.916 368.611 109.436 369.751 108.716C370.951 107.936 372.121 107.096 373.261 106.196C374.401 105.236 375.361 104.276 376.141 103.316C376.921 102.356 377.311 101.546 377.311 100.886C377.311 100.046 376.531 99.6255 374.971 99.6255C374.251 99.6255 373.231 100.046 371.911 100.886C370.591 101.726 369.181 102.716 367.681 103.856C366.181 104.936 364.681 106.016 363.181 107.096C361.681 108.116 360.421 108.836 359.401 109.256C358.981 109.436 358.531 109.616 358.051 109.796C357.571 109.976 357.061 110.186 356.521 110.426C356.401 110.426 356.311 110.366 356.251 110.246C356.131 110.066 356.071 109.916 356.071 109.796C356.071 109.556 356.161 109.406 356.341 109.346C356.821 109.166 357.271 108.986 357.691 108.806C358.111 108.566 358.501 108.386 358.861 108.266C359.761 107.906 360.931 107.246 362.371 106.286C363.811 105.266 365.221 104.246 366.601 103.226C368.041 102.206 369.301 101.276 370.381 100.436C371.521 99.5955 372.241 99.0855 372.541 98.9055C372.961 98.6655 373.561 98.3655 374.341 98.0055C375.181 97.6455 376.111 97.4655 377.131 97.4655C377.851 97.4655 378.511 97.7355 379.111 98.2755C379.771 98.7555 380.101 99.4455 380.101 100.346C380.101 101.486 379.651 102.596 378.751 103.676C377.911 104.696 376.891 105.656 375.691 106.556C374.491 107.456 373.291 108.266 372.091 108.986C370.951 109.646 370.051 110.156 369.391 110.516C369.211 110.576 369.121 110.666 369.121 110.786C369.121 111.026 369.301 111.266 369.661 111.506C370.081 111.746 370.501 112.106 370.921 112.586C371.401 113.066 371.821 113.726 372.181 114.566C372.541 115.406 372.721 116.486 372.721 117.806C372.721 118.106 372.691 118.376 372.631 118.616C372.631 118.856 372.601 119.126 372.541 119.426C374.341 119.066 376.141 118.766 377.941 118.526C379.801 118.346 381.601 118.256 383.341 118.256C383.821 118.316 384.301 118.436 384.781 118.616C385.261 118.796 385.501 119.126 385.501 119.606ZM370.111 121.586C367.831 121.946 365.371 122.606 362.731 123.566C360.151 124.586 357.571 125.816 354.991 127.256C352.351 128.756 349.831 130.406 347.431 132.206C344.971 134.066 342.811 136.016 340.951 138.056C339.091 140.156 337.621 142.316 336.541 144.536C335.401 146.816 334.831 149.066 334.831 151.286C334.831 152.186 334.981 152.966 335.281 153.626C335.521 154.286 336.151 154.616 337.171 154.616C338.551 154.616 340.291 154.106 342.391 153.086C344.431 152.066 346.621 150.686 348.961 148.946C351.241 147.206 353.551 145.196 355.891 142.916C358.231 140.696 360.391 138.356 362.371 135.896C364.351 133.436 366.031 130.976 367.411 128.516C368.851 126.056 369.751 123.746 370.111 121.586ZM419.24 108.626C419.24 108.866 419.15 109.046 418.97 109.166L414.92 110.786C414.32 111.026 413.54 111.356 412.58 111.776C411.68 112.136 410.69 112.496 409.61 112.856C408.53 113.216 407.48 113.546 406.46 113.846C405.44 114.086 404.54 114.206 403.76 114.206C402.98 114.206 402.35 114.056 401.87 113.756C401.45 113.396 401.09 113.006 400.79 112.586C400.55 112.166 400.37 111.746 400.25 111.326C400.19 110.906 400.16 110.576 400.16 110.336C400.16 109.436 400.34 108.626 400.7 107.906C401.12 107.126 401.39 106.676 401.51 106.556C401.57 106.496 401.51 106.466 401.33 106.466C400.79 106.886 399.95 107.486 398.81 108.266C397.73 109.046 396.5 109.826 395.12 110.606C393.74 111.386 392.33 112.076 390.89 112.676C389.51 113.276 388.22 113.576 387.02 113.576C386.36 113.576 385.79 113.276 385.31 112.676C384.83 112.076 384.59 111.446 384.59 110.786C384.59 110.066 384.86 109.256 385.4 108.356C385.94 107.456 386.57 106.586 387.29 105.746C388.07 104.906 388.82 104.126 389.54 103.406C390.26 102.686 390.8 102.206 391.16 101.966C391.16 101.906 391.19 101.876 391.25 101.876H391.61C391.91 101.876 392.15 101.966 392.33 102.146C392.39 102.206 392.42 102.296 392.42 102.416C392.42 102.656 392.21 103.016 391.79 103.496C391.37 103.916 390.89 104.426 390.35 105.026C389.87 105.566 389.42 106.166 389 106.826C388.58 107.486 388.37 108.176 388.37 108.896C388.37 109.496 388.55 110.036 388.91 110.516C389.27 110.936 389.69 111.146 390.17 111.146C391.31 111.146 392.69 110.696 394.31 109.796C395.93 108.836 397.52 107.756 399.08 106.556C400.88 105.176 402.74 103.646 404.66 101.966C405.08 101.966 405.41 102.056 405.65 102.236C405.95 102.356 406.1 102.656 406.1 103.136C406.1 103.316 406.01 103.556 405.83 103.856C405.65 104.096 405.32 104.726 404.84 105.746C404.42 106.766 404.21 107.786 404.21 108.806C404.21 108.986 404.21 109.256 404.21 109.616C404.27 109.916 404.36 110.246 404.48 110.606C404.66 110.966 404.9 111.296 405.2 111.596C405.5 111.836 405.95 111.956 406.55 111.956C407.21 111.956 407.93 111.866 408.71 111.686C409.55 111.446 410.36 111.206 411.14 110.966C411.98 110.666 412.73 110.396 413.39 110.156C414.11 109.856 414.65 109.646 415.01 109.526C416.21 109.046 417.11 108.686 417.71 108.446C418.07 108.266 418.43 108.116 418.79 107.996C418.91 107.996 419 108.086 419.06 108.266C419.18 108.386 419.24 108.506 419.24 108.626ZM425.839 110.516C425.179 111.596 424.639 112.406 424.219 112.946C423.859 113.426 423.559 113.756 423.319 113.936C423.139 114.116 422.989 114.176 422.869 114.116C422.749 114.116 422.599 114.116 422.419 114.116C421.699 114.116 421.339 113.786 421.339 113.126C421.339 112.586 421.519 111.986 421.879 111.326C422.299 110.666 422.779 110.006 423.319 109.346C423.859 108.686 424.399 108.086 424.939 107.546C425.539 106.946 425.989 106.466 426.289 106.106C426.349 106.046 426.379 105.956 426.379 105.836C426.379 105.656 426.259 105.566 426.019 105.566C425.959 105.566 425.629 105.716 425.029 106.016C424.489 106.316 423.829 106.676 423.049 107.096C422.269 107.456 421.459 107.846 420.619 108.266C419.839 108.686 419.179 109.016 418.639 109.256C418.219 109.436 417.769 109.616 417.289 109.796C416.809 109.976 416.299 110.186 415.759 110.426C415.459 110.426 415.309 110.216 415.309 109.796C415.309 109.556 415.399 109.376 415.579 109.256C416.059 109.076 416.509 108.926 416.929 108.806C417.349 108.626 417.739 108.446 418.099 108.266C419.659 107.606 421.099 106.916 422.419 106.196C423.799 105.416 425.029 104.696 426.109 104.036C426.769 103.676 427.369 103.316 427.909 102.956C428.509 102.596 429.079 102.206 429.619 101.786C429.739 101.726 429.919 101.666 430.159 101.606C430.399 101.486 430.639 101.426 430.879 101.426C431.359 101.426 431.599 101.756 431.599 102.416C431.599 102.896 431.329 103.496 430.789 104.216C430.309 104.876 429.739 105.596 429.079 106.376C428.959 106.496 428.869 106.616 428.809 106.736H428.899C430.099 106.676 431.449 106.676 432.949 106.736C434.449 106.736 435.949 106.766 437.449 106.826C437.749 106.826 438.049 106.856 438.349 106.916C438.529 106.616 438.679 106.316 438.799 106.016C439.099 105.476 439.339 105.056 439.519 104.756C440.659 103.136 441.619 102.056 442.399 101.516C443.179 100.916 443.839 100.616 444.379 100.616C444.679 100.616 444.859 100.736 444.919 100.976C444.979 101.156 445.009 101.306 445.009 101.426C445.009 101.666 444.949 101.906 444.829 102.146L444.469 102.866C444.289 103.106 443.989 103.526 443.569 104.126C443.149 104.726 442.729 105.386 442.309 106.106C441.949 106.826 441.589 107.576 441.229 108.356C440.929 109.076 440.779 109.736 440.779 110.336C440.779 111.416 441.409 111.956 442.669 111.956C443.329 111.956 444.049 111.866 444.829 111.686C445.669 111.446 446.479 111.206 447.259 110.966C448.099 110.666 448.849 110.396 449.509 110.156C450.229 109.856 450.769 109.646 451.129 109.526C452.269 109.106 453.169 108.746 453.829 108.446C454.309 108.206 454.669 108.056 454.909 107.996C455.209 107.996 455.359 108.206 455.359 108.626C455.359 108.926 455.269 109.106 455.089 109.166L451.039 110.786C450.439 111.026 449.659 111.356 448.699 111.776C447.799 112.136 446.809 112.496 445.729 112.856C444.649 113.216 443.599 113.546 442.579 113.846C441.559 114.086 440.659 114.206 439.879 114.206C438.739 114.206 437.959 113.996 437.539 113.576C437.119 113.096 436.909 112.526 436.909 111.866C436.909 111.206 436.999 110.516 437.179 109.796C437.359 109.136 437.599 108.536 437.899 107.996H437.269C436.189 107.936 434.929 107.936 433.489 107.996C432.049 108.056 430.549 108.116 428.989 108.176C428.449 108.236 427.939 108.266 427.459 108.266C427.399 108.386 427.309 108.506 427.189 108.626C426.529 109.346 426.079 109.976 425.839 110.516ZM425.029 108.176H424.939C424.879 108.296 424.909 108.296 425.029 108.176ZM481.31 108.626C481.31 108.866 481.22 109.046 481.04 109.166L476.99 110.786C476.39 111.026 475.61 111.356 474.65 111.776C473.75 112.136 472.76 112.496 471.68 112.856C470.6 113.216 469.55 113.546 468.53 113.846C467.51 114.086 466.61 114.206 465.83 114.206C464.57 114.206 463.94 113.816 463.94 113.036C463.94 112.796 463.97 112.496 464.03 112.136C464.15 111.716 464.36 111.296 464.66 110.876C464.18 111.236 463.52 111.656 462.68 112.136C461.84 112.556 460.94 112.976 459.98 113.396C459.02 113.756 458.03 114.086 457.01 114.386C456.05 114.686 455.18 114.836 454.4 114.836C453.26 114.836 452.45 114.596 451.97 114.116C451.43 113.696 451.16 113.156 451.16 112.496C451.16 111.356 451.76 109.946 452.96 108.266C454.16 106.586 455.69 104.996 457.55 103.496C459.41 101.936 461.45 100.616 463.67 99.5355C465.89 98.4555 468.02 97.9155 470.06 97.9155C471.08 97.9155 471.8 98.0955 472.22 98.4555C472.64 98.8155 472.85 99.3255 472.85 99.9855C472.85 100.946 472.4 101.816 471.5 102.596C470.66 103.376 469.85 104.006 469.07 104.486C468.83 104.606 468.65 104.666 468.53 104.666C468.41 104.666 468.23 104.606 467.99 104.486C467.81 104.306 467.72 104.096 467.72 103.856C467.72 103.556 467.96 103.106 468.44 102.506C468.68 102.266 468.95 101.936 469.25 101.516C469.61 101.036 469.79 100.646 469.79 100.346C469.79 100.106 469.67 99.9255 469.43 99.8055C469.25 99.6255 468.83 99.5355 468.17 99.5355C467.15 99.5355 465.89 99.9255 464.39 100.706C462.89 101.426 461.45 102.356 460.07 103.496C458.69 104.576 457.49 105.716 456.47 106.916C455.51 108.116 455.03 109.166 455.03 110.066C455.03 110.726 455.3 111.236 455.84 111.596C456.38 111.896 456.98 112.046 457.64 112.046C458.3 112.046 459.05 111.896 459.89 111.596C460.73 111.296 461.54 110.966 462.32 110.606C463.1 110.246 463.79 109.886 464.39 109.526C465.05 109.106 465.47 108.806 465.65 108.626C465.77 108.506 465.95 108.326 466.19 108.086C466.43 107.846 466.67 107.726 466.91 107.726C467.03 107.726 467.21 107.786 467.45 107.906C467.69 108.026 467.81 108.236 467.81 108.536C467.51 109.016 467.3 109.436 467.18 109.796C467.06 110.156 467 110.486 467 110.786C467 111.566 467.54 111.956 468.62 111.956C469.28 111.956 470 111.866 470.78 111.686C471.62 111.446 472.43 111.206 473.21 110.966C474.05 110.666 474.8 110.396 475.46 110.156C476.18 109.856 476.72 109.646 477.08 109.526C478.28 109.046 479.18 108.686 479.78 108.446C480.14 108.266 480.5 108.116 480.86 107.996C480.98 107.996 481.07 108.086 481.13 108.266C481.25 108.386 481.31 108.506 481.31 108.626Z" fill="#1A1A1A"/>
<defs>
<linearGradient id="paint0_linear" x1="159.5" y1="33.9355" x2="326" y2="46.9355" gradientUnits="userSpaceOnUse">
<stop stop-color="#8B8B8B"/>
<stop offset="0.444799"/>
<stop offset="1" stop-color="#8D8D8D"/>
</linearGradient>
</defs>
</svg>
