<svg width="77" height="74" viewBox="0 0 77 74" fill="none" xmlns="http://www.w3.org/2000/svg">
<circle cx="39.5683" cy="36.6" r="36.6" fill="#F2F2F2"/>
<circle cx="6.18243" cy="37.0945" r="6.18243" fill="#CC32A1"/>
<path d="M54.99 36.0556L45.3282 26.3935C45.0524 26.1177 44.6848 25.9663 44.2928 25.9663C43.9004 25.9663 43.533 26.1179 43.2572 26.3935L42.38 27.2709C42.1044 27.5463 41.9526 27.9141 41.9526 28.3063C41.9526 28.6982 42.1044 29.0785 42.38 29.3538L48.0166 35.0028H30.1089C29.3015 35.0028 28.6636 35.6349 28.6636 36.4425V37.683C28.6636 38.4906 29.3015 39.1864 30.1089 39.1864H48.0805L42.3802 44.8669C42.1047 45.1427 41.9528 45.5005 41.9528 45.8927C41.9528 46.2845 42.1047 46.6475 42.3802 46.9231L43.2575 47.7977C43.5333 48.0735 43.9006 48.2238 44.293 48.2238C44.685 48.2238 45.0526 48.0715 45.3284 47.7957L54.9902 38.1339C55.2667 37.8572 55.4187 37.4879 55.4176 37.0953C55.4185 36.7013 55.2667 36.3318 54.99 36.0556Z" fill="#1A1A1A"/>
</svg>
