<svg width="275" height="98" viewBox="0 0 275 98" fill="none" xmlns="http://www.w3.org/2000/svg">
<g clip-path="url(#clip0)">
<rect width="1920" height="5434" transform="translate(-531 -162)" fill="#FBFBFB"/>
<path d="M140.75 56.9355C149.75 51.4355 164.75 34.4355 157.25 17.4355C140.848 -19.7427 96.6416 17.8253 117.75 28.9355C127.25 33.9357 141.25 19.4355 128.75 11.4355C110.096 -0.503024 90.2502 24.4354 71.2503 37.4353C52.7728 50.0778 13.2499 54.1225 2.75003 34.4355C-1.96594 25.5931 3.74994 16.474 9.25002 13.9355C22.25 7.93552 32.75 20.9355 23.25 31.9355C20.2316 35.4306 14.0939 36.3209 10.25 33.9355C6.81064 31.8011 5.35325 26.745 7.25002 23.4355C12.75 13.8391 22.2503 23.9355 16.2501 25.9355" stroke="url(#paint0_linear)"/>
<path d="M30.2501 47.9355C36.8048 48.3399 48.3122 49.4977 63.0232 41.7437C69.0186 38.5836 72.3277 36.9342 84.4599 27.4198C96.0517 18.3293 103.665 10.9722 113.25 8.93549C102.349 11.7323 90.1383 27.4232 77.9987 35.9458C73.3015 39.2435 62.7062 44.9072 55.5855 46.3847C43.5754 49.7203 30.099 47.9262 30.2501 47.9355Z" fill="#1A1A1A" stroke="#1A1A1A"/>
<path d="M19.2501 24.4355C18.7501 26.9355 16.9497 27.9355 14.7501 27.9355C12.5505 27.9355 11.0014 25.5046 11.899 23.2607C12.899 20.7607 17.753 22.6148 14.3989 19.2607C13.8989 18.7607 16.6233 19.3524 17.8989 20.7607C18.899 21.7607 19.4462 23.4549 19.2501 24.4355Z" fill="#1A1A1A"/>
<path d="M154.945 46.07C153.515 48.4967 151.652 50.6633 149.355 52.57C147.102 54.4333 144.567 56.1017 141.75 57.575C138.977 59.005 136.008 60.2617 132.845 61.345C129.725 62.4283 126.54 63.3817 123.29 64.205C120.083 64.985 116.92 65.6783 113.8 66.285C110.68 66.8483 107.733 67.3683 104.96 67.845C103.747 69.3183 102.512 70.8133 101.255 72.33C100.042 73.8033 98.8067 75.2767 97.55 76.75C99.5 77.27 101.688 77.8333 104.115 78.44C106.542 79.0033 109.055 79.6533 111.655 80.39C114.298 81.0833 116.963 81.8633 119.65 82.73C122.38 83.5967 125.002 84.5933 127.515 85.72C130.072 86.8033 132.455 88.0383 134.665 89.425C136.918 90.8117 138.89 92.3933 140.58 94.17C140.797 94.3867 140.97 94.5817 141.1 94.755C141.273 94.9717 141.36 95.1883 141.36 95.405C141.36 95.7517 141.143 96.0983 140.71 96.445C140.32 96.7917 139.865 97.03 139.345 97.16C137.568 95.34 135.532 93.715 133.235 92.285C130.938 90.855 128.49 89.5983 125.89 88.515C123.333 87.3883 120.668 86.3917 117.895 85.525C115.165 84.6583 112.457 83.8783 109.77 83.185C107.127 82.4483 104.57 81.7983 102.1 81.235C99.63 80.6283 97.3767 80.0217 95.34 79.415C93.6933 81.365 92.1333 83.2283 90.66 85.005C89.23 86.7383 87.9517 88.2767 86.825 89.62C85.7417 90.92 84.875 91.9817 84.225 92.805C83.575 93.585 83.2067 93.9967 83.12 94.04L82.795 94.365C82.5783 94.5817 82.3833 94.69 82.21 94.69C81.7333 94.69 81.495 94.4733 81.495 94.04C81.495 93.6933 81.6467 93.3683 81.95 93.065C81.9933 93.0217 82.3183 92.6317 82.925 91.895C83.575 91.115 84.42 90.0967 85.46 88.84C86.5433 87.54 87.7783 86.045 89.165 84.355C90.595 82.665 92.1117 80.845 93.715 78.895C91.375 78.1583 89.5333 77.3567 88.19 76.49C86.8467 75.6233 86.175 74.6267 86.175 73.5C86.175 72.6333 86.6083 71.8967 87.475 71.29C88.3417 70.64 89.5333 70.0767 91.05 69.6C92.61 69.1233 94.43 68.69 96.51 68.3C98.59 67.91 100.843 67.52 103.27 67.13C105.133 64.8333 106.91 62.645 108.6 60.565C110.333 58.485 111.85 56.6433 113.15 55.04C114.493 53.4367 115.555 52.1583 116.335 51.205C117.115 50.2517 117.527 49.7533 117.57 49.71C117.657 49.58 117.873 49.3417 118.22 48.995C118.61 48.6483 118.978 48.475 119.325 48.475C119.888 48.475 120.17 48.7133 120.17 49.19C120.17 49.6667 119.932 50.1 119.455 50.49C119.412 50.5333 119 51.01 118.22 51.92C117.483 52.83 116.487 54.0217 115.23 55.495C114.017 56.9683 112.608 58.68 111.005 60.63C109.402 62.5367 107.712 64.5733 105.935 66.74C109.835 66.09 113.952 65.31 118.285 64.4C122.662 63.4467 126.93 62.1683 131.09 60.565C135.25 58.9617 139.172 56.925 142.855 54.455C146.538 51.9417 149.637 48.8 152.15 45.03C152.237 44.9 152.323 44.7917 152.41 44.705C152.583 44.5317 152.8 44.445 153.06 44.445C153.233 44.445 153.45 44.51 153.71 44.64C154.057 44.8567 154.36 45.1167 154.62 45.42C154.923 45.68 155.032 45.8967 154.945 46.07ZM102.36 68.3C100.453 68.6033 98.6983 68.9283 97.095 69.275C95.535 69.5783 94.17 69.9033 93 70.25C91.8733 70.5533 90.985 70.9 90.335 71.29C89.7283 71.6367 89.425 72.0483 89.425 72.525C89.425 73.2617 89.9883 73.9117 91.115 74.475C92.285 75.0383 93.8667 75.6233 95.86 76.23C96.9433 74.93 98.005 73.63 99.045 72.33C100.128 70.9867 101.233 69.6433 102.36 68.3ZM161.325 89.165C161.325 89.295 161.281 89.4033 161.195 89.49C161.151 89.5333 161.086 89.5767 161 89.62C158.313 90.8333 156.06 91.44 154.24 91.44C153.113 91.44 152.246 91.0933 151.64 90.4C150.513 91.5267 149.235 92.48 147.805 93.26C146.418 94.04 145.031 94.43 143.645 94.43C143.038 94.43 142.561 94.2783 142.215 93.975C141.868 93.715 141.695 93.2383 141.695 92.545C141.695 91.6783 142.085 90.6167 142.865 89.36C143.688 88.1033 144.663 86.89 145.79 85.72C146.916 84.55 148.065 83.5533 149.235 82.73C150.448 81.9067 151.445 81.495 152.225 81.495C152.441 81.495 152.636 81.5817 152.81 81.755C153.026 81.885 153.135 82.015 153.135 82.145C153.135 82.2317 153.07 82.2967 152.94 82.34C152.81 82.34 152.68 82.34 152.55 82.34C152.03 82.34 151.293 82.6867 150.34 83.38C149.43 84.03 148.52 84.81 147.61 85.72C146.7 86.63 145.92 87.5833 145.27 88.58C144.62 89.5767 144.295 90.4 144.295 91.05C144.295 92.0033 144.771 92.48 145.725 92.48C146.505 92.48 147.371 92.22 148.325 91.7C149.321 91.1367 150.253 90.465 151.12 89.685C150.816 89.1217 150.665 88.4067 150.665 87.54C150.665 86.9333 150.751 86.3267 150.925 85.72C151.141 85.07 151.423 84.5067 151.77 84.03C152.116 83.5533 152.528 83.1633 153.005 82.86C153.525 82.5567 154.088 82.405 154.695 82.405C155.518 82.405 155.93 82.795 155.93 83.575C155.93 84.2683 155.626 85.135 155.02 86.175C154.456 87.215 153.676 88.2767 152.68 89.36C153.156 89.9667 153.85 90.27 154.76 90.27C155.366 90.27 155.995 90.205 156.645 90.075C157.295 89.945 157.901 89.815 158.465 89.685C159.071 89.5117 159.591 89.3383 160.025 89.165C160.458 88.9917 160.783 88.84 161 88.71H161.065C161.151 88.71 161.216 88.775 161.26 88.905C161.303 88.9917 161.325 89.0783 161.325 89.165ZM154.76 84.615C154.76 84.0083 154.37 83.705 153.59 83.705C153.113 83.705 152.701 84.03 152.355 84.68C152.051 85.2867 151.9 85.98 151.9 86.76C151.9 87.1067 151.921 87.4317 151.965 87.735C152.008 88.0383 152.095 88.3417 152.225 88.645C152.961 87.9083 153.568 87.1717 154.045 86.435C154.521 85.6983 154.76 85.0917 154.76 84.615ZM162.28 89.62C162.28 90.0533 162.41 90.4433 162.67 90.79C162.93 91.0933 163.233 91.245 163.58 91.245C163.97 91.245 164.425 91.1367 164.945 90.92C165.508 90.7033 166.072 90.4433 166.635 90.14C167.242 89.7933 167.848 89.4033 168.455 88.97C169.105 88.5367 169.712 88.1033 170.275 87.67C170.925 87.1933 171.575 86.6733 172.225 86.11C172.918 85.5467 173.612 84.9617 174.305 84.355C174.608 84.355 174.847 84.42 175.02 84.55C175.237 84.6367 175.345 84.8533 175.345 85.2C175.345 85.3733 175.28 85.5467 175.15 85.72C175.02 85.8933 174.782 86.3483 174.435 87.085C174.132 87.8217 173.98 88.5583 173.98 89.295C173.98 89.425 173.98 89.62 173.98 89.88C174.023 90.0967 174.088 90.335 174.175 90.595C174.305 90.855 174.478 91.0933 174.695 91.31C174.912 91.4833 175.237 91.57 175.67 91.57C176.147 91.57 176.667 91.505 177.23 91.375C177.837 91.2017 178.422 91.0283 178.985 90.855C179.592 90.6383 180.133 90.4433 180.61 90.27C181.13 90.0533 181.52 89.9017 181.78 89.815C182.603 89.5117 183.253 89.2517 183.73 89.035C184.077 88.8617 184.337 88.7533 184.51 88.71C184.727 88.71 184.835 88.8617 184.835 89.165C184.835 89.3817 184.77 89.5117 184.64 89.555L181.715 90.725C181.282 90.8983 180.718 91.1367 180.025 91.44C179.375 91.7 178.66 91.96 177.88 92.22C177.1 92.48 176.342 92.7183 175.605 92.935C174.868 93.1083 174.218 93.195 173.655 93.195C173.092 93.195 172.637 93.0867 172.29 92.87C171.987 92.61 171.727 92.3283 171.51 92.025C171.337 91.7217 171.207 91.4183 171.12 91.115C171.077 90.8117 171.055 90.5733 171.055 90.4C171.055 89.75 171.185 89.165 171.445 88.645C171.748 88.0817 171.943 87.7567 172.03 87.67C172.073 87.6267 172.03 87.605 171.9 87.605C171.51 87.9083 170.903 88.3633 170.08 88.97C169.257 89.5333 168.325 90.1183 167.285 90.725C166.288 91.3317 165.248 91.8733 164.165 92.35C163.082 92.7833 162.128 93 161.305 93C160.828 93 160.417 92.7833 160.07 92.35C159.723 91.9167 159.55 91.4617 159.55 90.985C159.42 90.465 159.463 90.0317 159.68 89.685C159.94 89.295 160.243 89.035 160.59 88.905C160.937 88.7317 161.283 88.71 161.63 88.84C161.977 88.9267 162.193 89.1867 162.28 89.62ZM198.571 86.76C198.441 86.9333 198.29 87.28 198.116 87.8C197.943 88.32 197.856 88.9483 197.856 89.685C197.856 89.815 197.856 90.01 197.856 90.27C197.9 90.4867 197.965 90.725 198.051 90.985C198.181 91.245 198.355 91.4833 198.571 91.7C198.788 91.8733 199.113 91.96 199.546 91.96C200.023 91.96 200.565 91.8733 201.171 91.7C201.778 91.4833 202.385 91.2667 202.991 91.05C203.598 90.79 204.14 90.5517 204.616 90.335C205.136 90.075 205.526 89.9017 205.786 89.815C206.61 89.5117 207.26 89.2517 207.736 89.035C208.083 88.8617 208.343 88.7533 208.516 88.71C208.733 88.71 208.841 88.8617 208.841 89.165C208.841 89.3817 208.776 89.5117 208.646 89.555L205.721 90.725C205.288 90.8983 204.725 91.1367 204.031 91.44C203.381 91.7 202.666 91.96 201.886 92.22C201.106 92.48 200.348 92.7183 199.611 92.935C198.875 93.1083 198.225 93.195 197.661 93.195C197.098 93.195 196.643 93.0867 196.296 92.87C195.993 92.61 195.733 92.3283 195.516 92.025C195.343 91.7217 195.213 91.4183 195.126 91.115C195.083 90.8117 195.061 90.5733 195.061 90.4C195.061 89.75 195.17 89.2083 195.386 88.775C195.646 88.3417 195.82 88.0817 195.906 87.995C195.646 87.9517 195.408 87.9083 195.191 87.865C194.931 88.1683 194.476 88.5583 193.826 89.035C193.003 89.6417 192.05 90.2483 190.966 90.855C189.926 91.4183 188.843 91.9167 187.716 92.35C186.59 92.7833 185.615 93 184.791 93C184.315 93 183.903 92.7833 183.556 92.35C183.21 91.9167 183.036 91.4617 183.036 90.985C182.906 90.465 182.95 90.0317 183.166 89.685C183.426 89.295 183.73 89.035 184.076 88.905C184.423 88.7317 184.77 88.71 185.116 88.84C185.463 88.9267 185.68 89.1867 185.766 89.62C185.766 90.0533 185.896 90.4433 186.156 90.79C186.416 91.0933 186.72 91.245 187.066 91.245C187.456 91.245 187.911 91.1367 188.431 90.92C188.995 90.7033 189.558 90.4433 190.121 90.14C190.728 89.7933 191.335 89.4033 191.941 88.97C192.591 88.5367 193.198 88.1033 193.761 87.67C193.805 87.6267 193.848 87.5833 193.891 87.54C192.895 87.2367 192.115 86.89 191.551 86.5C190.641 85.85 190.1 85.2217 189.926 84.615C189.753 83.965 189.861 83.3583 190.251 82.795C190.685 82.1883 191.226 81.755 191.876 81.495C192.57 81.1917 193.306 81.0833 194.086 81.17C194.91 81.2567 195.603 81.6467 196.166 82.34C196.383 82.6 196.535 82.9683 196.621 83.445C196.708 83.8783 196.708 84.355 196.621 84.875C196.578 85.3517 196.448 85.85 196.231 86.37C196.101 86.63 195.971 86.8683 195.841 87.085C196.101 87.085 196.318 86.9983 196.491 86.825C196.881 86.435 197.271 86.2833 197.661 86.37C198.051 86.4133 198.355 86.5433 198.571 86.76ZM195.061 85.785C195.278 85.3517 195.43 84.9183 195.516 84.485C195.603 84.0517 195.581 83.64 195.451 83.25C195.321 82.73 195.04 82.4267 194.606 82.34C194.216 82.21 193.805 82.21 193.371 82.34C192.938 82.47 192.548 82.6867 192.201 82.99C191.898 83.2933 191.768 83.64 191.811 84.03C191.855 84.5067 192.093 84.9833 192.526 85.46C193.003 85.9367 193.61 86.3267 194.346 86.63C194.39 86.6733 194.455 86.7167 194.541 86.76C194.758 86.4567 194.931 86.1317 195.061 85.785ZM225.096 89.165C225.096 89.3383 225.031 89.4683 224.901 89.555C223.124 90.2917 221.391 90.9417 219.701 91.505C218.271 91.9817 216.776 92.4367 215.216 92.87C213.699 93.3033 212.421 93.52 211.381 93.52C210.384 93.52 209.474 93.195 208.651 92.545C207.827 91.895 207.416 90.9633 207.416 89.75C207.416 88.6233 207.827 87.4967 208.651 86.37C209.474 85.2 210.471 84.16 211.641 83.25C212.854 82.34 214.132 81.6033 215.476 81.04C216.819 80.4333 218.032 80.13 219.116 80.13C219.419 80.13 219.679 80.195 219.896 80.325C220.372 80.5417 220.611 81.0183 220.611 81.755C220.611 82.1883 220.437 82.6217 220.091 83.055C219.787 83.4883 219.441 83.8783 219.051 84.225C218.574 84.615 218.054 84.9833 217.491 85.33C217.447 85.33 217.361 85.3517 217.231 85.395C216.971 85.4817 216.689 85.525 216.386 85.525C216.169 85.525 216.061 85.3733 216.061 85.07C216.061 84.8533 216.191 84.615 216.451 84.355C216.797 84.1383 217.231 83.7483 217.751 83.185C218.314 82.6217 218.596 82.1233 218.596 81.69C218.596 81.3867 218.336 81.235 217.816 81.235C217.166 81.235 216.386 81.4733 215.476 81.95C214.566 82.3833 213.677 82.9467 212.811 83.64C211.987 84.29 211.272 85.0483 210.666 85.915C210.102 86.7383 209.821 87.54 209.821 88.32C209.821 89.36 210.167 90.1833 210.861 90.79C211.597 91.3533 212.637 91.635 213.981 91.635C215.107 91.635 216.299 91.4833 217.556 91.18C218.812 90.8333 219.982 90.4867 221.066 90.14C222.322 89.7067 223.557 89.23 224.771 88.71C224.857 88.71 224.922 88.775 224.966 88.905C225.052 88.9917 225.096 89.0783 225.096 89.165ZM272.612 52.375C272.612 54.3683 271.789 56.4917 270.142 58.745C268.539 60.9983 266.416 63.2733 263.772 65.57C261.172 67.8667 258.226 70.1417 254.932 72.395C251.682 74.6483 248.389 76.7717 245.052 78.765C241.716 80.715 238.509 82.4917 235.432 84.095C232.356 85.6983 229.734 87.02 227.567 88.06C227.134 88.8833 226.917 89.4683 226.917 89.815C226.917 90.075 227.026 90.205 227.242 90.205C229.539 88.9917 231.706 87.9083 233.742 86.955C235.476 86.1317 237.187 85.395 238.877 84.745C240.567 84.0517 241.846 83.705 242.712 83.705C243.796 83.705 244.337 84.0733 244.337 84.81C244.337 85.2 244.142 85.6767 243.752 86.24C243.362 86.8033 242.799 87.3667 242.062 87.93C241.369 88.4933 240.502 89.035 239.462 89.555C238.466 90.075 237.339 90.5083 236.082 90.855C235.822 90.855 235.692 90.9633 235.692 91.18C235.692 91.2233 235.736 91.3317 235.822 91.505C235.952 91.7217 236.234 91.9383 236.667 92.155C237.144 92.3283 237.816 92.415 238.682 92.415C239.202 92.415 239.852 92.3283 240.632 92.155C241.456 91.9817 242.301 91.765 243.167 91.505C244.034 91.245 244.901 90.9633 245.767 90.66C246.677 90.3567 247.457 90.075 248.107 89.815C248.974 89.4683 249.624 89.2083 250.057 89.035C250.317 88.905 250.577 88.7967 250.837 88.71C250.924 88.71 250.989 88.775 251.032 88.905C251.119 88.9917 251.162 89.0783 251.162 89.165C251.162 89.3383 251.097 89.4683 250.967 89.555L248.042 90.725C246.569 91.2883 245.117 91.8083 243.687 92.285C242.431 92.675 241.109 93.0433 239.722 93.39C238.379 93.7367 237.166 93.91 236.082 93.91C234.566 93.91 233.482 93.65 232.832 93.13C232.226 92.6533 231.857 92.1117 231.727 91.505C231.727 91.0283 231.879 90.725 232.182 90.595C232.529 90.4217 232.941 90.335 233.417 90.335C234.327 90.335 235.281 90.1617 236.277 89.815C237.274 89.4683 238.184 89.0567 239.007 88.58C239.874 88.06 240.567 87.5617 241.087 87.085C241.651 86.565 241.932 86.1533 241.932 85.85C241.932 85.5467 241.629 85.395 241.022 85.395C240.112 85.395 238.921 85.655 237.447 86.175C236.017 86.695 234.479 87.3667 232.832 88.19C231.229 88.97 229.561 89.8367 227.827 90.79C226.137 91.7433 224.577 92.6317 223.147 93.455C223.061 93.4983 222.931 93.52 222.757 93.52C222.497 93.52 222.367 93.39 222.367 93.13C222.367 92.7833 222.822 91.895 223.732 90.465C224.686 88.9917 225.942 87.1933 227.502 85.07C229.106 82.9033 230.969 80.52 233.092 77.92C235.259 75.2767 237.556 72.6117 239.982 69.925C242.409 67.2383 244.922 64.6383 247.522 62.125C250.122 59.5683 252.679 57.315 255.192 55.365C257.706 53.3717 260.111 51.79 262.407 50.62C264.747 49.4067 266.827 48.8 268.647 48.8C271.291 48.8 272.612 49.9917 272.612 52.375ZM269.817 52.7C269.817 52.05 269.601 51.5083 269.167 51.075C268.777 50.5983 268.171 50.36 267.347 50.36C266.047 50.36 264.574 50.7717 262.927 51.595C261.281 52.375 259.526 53.4367 257.662 54.78C255.799 56.1233 253.871 57.705 251.877 59.525C249.927 61.3017 247.977 63.1867 246.027 65.18C244.121 67.1733 242.236 69.21 240.372 71.29C238.552 73.37 236.862 75.385 235.302 77.335C233.742 79.285 232.356 81.105 231.142 82.795C229.929 84.4417 228.954 85.85 228.217 87.02C230.341 86.0667 232.832 84.81 235.692 83.25C238.552 81.6467 241.521 79.87 244.597 77.92C247.717 75.97 250.772 73.89 253.762 71.68C256.796 69.47 259.482 67.26 261.822 65.05C264.206 62.7967 266.134 60.63 267.607 58.55C269.081 56.4267 269.817 54.4767 269.817 52.7ZM274.718 89.165C274.718 89.3383 274.653 89.4683 274.523 89.555L271.598 90.725C271.164 90.8983 270.601 91.1367 269.908 91.44C269.258 91.7 268.543 91.96 267.763 92.22C266.983 92.48 266.224 92.7183 265.488 92.935C264.751 93.1083 264.101 93.195 263.538 93.195C262.974 93.195 262.519 93.0867 262.173 92.87C261.869 92.61 261.609 92.3283 261.393 92.025C261.219 91.7217 261.089 91.4183 261.003 91.115C260.959 90.8117 260.938 90.5733 260.938 90.4C260.938 89.75 261.068 89.165 261.328 88.645C261.631 88.0817 261.826 87.7567 261.913 87.67C261.956 87.6267 261.913 87.605 261.783 87.605C261.393 87.9083 260.786 88.3417 259.963 88.905C259.183 89.4683 258.294 90.0317 257.298 90.595C256.301 91.1583 255.283 91.6567 254.243 92.09C253.246 92.5233 252.314 92.74 251.448 92.74C250.971 92.74 250.559 92.5233 250.213 92.09C249.866 91.6567 249.693 91.2017 249.693 90.725C249.693 90.205 249.888 89.62 250.278 88.97C250.668 88.32 251.123 87.6917 251.643 87.085C252.206 86.4783 252.748 85.915 253.268 85.395C253.788 84.875 254.178 84.5283 254.438 84.355C254.438 84.3117 254.459 84.29 254.503 84.29H254.763C254.979 84.29 255.153 84.355 255.283 84.485C255.326 84.5283 255.348 84.5933 255.348 84.68C255.348 84.8533 255.196 85.1133 254.893 85.46C254.589 85.7633 254.243 86.1317 253.853 86.565C253.506 86.955 253.181 87.3883 252.878 87.865C252.574 88.3417 252.423 88.84 252.423 89.36C252.423 89.7933 252.553 90.1833 252.813 90.53C253.073 90.8333 253.376 90.985 253.723 90.985C254.546 90.985 255.543 90.66 256.713 90.01C257.883 89.3167 259.031 88.5367 260.158 87.67C261.458 86.6733 262.801 85.5683 264.188 84.355C264.491 84.355 264.729 84.42 264.903 84.55C265.119 84.6367 265.228 84.8533 265.228 85.2C265.228 85.33 265.163 85.5033 265.033 85.72C264.903 85.8933 264.664 86.3483 264.318 87.085C264.014 87.8217 263.863 88.5583 263.863 89.295C263.863 89.425 263.863 89.62 263.863 89.88C263.906 90.0967 263.971 90.335 264.058 90.595C264.188 90.855 264.361 91.0933 264.578 91.31C264.794 91.4833 265.119 91.57 265.553 91.57C266.029 91.57 266.549 91.505 267.113 91.375C267.719 91.2017 268.304 91.0283 268.868 90.855C269.474 90.6383 270.016 90.4433 270.493 90.27C271.013 90.0533 271.403 89.9017 271.663 89.815C272.529 89.4683 273.179 89.2083 273.613 89.035C273.873 88.905 274.133 88.7967 274.393 88.71C274.479 88.71 274.544 88.775 274.588 88.905C274.674 88.9917 274.718 89.0783 274.718 89.165ZM106.28 140.52C102.32 140.52 102.4 140.48 102.4 137.76V119.24C102.4 116.96 102.88 116.48 105.56 116.48C105.68 116.48 105.68 116 105.56 116H84.36C84.2 116 84.2 116.48 84.36 116.48C87.2 116.48 88.72 117.72 88.72 123.36C88.72 134.6 86.04 140.28 81.04 140.28C80.56 140.28 80.56 140.28 80.56 140.76C80.56 141.64 81.2 143.6 81.2 148.48C81.2 148.72 81.68 148.72 81.68 148.48C81.68 143 83.48 141.04 88.36 141.04L97.96 141C103.12 141 105.88 143.6 105.88 148.48C105.88 148.72 106.32 148.72 106.32 148.48C106.32 143.6 106.76 142.32 106.76 141C106.76 140.52 106.76 140.52 106.28 140.52ZM97.96 137.68C97.96 140.12 97.92 139.92 95.76 139.92H85.28C88.72 136.96 89.84 131.68 89.84 120.04C89.84 117.08 89.88 117.04 92.2 117.04H95.96C97.92 117.04 97.96 117.04 97.96 119.32V137.68ZM110.297 141.48C117.337 141.48 117.537 127.44 117.537 119.6C117.537 117.56 117.737 117.24 119.937 117.24H123.777C125.737 117.24 125.777 117.24 125.777 119.72V137.76C125.777 140.08 125.337 140.52 122.697 140.52C122.537 140.52 122.537 141 122.697 141C124.177 141 126.057 140.92 128.257 140.92C130.177 140.92 131.937 141 133.337 141C133.497 141 133.497 140.52 133.337 140.52C130.697 140.52 130.217 140.08 130.217 137.76V119.24C130.217 116.96 130.697 116.48 133.337 116.48C133.497 116.48 133.497 116 133.337 116H111.937C111.777 116 111.777 116.48 111.937 116.48C115.617 116.48 116.417 118.04 116.417 122.96C116.417 128.56 115.377 137.6 110.737 137.6H109.897C108.897 137.6 107.857 138.04 107.857 139.44C107.857 140.84 108.897 141.48 110.297 141.48ZM158.249 140.52C155.369 140.52 155.089 140.08 155.089 137.76V119.24C155.089 116.96 155.369 116.48 158.249 116.48C158.369 116.48 158.369 116 158.249 116C156.689 116 155.009 116.12 152.889 116.12C151.529 116.12 149.409 115.88 148.289 115.88C143.449 115.88 139.849 118.4 139.849 122.04C139.849 125.32 142.529 127.56 147.809 128.04C145.009 128.52 142.929 129.76 140.689 133.48C137.649 138.16 137.129 140.44 134.689 140.52C134.569 140.52 134.569 141 134.689 141H139.929C140.849 141 140.849 141.24 144.809 134.28C147.249 129.92 148.769 128.56 150.649 128.16V137.76C150.649 140.08 150.289 140.52 147.809 140.52C147.649 140.52 147.649 141 147.809 141C149.209 141 150.889 140.92 152.889 140.92C154.969 140.92 156.729 141 158.249 141C158.369 141 158.369 140.52 158.249 140.52ZM144.449 121.04C144.449 118 145.649 116.4 148.209 116.4C149.449 116.4 150.649 117 150.649 119.32V127.28H150.089C146.289 127.28 144.449 124.76 144.449 121.04ZM198.147 140.52C195.467 140.52 195.027 140.08 195.027 137.76V119.24C195.027 116.96 195.467 116.48 198.147 116.48C198.307 116.48 198.307 116 198.147 116C196.747 116 194.747 116.12 192.827 116.12C190.347 116.12 188.627 116 187.267 116C187.107 116 187.107 116.48 187.267 116.48C190.147 116.48 190.587 117.04 190.587 119.32V127.44H177.667V119.32C177.667 117.04 178.187 116.48 180.987 116.48C181.107 116.48 181.107 116 180.987 116C179.467 116 177.707 116.12 175.267 116.12C173.347 116.12 171.547 116 170.147 116C169.987 116 169.987 116.48 170.147 116.48C172.747 116.48 173.227 116.96 173.227 119.24V137.76C173.227 140.08 172.747 140.52 170.067 140.52C169.947 140.52 169.947 141 170.067 141C171.467 141 173.347 140.92 175.267 140.92C177.707 140.92 179.427 141 180.987 141C181.107 141 181.107 140.52 180.987 140.52C178.147 140.52 177.667 140.08 177.667 137.76V128.56H190.587V137.76C190.587 140.08 190.147 140.52 187.267 140.52C187.107 140.52 187.107 141 187.267 141C188.627 141 190.347 140.92 192.827 140.92C194.747 140.92 196.747 141 198.147 141C198.307 141 198.307 140.52 198.147 140.52ZM214.054 141.48C221.654 141.48 228.094 135.68 228.094 128.24C228.094 121.8 223.334 115.56 215.454 115.56C208.974 115.56 201.374 119.84 201.374 128.52C201.374 135.56 206.374 141.48 214.054 141.48ZM215.374 140.48C210.134 140.48 206.294 134.88 206.294 127.04C206.294 120.56 208.974 116.64 213.854 116.64C219.654 116.64 223.174 122.08 223.174 129.4C223.174 136.52 219.814 140.48 215.374 140.48ZM244.439 126.96C247.679 125.76 249.319 123.52 249.319 121.04C249.319 117.64 246.479 115.88 241.679 115.88C239.959 115.88 238.279 116.12 236.759 116.12C234.839 116.12 233.119 116 231.719 116C231.599 116 231.599 116.48 231.719 116.48C233.959 116.48 234.559 116.96 234.559 119.24V137.76C234.559 140.08 233.919 140.52 231.679 140.52C231.519 140.52 231.519 141 231.679 141C233.079 141 234.839 140.92 236.759 140.92C238.559 140.92 241.079 141.16 242.519 141.16C247.799 141.16 251.759 137.96 251.759 133.76C251.759 130.16 248.919 127.52 244.439 126.96ZM241.079 116.76C243.559 116.76 244.959 118.36 244.959 121.4C244.959 124.48 243.519 126.96 240.639 126.96C240.559 126.96 239.959 126.96 239.039 126.92V119.32C239.039 117.36 239.519 116.76 241.079 116.76ZM241.839 140.16C239.359 140.16 239.039 139.36 239.039 137.76V128.12C239.959 128.04 240.719 128.04 241.119 128.04C245.279 128.04 247.079 130.8 247.079 134.72C247.079 138.2 245.519 140.16 241.839 140.16ZM268.468 141.48C276.068 141.48 282.508 135.68 282.508 128.24C282.508 121.8 277.748 115.56 269.868 115.56C263.388 115.56 255.788 119.84 255.788 128.52C255.788 135.56 260.788 141.48 268.468 141.48ZM269.788 140.48C264.548 140.48 260.708 134.88 260.708 127.04C260.708 120.56 263.388 116.64 268.268 116.64C274.068 116.64 277.588 122.08 277.588 129.4C277.588 136.52 274.228 140.48 269.788 140.48ZM293.093 137.6V119.32C293.093 117.24 293.533 116.76 295.013 116.76C298.453 116.76 300.253 119.16 300.253 123.36C300.253 127.8 298.253 129.96 295.973 129.96C295.653 129.96 295.053 129.92 294.613 129.8C294.413 129.76 294.333 130.28 294.493 130.32C295.133 130.48 295.813 130.52 296.373 130.52C300.533 130.52 305.333 127.92 305.093 122.44C304.893 117.76 301.333 115.88 296.293 115.88C294.493 115.88 292.133 116.12 290.853 116.12C288.933 116.12 287.213 116 285.813 116C285.653 116 285.653 116.48 285.813 116.48C288.253 116.48 288.653 116.96 288.653 119.24V137.76C288.653 140.08 288.253 140.52 285.813 140.52C285.653 140.52 285.653 141 285.813 141C287.213 141 288.973 140.92 290.893 140.92C293.253 140.92 295.213 141 296.933 141C297.093 141 297.093 140.52 296.933 140.52C293.613 140.52 293.093 140 293.093 137.6ZM321.203 141.48C328.803 141.48 335.243 135.68 335.243 128.24C335.243 121.8 330.483 115.56 322.603 115.56C316.123 115.56 308.523 119.84 308.523 128.52C308.523 135.56 313.523 141.48 321.203 141.48ZM322.523 140.48C317.283 140.48 313.443 134.88 313.443 127.04C313.443 120.56 316.123 116.64 321.003 116.64C326.803 116.64 330.323 122.08 330.323 129.4C330.323 136.52 326.963 140.48 322.523 140.48ZM377.17 140.52C374.57 140.44 372.93 137.88 369.73 133.48C366.53 129 365.57 127.88 362.41 127.72L367.89 120.96C370.25 118.04 372.93 116.48 375.53 116.48C375.69 116.48 375.69 116 375.53 116C374.25 116 373.01 116.12 370.57 116.12C368.45 116.12 366.41 116 365.17 116C365.01 116 365.01 116.48 365.17 116.48C367.65 116.48 367.61 119.16 365.05 122.68L361.45 127.68H361.41C360.65 127.68 359.73 127.68 358.69 127.72V119.32C358.69 117.04 359.17 116.48 361.81 116.48C361.93 116.48 361.93 116 361.81 116C360.33 116 358.41 116.12 356.29 116.12C354.41 116.12 352.69 116 351.25 116C351.13 116 351.13 116.48 351.25 116.48C353.89 116.48 354.37 116.96 354.37 119.24V127.72C353.29 127.68 352.41 127.68 351.65 127.68H351.61L347.85 122.48C345.37 119.04 345.41 116.48 347.89 116.48C348.05 116.48 348.05 116 347.89 116C346.65 116 344.61 116.12 342.49 116.12C340.05 116.12 338.81 116 337.53 116C337.37 116 337.37 116.48 337.53 116.48C340.13 116.48 342.81 118.04 345.17 120.96L350.65 127.72C347.49 127.88 346.53 129 343.33 133.48C340.13 137.88 338.49 140.44 335.89 140.52C335.73 140.52 335.73 141 335.89 141H342.05C342.93 141 343.17 140.96 347.85 134.28C351.21 129.48 351.65 128.4 354.37 128.4V137.76C354.37 140.08 353.89 140.52 351.21 140.52C351.09 140.52 351.09 141 351.21 141C352.61 141 354.41 140.92 356.29 140.92C358.41 140.92 360.29 141 361.81 141C361.93 141 361.93 140.52 361.81 140.52C359.13 140.52 358.69 140.08 358.69 137.76V128.4C361.41 128.4 361.85 129.48 365.21 134.28C369.89 140.96 370.13 141 371.01 141H377.17C377.33 141 377.33 140.52 377.17 140.52ZM403.077 140.52C399.117 140.52 399.197 140.48 399.197 137.76V119.24C399.197 116.96 399.677 116.48 402.357 116.48C402.477 116.48 402.477 116 402.357 116H381.157C380.997 116 380.997 116.48 381.157 116.48C383.997 116.48 385.517 117.72 385.517 123.36C385.517 134.6 382.837 140.28 377.837 140.28C377.357 140.28 377.357 140.28 377.357 140.76C377.357 141.64 377.997 143.6 377.997 148.48C377.997 148.72 378.477 148.72 378.477 148.48C378.477 143 380.277 141.04 385.157 141.04L394.757 141C399.917 141 402.677 143.6 402.677 148.48C402.677 148.72 403.117 148.72 403.117 148.48C403.117 143.6 403.557 142.32 403.557 141C403.557 140.52 403.557 140.52 403.077 140.52ZM394.757 137.68C394.757 140.12 394.717 139.92 392.557 139.92H382.077C385.517 136.96 386.637 131.68 386.637 120.04C386.637 117.08 386.677 117.04 388.997 117.04H392.757C394.717 117.04 394.757 117.04 394.757 119.32V137.68ZM424.254 134.64C423.094 138.24 420.654 139.88 416.494 139.88H415.174C413.894 139.88 413.334 139.16 413.334 137.6V128.56H416.614C419.814 128.56 421.494 129.92 421.494 132.08C421.494 132.2 421.974 132.2 421.974 132.08C421.974 130.56 421.854 129.36 421.854 128C421.854 126.92 421.894 126.16 421.894 124.4C421.894 124.24 421.454 124.24 421.454 124.4C421.454 126.28 419.814 127.44 416.654 127.44H413.334V119.28C413.334 117.84 414.054 117.16 415.654 117.16H416.854C420.174 117.16 422.134 118.6 423.014 121.72C423.094 121.88 423.494 121.8 423.494 121.68L423.414 116.36C423.414 116.12 423.334 116 423.014 116H406.054C405.894 116 405.894 116.48 406.054 116.48C408.494 116.48 408.894 116.96 408.894 119.24V137.76C408.894 140.08 408.494 140.52 406.054 140.52C405.894 140.52 405.894 141 406.054 141H423.734C424.214 141 424.334 140.84 424.334 140.4C424.334 138.6 424.534 136.28 424.734 134.72C424.734 134.6 424.294 134.48 424.254 134.64ZM455.764 140.52C453.084 140.52 452.644 140.08 452.644 137.76V119.24C452.644 116.96 453.084 116.48 455.764 116.48C455.924 116.48 455.924 116 455.764 116C454.364 116 452.364 116.12 450.444 116.12C447.964 116.12 446.244 116 444.884 116C444.724 116 444.724 116.48 444.884 116.48C447.764 116.48 448.204 117.04 448.204 119.32V127.44H435.284V119.32C435.284 117.04 435.804 116.48 438.604 116.48C438.724 116.48 438.724 116 438.604 116C437.084 116 435.324 116.12 432.884 116.12C430.964 116.12 429.164 116 427.764 116C427.604 116 427.604 116.48 427.764 116.48C430.364 116.48 430.844 116.96 430.844 119.24V137.76C430.844 140.08 430.364 140.52 427.684 140.52C427.564 140.52 427.564 141 427.684 141C429.084 141 430.964 140.92 432.884 140.92C435.324 140.92 437.044 141 438.604 141C438.724 141 438.724 140.52 438.604 140.52C435.764 140.52 435.284 140.08 435.284 137.76V128.56H448.204V137.76C448.204 140.08 447.764 140.52 444.884 140.52C444.724 140.52 444.724 141 444.884 141C446.244 141 447.964 140.92 450.444 140.92C452.364 140.92 454.364 141 455.764 141C455.924 141 455.924 140.52 455.764 140.52ZM486.311 140.52C483.631 140.52 483.191 140.08 483.191 137.76V119.24C483.191 116.96 483.631 116.48 486.311 116.48C486.471 116.48 486.471 116 486.311 116C484.911 116 482.911 116.12 480.991 116.12C478.511 116.12 476.791 116 475.431 116C475.271 116 475.271 116.48 475.431 116.48C478.311 116.48 478.751 117.04 478.751 119.32V127.44H465.831V119.32C465.831 117.04 466.351 116.48 469.151 116.48C469.271 116.48 469.271 116 469.151 116C467.631 116 465.871 116.12 463.431 116.12C461.511 116.12 459.711 116 458.311 116C458.151 116 458.151 116.48 458.311 116.48C460.911 116.48 461.391 116.96 461.391 119.24V137.76C461.391 140.08 460.911 140.52 458.231 140.52C458.111 140.52 458.111 141 458.231 141C459.631 141 461.511 140.92 463.431 140.92C465.871 140.92 467.591 141 469.151 141C469.271 141 469.271 140.52 469.151 140.52C466.311 140.52 465.831 140.08 465.831 137.76V128.56H478.751V137.76C478.751 140.08 478.311 140.52 475.431 140.52C475.271 140.52 475.271 141 475.431 141C476.791 141 478.511 140.92 480.991 140.92C482.911 140.92 484.911 141 486.311 141C486.471 141 486.471 140.52 486.311 140.52ZM499.778 126.88C498.738 126.88 497.658 126.96 496.578 127.12V119.32C496.578 117.04 497.058 116.48 499.898 116.48C500.018 116.48 500.018 116 499.898 116C498.378 116 496.618 116.12 494.178 116.12C492.258 116.12 490.658 116 489.258 116C489.138 116 489.138 116.48 489.258 116.48C491.698 116.48 492.098 116.96 492.098 119.24V137.76C492.098 140.08 491.658 140.52 489.218 140.52C489.058 140.52 489.058 141 489.218 141C490.618 141 492.378 140.92 494.298 140.92C496.138 140.92 498.858 141.16 500.258 141.16C505.498 141.16 509.298 137.96 509.298 133.72C509.298 129.04 504.898 126.88 499.778 126.88ZM521.258 140.52C518.778 140.52 518.418 140.08 518.418 137.76V119.32C518.418 117.04 518.818 116.48 521.258 116.48C521.418 116.48 521.418 116 521.258 116C519.898 116 518.178 116.12 516.138 116.12C514.218 116.12 512.418 116 511.018 116C510.898 116 510.898 116.48 511.018 116.48C513.458 116.48 513.938 116.96 513.938 119.24V137.76C513.938 140.08 513.458 140.52 511.018 140.52C510.898 140.52 510.898 141 511.018 141C512.418 141 514.218 140.92 516.138 140.92C518.178 140.92 519.858 141 521.258 141C521.418 141 521.418 140.52 521.258 140.52ZM499.498 140.16C496.938 140.16 496.578 139.12 496.578 137.76V128.16C497.218 128.04 497.818 128 498.378 128C502.138 128 504.618 130 504.618 134.72C504.618 138.16 503.138 140.16 499.498 140.16ZM548.729 140.52C546.929 140.52 545.609 139.68 544.289 137.68L537.449 127.08L541.249 121.88C544.049 118.04 546.529 116.48 548.089 116.48C548.249 116.48 548.249 116 548.089 116C546.729 116 546.049 116.12 544.529 116.12C542.249 116.12 541.129 116 539.569 116C539.449 116 539.449 116.48 539.569 116.48C542.169 116.48 542.329 118.44 540.089 121.64L536.889 126.2L531.609 118.08C530.729 116.72 531.569 116.48 532.609 116.48C532.729 116.48 532.729 116 532.609 116C531.129 116 529.129 116.12 526.849 116.12C525.769 116.12 524.529 116 523.449 116C523.289 116 523.289 116.48 523.449 116.48C524.929 116.48 526.169 117.36 527.649 119.68L534.049 129.64L529.969 135.16C527.169 139 524.689 140.52 523.169 140.52C523.009 140.52 523.009 141 523.169 141C524.529 141 525.209 140.92 526.729 140.92C529.009 140.92 530.129 141 531.689 141C531.809 141 531.809 140.52 531.689 140.52C529.089 140.52 528.929 138.56 531.169 135.4L534.609 130.48L540.089 138.96C540.929 140.24 540.129 140.52 539.129 140.52C538.969 140.52 538.969 141 539.129 141C540.609 141 542.249 140.92 544.529 140.92C546.129 140.92 547.529 141 548.729 141C548.889 141 548.889 140.52 548.729 140.52Z" fill="#1A1A1A"/>
</g>
<defs>
<linearGradient id="paint0_linear" x1="-7.25" y1="28.9355" x2="159.25" y2="41.9355" gradientUnits="userSpaceOnUse">
<stop stop-color="#8B8B8B"/>
<stop offset="0.444799"/>
<stop offset="1" stop-color="#8D8D8D"/>
</linearGradient>
<clipPath id="clip0">
<rect width="1920" height="5434" fill="white" transform="translate(-531 -162)"/>
</clipPath>
</defs>
</svg>
