<svg width="222" height="60" viewBox="0 0 222 60" fill="none" xmlns="http://www.w3.org/2000/svg">
<path d="M6.48 47.45C6.48 48.09 6.55 48.56 6.69 48.86C6.83 49.14 7.09 49.34 7.47 49.46C7.87 49.58 8.5 49.64 9.36 49.64C9.42 49.64 9.45 49.7 9.45 49.82C9.45 49.94 9.42 50 9.36 50C8.54 50 7.9 49.99 7.44 49.97L4.83 49.94L2.64 49.97C2.24 49.99 1.7 50 1.02 50C0.96 50 0.93 49.94 0.93 49.82C0.93 49.7 0.96 49.64 1.02 49.64C1.66 49.64 2.12 49.59 2.4 49.49C2.7 49.39 2.9 49.2 3 48.92C3.1 48.62 3.15 48.17 3.15 47.57V33.68C3.15 33.08 3.1 32.64 3 32.36C2.9 32.08 2.7 31.89 2.4 31.79C2.1 31.67 1.64 31.61 1.02 31.61C0.96 31.61 0.93 31.55 0.93 31.43C0.93 31.31 0.96 31.25 1.02 31.25L2.61 31.28C3.53 31.32 4.26 31.34 4.8 31.34C5.28 31.34 5.85 31.31 6.51 31.25C6.77 31.23 7.1 31.21 7.5 31.19C7.9 31.17 8.36 31.16 8.88 31.16C10.92 31.16 12.53 31.59 13.71 32.45C14.89 33.29 15.48 34.6 15.48 36.38C15.48 37.62 15.16 38.67 14.52 39.53C13.88 40.39 13.05 41.04 12.03 41.48C11.03 41.92 10 42.14 8.94 42.14C8.4 42.14 7.93 42.09 7.53 41.99C7.49 41.99 7.47 41.94 7.47 41.84C7.47 41.78 7.48 41.72 7.5 41.66C7.54 41.6 7.58 41.58 7.62 41.6C7.92 41.68 8.26 41.72 8.64 41.72C9.56 41.72 10.32 41.29 10.92 40.43C11.54 39.57 11.85 38.35 11.85 36.77C11.85 35.19 11.51 33.97 10.83 33.11C10.17 32.25 9.2 31.82 7.92 31.82C7.36 31.82 6.98 31.95 6.78 32.21C6.58 32.47 6.48 32.98 6.48 33.74V47.45ZM28.2731 48.38C28.3531 48.38 28.4031 48.43 28.4231 48.53C28.4631 48.61 28.4431 48.67 28.3631 48.71L25.2731 50.18C25.1931 50.22 25.0931 50.24 24.9731 50.24C24.6731 50.24 24.3731 50.09 24.0731 49.79C23.7931 49.49 23.5931 49.08 23.4731 48.56L22.0931 49.31C21.5731 49.57 21.0331 49.79 20.4731 49.97C19.9131 50.13 19.4131 50.21 18.9731 50.21C18.3331 50.21 17.8231 50.05 17.4431 49.73C17.0831 49.39 16.9031 48.91 16.9031 48.29C16.9031 47.83 17.0131 47.46 17.2331 47.18C17.4731 46.9 17.8031 46.67 18.2231 46.49C18.6631 46.29 19.3531 46.03 20.2931 45.71L23.3531 44.72V42.35C23.3531 41.15 23.2331 40.27 22.9931 39.71C22.7531 39.13 22.3631 38.84 21.8231 38.84C21.3431 38.84 20.9631 39.02 20.6831 39.38C20.4031 39.74 20.2331 40.33 20.1731 41.15C20.0531 42.27 19.4631 42.83 18.4031 42.83C17.4631 42.83 16.9931 42.42 16.9931 41.6C16.9931 41.06 17.3331 40.52 18.0131 39.98C18.6931 39.44 19.5131 39 20.4731 38.66C21.4331 38.32 22.2731 38.15 22.9931 38.15C23.9331 38.15 24.6931 38.43 25.2731 38.99C25.8731 39.55 26.1731 40.37 26.1731 41.45V46.76C26.1731 47.34 26.2731 47.79 26.4731 48.11C26.6931 48.43 26.9931 48.59 27.3731 48.59C27.6531 48.59 27.9431 48.52 28.2431 48.38H28.2731ZM23.3831 48.08C23.3631 47.94 23.3531 47.73 23.3531 47.45V45.23L21.7031 45.83C21.1631 46.03 20.7731 46.25 20.5331 46.49C20.3131 46.73 20.2031 47.02 20.2031 47.36C20.2031 47.78 20.3231 48.11 20.5631 48.35C20.8031 48.59 21.1031 48.71 21.4631 48.71C21.9031 48.71 22.4131 48.57 22.9931 48.29L23.3831 48.08ZM35.3801 38.39C36.8801 38.39 38.1001 38.68 39.0401 39.26C40.0001 39.84 40.6801 40.57 41.0801 41.45C41.5001 42.31 41.7101 43.21 41.7101 44.15C41.7101 45.41 41.4001 46.51 40.7801 47.45C40.1801 48.39 39.3601 49.12 38.3201 49.64C37.3001 50.14 36.2001 50.39 35.0201 50.39C33.3201 50.39 31.9201 49.8 30.8201 48.62C29.7401 47.42 29.2001 45.62 29.2001 43.22C29.2001 39.6 29.7801 36.89 30.9401 35.09C32.1001 33.29 33.8301 32.04 36.1301 31.34C36.9701 31.08 37.6201 30.85 38.0801 30.65C38.5601 30.45 39.0001 30.16 39.4001 29.78C39.8201 29.4 40.1801 28.89 40.4801 28.25C40.5001 28.19 40.5601 28.17 40.6601 28.19C40.7601 28.21 40.8001 28.25 40.7801 28.31C40.5601 29.75 40.2801 30.83 39.9401 31.55C39.6001 32.27 39.1501 32.81 38.5901 33.17C38.0501 33.53 37.2301 33.89 36.1301 34.25C34.9501 34.61 33.9401 35.07 33.1001 35.63C32.2801 36.19 31.5801 37.01 31.0001 38.09C30.4401 39.15 30.0701 40.57 29.8901 42.35C30.6101 40.69 31.5001 39.62 32.5601 39.14C33.6201 38.64 34.5601 38.39 35.3801 38.39ZM36.1901 49.76C36.9701 49.76 37.5601 49.37 37.9601 48.59C38.3801 47.79 38.5901 46.63 38.5901 45.11C38.5901 43.81 38.4201 42.7 38.0801 41.78C37.7601 40.84 37.3201 40.14 36.7601 39.68C36.2201 39.22 35.6301 38.99 34.9901 38.99C34.0901 38.99 33.4401 39.43 33.0401 40.31C32.6601 41.17 32.4701 42.25 32.4701 43.55C32.4701 45.35 32.8001 46.84 33.4601 48.02C34.1401 49.18 35.0501 49.76 36.1901 49.76ZM49.737 50.39C48.497 50.39 47.407 50.11 46.467 49.55C45.547 48.97 44.837 48.2 44.337 47.24C43.837 46.26 43.587 45.2 43.587 44.06C43.587 42.76 43.917 41.66 44.577 40.76C45.237 39.84 46.077 39.16 47.097 38.72C48.117 38.26 49.167 38.03 50.247 38.03C51.487 38.03 52.567 38.32 53.487 38.9C54.407 39.48 55.107 40.25 55.587 41.21C56.087 42.15 56.337 43.16 56.337 44.24C56.337 45.44 56.037 46.51 55.437 47.45C54.837 48.37 54.027 49.09 53.007 49.61C52.007 50.13 50.917 50.39 49.737 50.39ZM50.637 49.76C51.417 49.76 52.007 49.38 52.407 48.62C52.827 47.84 53.037 46.73 53.037 45.29C53.037 43.89 52.857 42.69 52.497 41.69C52.137 40.69 51.667 39.94 51.087 39.44C50.507 38.92 49.887 38.66 49.227 38.66C47.627 38.66 46.827 40.09 46.827 42.95C46.827 44.29 46.997 45.48 47.337 46.52C47.677 47.54 48.137 48.34 48.717 48.92C49.297 49.48 49.937 49.76 50.637 49.76ZM60.6047 50C60.5447 50 60.5147 49.94 60.5147 49.82C60.5147 49.7 60.5447 49.64 60.6047 49.64C61.0847 49.64 61.4347 49.59 61.6547 49.49C61.8947 49.39 62.0547 49.2 62.1347 48.92C62.2147 48.62 62.2547 48.17 62.2547 47.57V40.91C62.2547 40.21 62.1947 39.73 62.0747 39.47C61.9747 39.21 61.7647 39.08 61.4447 39.08C60.8647 39.08 60.2947 39.39 59.7347 40.01C59.1947 40.63 58.8047 41.4 58.5647 42.32C58.5447 42.36 58.4747 42.38 58.3547 42.38C58.2547 42.38 58.2047 42.36 58.2047 42.32L58.1447 40.37C58.1047 39.57 58.0847 39 58.0847 38.66C58.0847 38.54 58.0947 38.47 58.1147 38.45C58.1347 38.41 58.2047 38.39 58.3247 38.39C58.7447 38.39 59.1147 38.4 59.4347 38.42L63.5747 38.45L67.8047 38.42C68.1447 38.4 68.5347 38.39 68.9747 38.39C69.1147 38.39 69.1947 38.41 69.2147 38.45C69.2347 38.47 69.2447 38.54 69.2447 38.66C69.1447 40.66 69.0947 41.88 69.0947 42.32C69.0947 42.36 69.0347 42.38 68.9147 42.38C68.8147 42.38 68.7547 42.36 68.7347 42.32C68.4947 41.4 68.0947 40.63 67.5347 40.01C66.9947 39.39 66.4347 39.08 65.8547 39.08C65.5347 39.08 65.3147 39.21 65.1947 39.47C65.0947 39.73 65.0447 40.21 65.0447 40.91V47.57C65.0447 48.17 65.0847 48.62 65.1647 48.92C65.2447 49.2 65.3947 49.39 65.6147 49.49C65.8547 49.59 66.2047 49.64 66.6647 49.64C66.7247 49.64 66.7547 49.7 66.7547 49.82C66.7547 49.94 66.7247 50 66.6647 50C66.1047 50 65.6747 49.99 65.3747 49.97L63.6947 49.94L61.9547 49.97C61.6347 49.99 61.1847 50 60.6047 50ZM82.5602 48.38C82.6402 48.38 82.6902 48.43 82.7102 48.53C82.7502 48.61 82.7302 48.67 82.6502 48.71L79.5602 50.18C79.4802 50.22 79.3802 50.24 79.2602 50.24C78.9602 50.24 78.6602 50.09 78.3602 49.79C78.0802 49.49 77.8802 49.08 77.7602 48.56L76.3802 49.31C75.8602 49.57 75.3202 49.79 74.7602 49.97C74.2002 50.13 73.7002 50.21 73.2602 50.21C72.6202 50.21 72.1102 50.05 71.7302 49.73C71.3702 49.39 71.1902 48.91 71.1902 48.29C71.1902 47.83 71.3002 47.46 71.5202 47.18C71.7602 46.9 72.0902 46.67 72.5102 46.49C72.9502 46.29 73.6402 46.03 74.5802 45.71L77.6402 44.72V42.35C77.6402 41.15 77.5202 40.27 77.2802 39.71C77.0402 39.13 76.6502 38.84 76.1102 38.84C75.6302 38.84 75.2502 39.02 74.9702 39.38C74.6902 39.74 74.5202 40.33 74.4602 41.15C74.3402 42.27 73.7502 42.83 72.6902 42.83C71.7502 42.83 71.2802 42.42 71.2802 41.6C71.2802 41.06 71.6202 40.52 72.3002 39.98C72.9802 39.44 73.8002 39 74.7602 38.66C75.7202 38.32 76.5602 38.15 77.2802 38.15C78.2202 38.15 78.9802 38.43 79.5602 38.99C80.1602 39.55 80.4602 40.37 80.4602 41.45V46.76C80.4602 47.34 80.5602 47.79 80.7602 48.11C80.9802 48.43 81.2802 48.59 81.6602 48.59C81.9402 48.59 82.2302 48.52 82.5302 48.38H82.5602ZM77.6702 48.08C77.6502 47.94 77.6402 47.73 77.6402 47.45V45.23L75.9902 45.83C75.4502 46.03 75.0602 46.25 74.8202 46.49C74.6002 46.73 74.4902 47.02 74.4902 47.36C74.4902 47.78 74.6102 48.11 74.8502 48.35C75.0902 48.59 75.3902 48.71 75.7502 48.71C76.1902 48.71 76.7002 48.57 77.2802 48.29L77.6702 48.08ZM137.415 18.02C137.415 19.7 136.735 21.4 135.375 23.12C134.055 24.84 132.415 26.56 130.455 28.28C128.495 29.96 126.395 31.64 124.155 33.32C121.955 34.96 119.975 36.56 118.215 38.12C116.295 39.64 114.535 41.08 112.935 42.44C111.535 43.6 110.215 44.76 108.975 45.92C107.735 47.08 106.915 47.98 106.515 48.62C106.515 48.66 106.495 48.74 106.455 48.86C106.375 49.1 106.335 49.32 106.335 49.52C106.335 49.56 106.355 49.6 106.395 49.64C106.475 49.72 106.675 49.76 106.995 49.76C107.155 49.76 107.355 49.74 107.595 49.7C107.835 49.66 108.155 49.6 108.555 49.52C110.635 49.08 112.695 48.68 114.735 48.32C116.495 48 118.315 47.72 120.195 47.48C122.115 47.24 123.775 47.12 125.175 47.12C126.055 47.16 126.835 47.26 127.515 47.42C128.075 47.58 128.595 47.82 129.075 48.14C129.555 48.42 129.795 48.86 129.795 49.46C129.715 49.74 129.535 49.92 129.255 50C128.975 50.08 128.655 50.12 128.295 50.12C127.575 50.12 126.755 50.02 125.835 49.82C124.915 49.62 123.935 49.52 122.895 49.52C119.895 49.52 117.275 49.64 115.035 49.88C112.795 50.12 110.915 50.4 109.395 50.72C107.595 51.08 106.075 51.48 104.835 51.92C104.435 52.08 104.095 52.18 103.815 52.22C103.535 52.26 103.295 52.28 103.095 52.28C102.535 52.28 102.175 52.18 102.015 51.98C101.895 51.78 101.835 51.52 101.835 51.2C101.835 50.92 101.895 50.68 102.015 50.48C102.095 50.36 102.155 50.26 102.195 50.18C102.515 49.66 103.015 49.06 103.695 48.38C104.375 47.66 105.155 46.9 106.035 46.1C106.955 45.26 107.915 44.42 108.915 43.58C109.955 42.7 110.995 41.84 112.035 41C114.475 39.08 117.115 37.04 119.955 34.88C124.795 30.72 128.435 27.4 130.875 24.92C133.355 22.44 134.595 20.5 134.595 19.1C134.595 18.06 134.255 17.38 133.575 17.06C132.895 16.74 132.095 16.58 131.175 16.58C129.175 16.58 127.055 17.02 124.815 17.9C122.615 18.78 120.575 19.84 118.695 21.08C116.815 22.32 115.255 23.6 114.015 24.92C112.815 26.24 112.215 27.34 112.215 28.22C112.215 28.5 112.295 28.72 112.455 28.88C112.615 29.04 112.795 29.16 112.995 29.24C113.195 29.28 113.395 29.32 113.595 29.36C113.795 29.36 113.955 29.36 114.075 29.36C115.755 29.24 117.175 28.86 118.335 28.22C119.535 27.54 120.555 26.82 121.395 26.06C122.235 25.26 122.955 24.56 123.555 23.96C124.195 23.32 124.815 23 125.415 23C125.535 23 125.655 23.04 125.775 23.12C125.895 23.2 125.955 23.4 125.955 23.72C125.955 24.2 125.575 24.88 124.815 25.76C124.095 26.6 123.155 27.46 121.995 28.34C120.835 29.18 119.555 29.92 118.155 30.56C116.755 31.2 115.395 31.52 114.075 31.52C113.635 31.52 113.155 31.5 112.635 31.46C112.155 31.42 111.695 31.32 111.255 31.16C110.855 30.96 110.515 30.7 110.235 30.38C109.955 30.06 109.815 29.64 109.815 29.12C109.815 28.16 110.155 27.16 110.835 26.12C111.555 25.04 112.495 23.98 113.655 22.94C114.815 21.9 116.135 20.9 117.615 19.94C119.135 18.98 120.695 18.14 122.295 17.42C123.935 16.7 125.555 16.12 127.155 15.68C128.755 15.24 130.235 15.02 131.595 15.02C132.155 15.02 132.755 15.06 133.395 15.14C134.075 15.18 134.715 15.3 135.315 15.5C135.915 15.7 136.415 16 136.815 16.4C137.215 16.8 137.415 17.34 137.415 18.02ZM169.222 11.42C169.222 11.58 169.122 11.76 168.922 11.96C168.762 12.16 168.382 12.34 167.782 12.5C166.622 12.86 165.262 13.42 163.702 14.18C162.382 14.86 160.762 15.78 158.842 16.94C156.922 18.06 154.702 19.58 152.182 21.5C150.022 23.1 147.922 24.84 145.882 26.72C144.122 28.32 142.322 30.14 140.482 32.18C138.642 34.18 137.082 36.28 135.802 38.48L135.682 38.72C135.602 38.88 135.562 39.06 135.562 39.26C135.562 39.5 135.642 39.68 135.802 39.8C135.922 39.96 136.242 40.04 136.762 40.04C137.242 40.04 138.002 39.96 139.042 39.8C140.122 39.64 141.302 39.46 142.582 39.26C143.902 39.02 145.222 38.8 146.542 38.6C147.902 38.4 149.082 38.24 150.082 38.12C151.482 36.08 152.862 34.18 154.222 32.42C155.622 30.62 156.882 29.06 158.002 27.74C159.322 26.18 160.582 24.78 161.782 23.54C161.862 23.42 161.982 23.3 162.142 23.18C162.422 22.98 162.742 22.88 163.102 22.88C163.342 22.88 163.542 22.92 163.702 23C163.742 23 163.782 23.02 163.822 23.06C163.902 23.14 163.942 23.24 163.942 23.36C163.942 23.52 163.862 23.7 163.702 23.9C161.182 26.86 159.062 29.5 157.342 31.82C155.622 34.14 154.182 36.14 153.022 37.82C155.022 37.58 156.882 37.46 158.602 37.46C159.002 37.46 159.382 37.48 159.742 37.52C160.102 37.52 160.442 37.54 160.762 37.58C161.482 37.66 162.142 37.78 162.742 37.94C163.262 38.1 163.722 38.32 164.122 38.6C164.562 38.84 164.802 39.18 164.842 39.62C164.842 39.74 164.802 39.86 164.722 39.98C164.682 40.1 164.502 40.16 164.182 40.16C163.862 40.16 163.362 40.02 162.682 39.74C162.202 39.58 161.642 39.44 161.002 39.32C160.442 39.24 159.762 39.16 158.962 39.08C158.162 39 157.242 38.96 156.202 38.96C155.522 38.96 154.842 38.98 154.162 39.02C153.522 39.06 152.842 39.12 152.122 39.2C151.642 39.96 151.222 40.64 150.862 41.24C150.542 41.8 150.282 42.28 150.082 42.68C149.842 43.12 149.622 43.5 149.422 43.82C148.462 45.5 147.702 46.96 147.142 48.2C146.582 49.44 146.142 50.48 145.822 51.32C145.462 52.32 145.242 53.14 145.162 53.78C145.042 54.54 144.882 55.1 144.682 55.46C144.482 55.86 144.282 56.16 144.082 56.36C143.882 56.56 143.642 56.66 143.362 56.66H143.242C142.722 56.66 142.382 56.48 142.222 56.12C142.062 55.8 141.982 55.44 141.982 55.04C141.982 54.72 142.002 54.5 142.042 54.38C142.082 54.26 142.102 54.16 142.102 54.08C142.742 51.68 143.682 49.24 144.922 46.76C146.202 44.28 147.602 41.88 149.122 39.56C147.482 39.76 145.802 40 144.082 40.28C142.362 40.56 140.782 40.82 139.342 41.06C137.662 41.34 136.022 41.62 134.422 41.9C134.182 41.94 133.962 41.98 133.762 42.02C133.562 42.02 133.362 42.02 133.162 42.02C132.362 42.02 131.822 41.86 131.542 41.54C131.302 41.22 131.182 40.88 131.182 40.52C131.182 40.2 131.262 39.84 131.422 39.44C131.502 39.28 131.562 39.12 131.602 38.96C133.042 36.92 134.682 34.92 136.522 32.96C138.402 31 140.342 29.14 142.342 27.38C144.382 25.58 146.442 23.9 148.522 22.34C150.602 20.78 152.602 19.34 154.522 18.02C156.282 16.86 157.902 15.86 159.382 15.02C160.862 14.18 162.162 13.48 163.282 12.92C164.602 12.28 165.782 11.74 166.822 11.3C167.022 11.22 167.202 11.14 167.362 11.06C167.682 10.94 168.022 10.88 168.382 10.88C168.702 10.88 168.942 10.96 169.102 11.12C169.182 11.2 169.222 11.3 169.222 11.42ZM203.455 1.7C203.455 1.98 203.295 2.3 202.975 2.66C195.935 10.62 189.335 18.2 183.175 25.4C180.535 28.44 177.875 31.56 175.195 34.76C172.515 37.92 169.955 40.98 167.515 43.94C165.115 46.86 162.935 49.56 160.975 52.04C159.015 54.56 157.455 56.66 156.295 58.34C156.175 58.54 156.035 58.72 155.875 58.88C155.715 59.04 155.535 59.12 155.335 59.12C155.055 59.12 154.895 59.02 154.855 58.82C154.775 58.62 154.735 58.36 154.735 58.04C155.895 56.4 157.295 54.5 158.935 52.34C160.575 50.18 162.375 47.86 164.335 45.38C166.295 42.9 168.375 40.32 170.575 37.64C172.775 34.92 174.995 32.2 177.235 29.48C179.515 26.72 181.775 24 184.015 21.32C186.295 18.64 188.455 16.1 190.495 13.7C192.575 11.3 194.515 9.08 196.315 7.04C198.115 4.96 199.695 3.16 201.055 1.64C201.375 1.36 201.615 1.18 201.775 1.1C201.975 1.02 202.155 0.979998 202.315 0.979998C202.515 0.979998 202.755 1.04 203.035 1.16C203.315 1.24 203.455 1.42 203.455 1.7ZM221.875 17.06C221.875 17.26 221.795 17.46 221.635 17.66C221.395 17.9 221.055 18.22 220.615 18.62C220.255 18.94 219.775 19.36 219.175 19.88C218.575 20.36 217.815 20.96 216.895 21.68C214.535 23.6 212.135 25.74 209.695 28.1C207.615 30.14 205.335 32.52 202.855 35.24C200.415 37.96 198.095 40.94 195.895 44.18C195.095 45.34 194.335 46.54 193.615 47.78C192.975 48.82 192.335 49.98 191.695 51.26C191.095 52.54 190.615 53.8 190.255 55.04C189.975 56 189.635 56.58 189.235 56.78C188.875 57.02 188.615 57.14 188.455 57.14C187.895 57.14 187.515 56.96 187.315 56.6C187.115 56.24 187.015 55.86 187.015 55.46C187.015 55.18 187.055 54.88 187.135 54.56C187.215 54.28 187.295 54.02 187.375 53.78C187.495 53.5 187.615 53.24 187.735 53C188.535 51.4 189.495 49.74 190.615 48.02C191.775 46.26 193.035 44.54 194.395 42.86C195.755 41.14 197.155 39.46 198.595 37.82C200.075 36.14 201.535 34.56 202.975 33.08C206.335 29.6 209.855 26.2 213.535 22.88C214.735 21.84 215.535 21.12 215.935 20.72C216.335 20.28 216.535 19.98 216.535 19.82C216.535 19.54 216.135 19.36 215.335 19.28C214.575 19.2 213.735 19.16 212.815 19.16C208.895 19.16 205.575 19.34 202.855 19.7C200.135 20.02 198.135 20.58 196.855 21.38C196.615 21.54 196.435 21.68 196.315 21.8C196.195 21.92 196.075 21.98 195.955 21.98C195.835 21.98 195.755 21.96 195.715 21.92L195.655 21.86C195.575 21.82 195.535 21.76 195.535 21.68C195.535 21.52 195.595 21.38 195.715 21.26C195.795 21.18 195.855 21.1 195.895 21.02C196.415 20.38 196.995 19.8 197.635 19.28C198.195 18.84 198.835 18.4 199.555 17.96C200.275 17.52 201.075 17.22 201.955 17.06C202.995 16.9 204.175 16.76 205.495 16.64C206.615 16.56 207.915 16.48 209.395 16.4C210.915 16.32 212.555 16.28 214.315 16.28C215.435 16.28 216.575 16.32 217.735 16.4C218.935 16.44 220.155 16.5 221.395 16.58C221.475 16.58 221.555 16.6 221.635 16.64C221.795 16.72 221.875 16.86 221.875 17.06Z" fill="#1A1A1A"/>
</svg>
