<svg width="23" height="23" viewBox="0 0 23 23" fill="none" xmlns="http://www.w3.org/2000/svg">
<path d="M6.70505 1.06905C7.77741 1.06905 8.80241 1.31489 9.75138 1.79979C10.3974 2.1298 10.9908 2.56827 11.5 3.0885C12.0092 2.56827 12.6026 2.1298 13.2486 1.79979C14.1976 1.31489 15.2226 1.06905 16.295 1.06905C19.9921 1.06905 23 4.07693 23 7.7741C23 10.3927 21.617 13.1739 18.8895 16.0405C16.6122 18.434 13.824 20.4292 11.8861 21.6815L11.5 21.931L11.1139 21.6815C9.176 20.4292 6.38783 18.434 4.11046 16.0405C1.38294 13.1739 0 10.3927 0 7.7741C0 4.07693 3.00788 1.06905 6.70505 1.06905ZM5.14114 15.0598C7.17643 17.1989 9.65559 19.0173 11.5 20.2344C13.3444 19.0173 15.8236 17.1989 17.8588 15.0598C20.3263 12.4667 21.5773 10.0154 21.5773 7.7741C21.5773 4.86139 19.2077 2.49173 16.295 2.49173C14.618 2.49173 13.0776 3.26202 12.0687 4.60503L11.5 5.36213L10.9313 4.60503C9.92239 3.26202 8.38196 2.49173 6.70505 2.49173C3.79235 2.49173 1.42268 4.86139 1.42268 7.7741C1.42268 10.0154 2.67379 12.4667 5.14114 15.0598Z" fill="#1A1A1A"/>
</svg>
