<svg width="356" height="74" viewBox="0 0 356 74" fill="none" xmlns="http://www.w3.org/2000/svg">
<path d="M26.3 26.36C26.5 26.36 27.24 26.44 28.52 26.6C29.8 26.76 31.32 27.04 33.08 27.44C34.88 27.8 36.78 28.28 38.78 28.88C40.82 29.48 42.7 30.22 44.42 31.1C46.14 31.98 47.56 33.02 48.68 34.22C49.8 35.38 50.36 36.72 50.36 38.24C50.36 39.36 50.02 40.58 49.34 41.9C48.7 43.22 47.54 44.64 45.86 46.16C45.7 46.32 45.84 46.4 46.28 46.4C46.32 46.4 46.62 46.4 47.18 46.4C47.74 46.4 48.42 46.4 49.22 46.4C50.06 46.44 50.96 46.46 51.92 46.46C52.88 46.46 53.8 46.46 54.68 46.46C55.56 46.5 56.34 46.52 57.02 46.52C57.7 46.52 58.16 46.52 58.4 46.52C58.6 46.56 58.78 46.6 58.94 46.64C59.14 46.68 59.24 46.78 59.24 46.94C59.24 47.22 59.08 47.6 58.76 48.08C58.44 48.56 58.04 48.8 57.56 48.8C57.44 48.8 56.72 48.8 55.4 48.8C54.08 48.8 52.38 48.8 50.3 48.8C48.26 48.8 45.92 48.8 43.28 48.8C40.68 48.8 38.02 48.78 35.3 48.74C32.62 48.74 29.98 48.72 27.38 48.68C24.78 48.68 22.44 48.66 20.36 48.62C18.28 48.62 16.58 48.6 15.26 48.56C13.98 48.56 13.28 48.54 13.16 48.5C12.52 48.38 12.2 48.16 12.2 47.84C12.2 47.64 12.38 47.36 12.74 47C12.94 46.8 13.12 46.62 13.28 46.46C13.44 46.34 13.6 46.24 13.76 46.16C13.96 46.12 14.18 46.08 14.42 46.04C14.7 46.04 15.06 46.04 15.5 46.04C15.74 46.04 16.46 46.04 17.66 46.04C18.86 46.08 20.3 46.1 21.98 46.1C23.7 46.1 25.54 46.12 27.5 46.16C29.5 46.2 31.42 46.22 33.26 46.22C35.1 46.22 36.76 46.22 38.24 46.22C39.72 46.26 40.8 46.28 41.48 46.28H41.54C43.7 44.72 45.24 43.26 46.16 41.9C47.12 40.54 47.6 39.28 47.6 38.12C47.6 36.72 46.98 35.48 45.74 34.4C44.54 33.28 42.9 32.3 40.82 31.46C38.78 30.62 36.4 29.9 33.68 29.3C30.96 28.7 28.1 28.22 25.1 27.86C23.18 30.26 21.26 32.64 19.34 35C17.46 37.36 15.76 39.5 14.24 41.42C12.72 43.34 11.46 44.9 10.46 46.1C9.5 47.34 8.98 48 8.9 48.08L8.6 48.38C8.4 48.58 8.22 48.68 8.06 48.68C7.62 48.68 7.4 48.48 7.4 48.08C7.4 47.76 7.54 47.46 7.82 47.18C7.86 47.14 8.34 46.54 9.26 45.38C10.18 44.22 11.36 42.72 12.8 40.88C14.28 39.04 15.92 36.96 17.72 34.64C19.56 32.32 21.4 29.98 23.24 27.62C21.16 27.42 19.08 27.28 17 27.2C14.96 27.08 12.92 27.02 10.88 27.02C10.36 27.02 10.1 26.78 10.1 26.3C10.1 26.18 10.1 26.04 10.1 25.88C10.14 25.72 10.24 25.54 10.4 25.34C10.68 24.98 11.06 24.78 11.54 24.74C12.06 24.66 12.42 24.62 12.62 24.62C12.74 24.62 13.22 24.66 14.06 24.74C14.94 24.82 15.96 24.94 17.12 25.1C18.32 25.22 19.58 25.38 20.9 25.58C22.22 25.74 23.42 25.9 24.5 26.06C25.9 24.3 27.28 22.56 28.64 20.84C30 19.08 31.2 17.52 32.24 16.16C33.32 14.8 34.18 13.7 34.82 12.86C35.5 11.98 35.86 11.52 35.9 11.48C35.98 11.36 36.18 11.14 36.5 10.82C36.86 10.5 37.2 10.34 37.52 10.34C38.04 10.34 38.3 10.56 38.3 11C38.3 11.44 38.08 11.84 37.64 12.2C37.56 12.28 37.24 12.66 36.68 13.34C36.16 13.98 35.44 14.88 34.52 16.04C33.6 17.16 32.54 18.46 31.34 19.94C30.18 21.42 28.94 23 27.62 24.68L26.6 26C26.52 26.08 26.46 26.16 26.42 26.24C26.38 26.28 26.34 26.32 26.3 26.36ZM3.98 27.68C2.06 25.52 0.98 23.48 0.74 21.56C0.46 19.64 0.74 17.88 1.58 16.28C2.42 14.68 3.7 13.24 5.42 11.96C7.14 10.64 9.02 9.54 11.06 8.66C13.14 7.78 15.24 7.12 17.36 6.68C19.52 6.24 21.46 6.04 23.18 6.08C24.5 6.12 26.14 6.16 28.1 6.2C30.06 6.24 32.18 6.3 34.46 6.38C36.74 6.42 39.12 6.46 41.6 6.5C44.12 6.54 46.58 6.58 48.98 6.62C51.38 6.66 53.66 6.7 55.82 6.74C58.02 6.74 59.98 6.74 61.7 6.74C63.54 6.74 65.14 6.72 66.5 6.68C67.86 6.64 68.7 6.58 69.02 6.5C69.42 6.38 69.76 6.32 70.04 6.32C70.36 6.32 70.52 6.42 70.52 6.62C70.52 6.78 70.4 7.04 70.16 7.4C69.76 7.92 69.08 8.34 68.12 8.66C67.16 8.94 66.28 9.12 65.48 9.2C65.08 9.24 64.52 9.28 63.8 9.32C63.08 9.32 62.26 9.32 61.34 9.32C60.46 9.32 59.5 9.32 58.46 9.32C57.46 9.32 56.48 9.32 55.52 9.32C54 9.32 52.26 9.3 50.3 9.26C48.34 9.22 46.28 9.18 44.12 9.14C41.96 9.06 39.74 8.98 37.46 8.9C35.22 8.82 33.02 8.76 30.86 8.72C28.74 8.64 26.72 8.58 24.8 8.54C22.92 8.5 21.28 8.48 19.88 8.48C18.12 8.48 16.3 8.74 14.42 9.26C12.58 9.74 10.84 10.38 9.2 11.18C7.56 11.94 6.12 12.82 4.88 13.82C3.64 14.78 2.76 15.72 2.24 16.64C1.52 17.96 1.24 19.26 1.4 20.54C1.52 21.82 1.82 22.96 2.3 23.96C2.78 24.96 3.28 25.76 3.8 26.36C4.28 26.92 4.52 27.12 4.52 26.96C4.76 27.24 4.84 27.54 4.76 27.86C4.64 28.18 4.38 28.12 3.98 27.68ZM70.3606 40.46C70.3606 40.62 70.3006 40.74 70.1806 40.82C68.5406 41.5 66.9406 42.1 65.3806 42.62C64.0606 43.06 62.6806 43.48 61.2406 43.88C59.8406 44.28 58.6606 44.48 57.7006 44.48C56.9006 44.48 56.2406 44.3 55.7206 43.94C55.2406 43.54 55.0006 43.04 55.0006 42.44C55.0006 41.88 55.1806 41.36 55.5406 40.88C55.9006 40.4 56.2806 39.98 56.6806 39.62C57.1206 39.26 57.5006 38.96 57.8206 38.72C58.1806 38.48 58.3606 38.34 58.3606 38.3C58.3606 38.22 58.2006 38.16 57.8806 38.12C57.6006 38.08 57.1006 38 56.3806 37.88C55.9406 37.8 55.6406 37.68 55.4806 37.52C55.3606 37.32 55.3006 37.12 55.3006 36.92C55.3006 36.64 55.3806 36.4 55.5406 36.2C55.7406 35.96 55.8806 35.8 55.9606 35.72C56.7606 35.2 57.7006 34.68 58.7806 34.16C59.8606 33.64 60.9206 33.18 61.9606 32.78C63.0406 32.38 64.0206 32.06 64.9006 31.82C65.7806 31.58 66.4006 31.46 66.7606 31.46C67.1606 31.46 67.5206 31.56 67.8406 31.76C68.2006 31.92 68.3806 32.22 68.3806 32.66C68.3806 32.86 68.2806 33.08 68.0806 33.32C67.8806 33.52 67.6406 33.72 67.3606 33.92C67.0806 34.08 66.7806 34.22 66.4606 34.34C66.1406 34.46 65.8606 34.52 65.6206 34.52C65.4206 34.52 65.2206 34.48 65.0206 34.4C64.8606 34.32 64.7806 34.18 64.7806 33.98C64.7806 33.74 64.8806 33.48 65.0806 33.2C65.1606 33.12 65.2006 33.04 65.2006 32.96C65.2006 32.88 65.1006 32.84 64.9006 32.84C64.8206 32.84 64.7006 32.86 64.5406 32.9C64.3806 32.9 64.2006 32.92 64.0006 32.96C63.6806 33.04 63.2206 33.2 62.6206 33.44C62.0206 33.64 61.4206 33.88 60.8206 34.16C60.2206 34.44 59.6806 34.7 59.2006 34.94C58.7206 35.18 58.4206 35.34 58.3006 35.42C58.1406 35.54 58.0606 35.66 58.0606 35.78C58.0606 35.98 58.1806 36.12 58.4206 36.2C58.4606 36.2 58.6006 36.22 58.8406 36.26C59.0806 36.26 59.3406 36.28 59.6206 36.32C59.9006 36.32 60.1606 36.32 60.4006 36.32C60.6806 36.32 60.8806 36.32 61.0006 36.32C61.4406 36.36 61.7006 36.44 61.7806 36.56C61.8606 36.68 61.9006 36.88 61.9006 37.16C61.9006 37.36 61.8606 37.56 61.7806 37.76C61.7006 37.96 61.4406 38.1 61.0006 38.18C60.1606 38.38 59.3406 38.72 58.5406 39.2C57.7806 39.68 57.4006 40.32 57.4006 41.12C57.4006 41.68 57.7006 42.1 58.3006 42.38C58.9406 42.62 59.5406 42.74 60.1006 42.74C61.1406 42.74 62.2406 42.6 63.4006 42.32C64.5606 42 65.6406 41.68 66.6406 41.36C67.8006 40.96 68.9406 40.52 70.0606 40.04C70.1406 40.04 70.2006 40.1 70.2406 40.22C70.3206 40.3 70.3606 40.38 70.3606 40.46ZM87.7273 47.78C87.7273 48.06 87.5873 48.34 87.3073 48.62C87.0273 48.9 86.5873 49.04 85.9873 49.04C85.5873 49.04 84.7873 49 83.5873 48.92C82.3873 48.88 81.1673 48.86 79.9273 48.86C79.7273 48.86 79.5473 48.86 79.3873 48.86C79.2273 48.86 79.0473 48.88 78.8473 48.92C78.4473 50.44 77.7473 52.08 76.7473 53.84C75.7473 55.64 74.5473 57.4 73.1473 59.12C71.7473 60.88 70.2073 62.56 68.5273 64.16C66.8873 65.8 65.2273 67.22 63.5473 68.42C61.8273 69.66 60.1673 70.64 58.5673 71.36C56.9273 72.12 55.4473 72.5 54.1273 72.5C53.2473 72.5 52.5673 72.26 52.0873 71.78C51.5673 71.34 51.3073 70.68 51.3073 69.8C51.3073 67.84 52.0473 65.76 53.5273 63.56C55.0073 61.4 56.9673 59.3 59.4073 57.26C61.8473 55.26 64.6673 53.44 67.8673 51.8C71.0273 50.16 74.2873 48.9 77.6473 48.02V47.66C77.6473 46.78 77.4673 45.98 77.1073 45.26C76.7473 44.54 76.1673 43.92 75.3673 43.4C75.0473 43.32 74.7073 43.18 74.3473 42.98C74.0273 42.74 73.8673 42.52 73.8673 42.32C73.9073 42.16 74.0673 42 74.3473 41.84C74.6673 41.68 74.9673 41.56 75.2473 41.48C75.8073 41.32 76.4673 41 77.2273 40.52C78.0273 40 78.8073 39.44 79.5673 38.84C80.3273 38.2 80.9673 37.56 81.4873 36.92C82.0073 36.28 82.2673 35.74 82.2673 35.3C82.2673 34.74 81.7473 34.46 80.7073 34.46C80.2273 34.46 79.5473 34.74 78.6673 35.3C77.7873 35.86 76.8473 36.52 75.8473 37.28C74.8473 38 73.8473 38.72 72.8473 39.44C71.8473 40.12 71.0073 40.6 70.3273 40.88C70.0473 41 69.7473 41.12 69.4273 41.24C69.1073 41.36 68.7673 41.5 68.4073 41.66C68.3273 41.66 68.2673 41.62 68.2273 41.54C68.1473 41.42 68.1073 41.32 68.1073 41.24C68.1073 41.08 68.1673 40.98 68.2873 40.94C68.6073 40.82 68.9073 40.7 69.1873 40.58C69.4673 40.42 69.7273 40.3 69.9673 40.22C70.5673 39.98 71.3473 39.54 72.3073 38.9C73.2673 38.22 74.2073 37.54 75.1273 36.86C76.0873 36.18 76.9273 35.56 77.6473 35C78.4073 34.44 78.8873 34.1 79.0873 33.98C79.3673 33.82 79.7673 33.62 80.2873 33.38C80.8473 33.14 81.4673 33.02 82.1473 33.02C82.6273 33.02 83.0673 33.2 83.4673 33.56C83.9073 33.88 84.1273 34.34 84.1273 34.94C84.1273 35.7 83.8273 36.44 83.2273 37.16C82.6673 37.84 81.9873 38.48 81.1873 39.08C80.3873 39.68 79.5873 40.22 78.7873 40.7C78.0273 41.14 77.4273 41.48 76.9873 41.72C76.8673 41.76 76.8073 41.82 76.8073 41.9C76.8073 42.06 76.9273 42.22 77.1673 42.38C77.4473 42.54 77.7273 42.78 78.0073 43.1C78.3273 43.42 78.6073 43.86 78.8473 44.42C79.0873 44.98 79.2073 45.7 79.2073 46.58C79.2073 46.78 79.1873 46.96 79.1473 47.12C79.1473 47.28 79.1273 47.46 79.0873 47.66C80.2873 47.42 81.4873 47.22 82.6873 47.06C83.9273 46.94 85.1273 46.88 86.2873 46.88C86.6073 46.92 86.9273 47 87.2473 47.12C87.5673 47.24 87.7273 47.46 87.7273 47.78ZM77.4673 49.1C75.9473 49.34 74.3073 49.78 72.5473 50.42C70.8273 51.1 69.1073 51.92 67.3873 52.88C65.6273 53.88 63.9473 54.98 62.3473 56.18C60.7073 57.42 59.2673 58.72 58.0273 60.08C56.7873 61.48 55.8073 62.92 55.0873 64.4C54.3273 65.92 53.9473 67.42 53.9473 68.9C53.9473 69.5 54.0473 70.02 54.2473 70.46C54.4073 70.9 54.8273 71.12 55.5073 71.12C56.4273 71.12 57.5873 70.78 58.9873 70.1C60.3473 69.42 61.8073 68.5 63.3673 67.34C64.8873 66.18 66.4273 64.84 67.9873 63.32C69.5473 61.84 70.9873 60.28 72.3073 58.64C73.6273 57 74.7473 55.36 75.6673 53.72C76.6273 52.08 77.2273 50.54 77.4673 49.1ZM158.772 13.88C158.772 16.64 158.252 19.42 157.212 22.22C156.172 25.02 154.732 27.72 152.892 30.32C151.092 32.88 148.952 35.28 146.472 37.52C144.032 39.76 141.372 41.72 138.492 43.4C135.652 45.04 132.672 46.34 129.552 47.3C126.432 48.26 123.312 48.74 120.192 48.74C118.032 48.74 116.112 48.52 114.432 48.08C112.752 47.68 111.292 47.14 110.052 46.46C108.852 45.78 107.832 44.98 106.992 44.06C106.152 43.18 105.452 42.28 104.892 41.36C103.612 39.16 102.892 36.7 102.732 33.98C102.732 31.42 103.172 29.16 104.052 27.2C104.932 25.2 106.032 23.44 107.352 21.92C108.712 20.4 110.192 19.1 111.792 18.02C113.392 16.9 114.912 15.94 116.352 15.14C117.832 13.1 119.552 11.18 121.512 9.38C123.472 7.54 125.612 5.94 127.932 4.58C130.252 3.22 132.712 2.16 135.312 1.4C137.952 0.599998 140.652 0.199999 143.412 0.199999C145.492 0.199999 147.452 0.539998 149.292 1.22C151.172 1.9 152.812 2.84 154.212 4.04C155.612 5.24 156.712 6.68 157.512 8.36C158.352 10.04 158.772 11.88 158.772 13.88ZM156.132 16.82C156.132 14.54 155.712 12.5 154.872 10.7C154.072 8.9 152.972 7.38 151.572 6.14C150.212 4.86 148.612 3.9 146.772 3.26C144.932 2.58 142.992 2.24 140.952 2.24C138.552 2.24 136.272 2.54 134.112 3.14C131.992 3.74 130.032 4.56 128.232 5.6C126.432 6.64 124.772 7.88 123.252 9.32C121.772 10.72 120.452 12.24 119.292 13.88C120.252 13.52 121.072 13.26 121.752 13.1C122.472 12.94 122.932 12.86 123.132 12.86C123.492 12.86 123.672 12.98 123.672 13.22C123.672 13.54 123.452 13.7 123.012 13.7C122.692 13.7 122.112 13.82 121.272 14.06C120.472 14.26 119.532 14.6 118.452 15.08C116.932 17.48 115.772 19.96 114.972 22.52C114.212 25.04 113.832 27.46 113.832 29.78C113.832 30.26 113.832 30.64 113.832 30.92C113.872 31.2 113.892 31.44 113.892 31.64C113.932 31.84 113.952 32.04 113.952 32.24C113.992 32.4 114.012 32.6 114.012 32.84C114.012 33.2 113.832 33.46 113.472 33.62C113.112 33.74 112.772 33.8 112.452 33.8C112.132 33.8 111.892 33.68 111.732 33.44C111.572 33.16 111.452 32.82 111.372 32.42C111.292 31.98 111.232 31.5 111.192 30.98C111.192 30.46 111.192 29.94 111.192 29.42C111.192 27.34 111.532 25.24 112.212 23.12C112.932 20.96 113.932 18.86 115.212 16.82C114.092 17.54 112.972 18.4 111.852 19.4C110.772 20.36 109.792 21.5 108.912 22.82C108.032 24.14 107.312 25.62 106.752 27.26C106.232 28.9 105.972 30.72 105.972 32.72C105.972 34.92 106.332 36.9 107.052 38.66C107.812 40.42 108.872 41.9 110.232 43.1C111.632 44.3 113.312 45.22 115.272 45.86C117.232 46.5 119.432 46.82 121.872 46.82C124.432 46.82 127.052 46.42 129.732 45.62C132.452 44.86 135.072 43.8 137.592 42.44C140.152 41.04 142.552 39.4 144.792 37.52C147.032 35.64 148.992 33.6 150.672 31.4C152.352 29.16 153.672 26.8 154.632 24.32C155.632 21.84 156.132 19.34 156.132 16.82ZM163.18 35.36C163.18 35.44 163.02 35.72 162.7 36.2C162.38 36.64 162.02 37.14 161.62 37.7C161.26 38.26 160.9 38.84 160.54 39.44C160.22 40 160 40.44 159.88 40.76C159.68 41.32 159.66 41.82 159.82 42.26C160.02 42.7 160.62 42.96 161.62 43.04C162.06 43.08 162.58 43.06 163.18 42.98C163.78 42.86 164.38 42.72 164.98 42.56C165.58 42.4 166.12 42.24 166.6 42.08C167.12 41.92 167.52 41.8 167.8 41.72C168.56 41.56 169.14 41.4 169.54 41.24C169.98 41.04 170.36 40.92 170.68 40.88C170.76 40.88 170.82 40.94 170.86 41.06C170.9 41.18 170.9 41.28 170.86 41.36C170.74 41.56 170.62 41.68 170.5 41.72L167.5 42.68C167.06 42.8 166.48 42.98 165.76 43.22C165.04 43.42 164.28 43.62 163.48 43.82C162.68 44.02 161.9 44.18 161.14 44.3C160.38 44.46 159.74 44.52 159.22 44.48C158.7 44.44 158.3 44.32 158.02 44.12C157.74 43.96 157.54 43.76 157.42 43.52C157.3 43.28 157.24 43 157.24 42.68C157.28 42.36 157.34 42.04 157.42 41.72C157.5 41.44 157.68 41.08 157.96 40.64C158.24 40.16 158.54 39.68 158.86 39.2C159.18 38.72 159.48 38.24 159.76 37.76C160.08 37.28 160.3 36.88 160.42 36.56C160.54 36.24 160.52 36.02 160.36 35.9C160.24 35.78 159.92 35.84 159.4 36.08C159.4 36.08 159.14 36.24 158.62 36.56C158.14 36.88 157.52 37.26 156.76 37.7C156.04 38.14 155.28 38.6 154.48 39.08C153.68 39.56 153 39.94 152.44 40.22C152.36 40.26 152.28 40.28 152.2 40.28C152.16 40.24 152.1 40.24 152.02 40.28C151.82 40.28 151.66 40.26 151.54 40.22C151.46 40.14 151.4 40.08 151.36 40.04C151.36 39.92 151.48 39.82 151.72 39.74C152.56 39.34 153.5 38.84 154.54 38.24C155.62 37.64 156.64 37.04 157.6 36.44C158.56 35.84 159.4 35.3 160.12 34.82C160.84 34.34 161.26 34.06 161.38 33.98C161.5 33.9 161.64 33.86 161.8 33.86C162 33.82 162.14 33.8 162.22 33.8C162.9 33.72 163.26 33.86 163.3 34.22C163.38 34.54 163.34 34.92 163.18 35.36ZM189.325 35.9C189.325 36.74 188.885 37.58 188.005 38.42C187.165 39.26 186.145 40.02 184.945 40.7C183.785 41.34 182.585 41.88 181.345 42.32C180.105 42.76 179.105 42.98 178.345 42.98C177.625 42.98 177.165 42.84 176.965 42.56C176.765 42.24 176.585 42 176.425 41.84C176.385 41.8 176.365 41.72 176.365 41.6C176.365 41.4 176.425 41.22 176.545 41.06C176.705 40.86 176.885 40.68 177.085 40.52C177.285 40.36 177.465 40.24 177.625 40.16C177.825 40.04 177.985 39.98 178.105 39.98C178.385 39.98 178.565 40.06 178.645 40.22C178.765 40.38 178.865 40.56 178.945 40.76C179.025 40.92 179.185 41.1 179.425 41.3C179.705 41.5 180.105 41.6 180.625 41.6C181.305 41.6 181.985 41.46 182.665 41.18C183.385 40.9 184.025 40.54 184.585 40.1C185.185 39.62 185.665 39.12 186.025 38.6C186.425 38.04 186.625 37.5 186.625 36.98C186.625 36.46 186.425 36.12 186.025 35.96C185.665 35.76 185.265 35.66 184.825 35.66C184.065 35.66 183.085 35.86 181.885 36.26C180.725 36.66 179.385 37.22 177.865 37.94C175.785 40.3 173.705 42.82 171.625 45.5C169.585 48.18 167.585 50.82 165.625 53.42C163.625 56.06 161.685 58.58 159.805 60.98C157.925 63.42 156.105 65.54 154.345 67.34C152.585 69.18 150.905 70.64 149.305 71.72C147.665 72.84 146.125 73.4 144.685 73.4C143.925 73.4 143.285 73.2 142.765 72.8C142.245 72.4 141.985 71.78 141.985 70.94C141.985 69.3 142.505 67.5 143.545 65.54C144.545 63.62 145.925 61.64 147.685 59.6C149.405 57.56 151.405 55.52 153.685 53.48C155.925 51.44 158.305 49.46 160.825 47.54C163.305 45.66 165.845 43.9 168.445 42.26C171.005 40.58 173.445 39.14 175.765 37.94C176.205 37.26 176.605 36.66 176.965 36.14C177.325 35.62 177.645 35.18 177.925 34.82C178.245 34.38 178.505 34 178.705 33.68C178.705 33.52 178.805 33.42 179.005 33.38C179.245 33.34 179.445 33.32 179.605 33.32C179.885 33.36 180.165 33.4 180.445 33.44C180.725 33.44 180.865 33.56 180.865 33.8C180.865 33.96 180.705 34.3 180.385 34.82C180.065 35.3 179.785 35.66 179.545 35.9L179.185 36.26C180.785 35.54 182.225 34.98 183.505 34.58C184.825 34.18 185.925 33.98 186.805 33.98C187.365 33.98 187.925 34.18 188.485 34.58C189.045 34.94 189.325 35.38 189.325 35.9ZM174.625 39.56C172.585 40.68 170.425 41.98 168.145 43.46C165.865 44.9 163.625 46.46 161.425 48.14C159.225 49.86 157.105 51.64 155.065 53.48C153.025 55.36 151.245 57.22 149.725 59.06C148.205 60.94 146.985 62.78 146.065 64.58C145.145 66.42 144.685 68.14 144.685 69.74C144.685 70.06 144.805 70.44 145.045 70.88C145.245 71.32 145.685 71.54 146.365 71.54C147.245 71.54 148.385 70.98 149.785 69.86C151.145 68.78 152.685 67.34 154.405 65.54C156.085 63.78 157.845 61.76 159.685 59.48C161.525 57.24 163.365 54.92 165.205 52.52C167.005 50.16 168.705 47.84 170.305 45.56C171.945 43.32 173.385 41.32 174.625 39.56ZM209.374 40.46C209.374 40.62 209.314 40.74 209.194 40.82L206.494 41.9C206.094 42.06 205.574 42.28 204.934 42.56C204.334 42.8 203.674 43.04 202.954 43.28C202.234 43.52 201.534 43.74 200.854 43.94C200.174 44.1 199.574 44.18 199.054 44.18C198.214 44.18 197.794 43.92 197.794 43.4C197.794 43.24 197.814 43.04 197.854 42.8C197.934 42.52 198.074 42.24 198.274 41.96C197.954 42.2 197.514 42.48 196.954 42.8C196.394 43.08 195.794 43.36 195.154 43.64C194.514 43.88 193.854 44.1 193.174 44.3C192.534 44.5 191.954 44.6 191.434 44.6C190.674 44.6 190.134 44.44 189.814 44.12C189.454 43.84 189.274 43.48 189.274 43.04C189.274 42.28 189.674 41.34 190.474 40.22C191.274 39.1 192.294 38.04 193.534 37.04C194.774 36 196.134 35.12 197.614 34.4C199.094 33.68 200.514 33.32 201.874 33.32C202.554 33.32 203.034 33.44 203.314 33.68C203.594 33.92 203.734 34.26 203.734 34.7C203.734 35.34 203.434 35.92 202.834 36.44C202.274 36.96 201.734 37.38 201.214 37.7C201.054 37.78 200.934 37.82 200.854 37.82C200.774 37.82 200.654 37.78 200.494 37.7C200.374 37.58 200.314 37.44 200.314 37.28C200.314 37.08 200.474 36.78 200.794 36.38C200.954 36.22 201.134 36 201.334 35.72C201.574 35.4 201.694 35.14 201.694 34.94C201.694 34.78 201.614 34.66 201.454 34.58C201.334 34.46 201.054 34.4 200.614 34.4C199.934 34.4 199.094 34.66 198.094 35.18C197.094 35.66 196.134 36.28 195.214 37.04C194.294 37.76 193.494 38.52 192.814 39.32C192.174 40.12 191.854 40.82 191.854 41.42C191.854 41.86 192.034 42.2 192.394 42.44C192.754 42.64 193.154 42.74 193.594 42.74C194.034 42.74 194.534 42.64 195.094 42.44C195.654 42.24 196.194 42.02 196.714 41.78C197.234 41.54 197.694 41.3 198.094 41.06C198.534 40.78 198.814 40.58 198.934 40.46C199.014 40.38 199.134 40.26 199.294 40.1C199.454 39.94 199.614 39.86 199.774 39.86C199.854 39.86 199.974 39.9 200.134 39.98C200.294 40.06 200.374 40.2 200.374 40.4C200.174 40.72 200.034 41 199.954 41.24C199.874 41.48 199.834 41.7 199.834 41.9C199.834 42.42 200.194 42.68 200.914 42.68C201.354 42.68 201.834 42.62 202.354 42.5C202.914 42.34 203.454 42.18 203.974 42.02C204.534 41.82 205.034 41.64 205.474 41.48C205.954 41.28 206.314 41.14 206.554 41.06C207.354 40.74 207.954 40.5 208.354 40.34C208.594 40.22 208.834 40.12 209.074 40.04C209.154 40.04 209.214 40.1 209.254 40.22C209.334 40.3 209.374 40.38 209.374 40.46ZM213.819 41.72C213.379 42.44 213.019 42.98 212.739 43.34C212.499 43.66 212.299 43.88 212.139 44C212.019 44.12 211.919 44.16 211.839 44.12C211.759 44.12 211.659 44.12 211.539 44.12C211.059 44.12 210.819 43.9 210.819 43.46C210.819 43.1 210.939 42.7 211.179 42.26C211.459 41.82 211.779 41.38 212.139 40.94C212.499 40.5 212.859 40.1 213.219 39.74C213.619 39.34 213.919 39.02 214.119 38.78C214.159 38.74 214.179 38.68 214.179 38.6C214.179 38.48 214.099 38.42 213.939 38.42C213.899 38.42 213.679 38.52 213.279 38.72C212.919 38.92 212.479 39.16 211.959 39.44C211.439 39.68 210.899 39.94 210.339 40.22C209.819 40.5 209.379 40.72 209.019 40.88C208.739 41 208.439 41.12 208.119 41.24C207.799 41.36 207.459 41.5 207.099 41.66C206.899 41.66 206.799 41.52 206.799 41.24C206.799 41.08 206.859 40.96 206.979 40.88C207.299 40.76 207.599 40.66 207.879 40.58C208.159 40.46 208.419 40.34 208.659 40.22C209.699 39.78 210.659 39.32 211.539 38.84C212.459 38.32 213.279 37.84 213.999 37.4C214.439 37.16 214.839 36.92 215.199 36.68C215.599 36.44 215.979 36.18 216.339 35.9C216.419 35.86 216.539 35.82 216.699 35.78C216.859 35.7 217.019 35.66 217.179 35.66C217.499 35.66 217.659 35.88 217.659 36.32C217.659 36.64 217.479 37.04 217.119 37.52C216.799 37.96 216.419 38.44 215.979 38.96C215.899 39.04 215.839 39.12 215.799 39.2H215.859C216.659 39.16 217.559 39.16 218.559 39.2C219.559 39.2 220.559 39.22 221.559 39.26C221.759 39.26 221.959 39.28 222.159 39.32C222.279 39.12 222.379 38.92 222.459 38.72C222.659 38.36 222.819 38.08 222.939 37.88C223.699 36.8 224.339 36.08 224.859 35.72C225.379 35.32 225.819 35.12 226.179 35.12C226.379 35.12 226.499 35.2 226.539 35.36C226.579 35.48 226.599 35.58 226.599 35.66C226.599 35.82 226.559 35.98 226.479 36.14L226.239 36.62C226.119 36.78 225.919 37.06 225.639 37.46C225.359 37.86 225.079 38.3 224.799 38.78C224.559 39.26 224.319 39.76 224.079 40.28C223.879 40.76 223.779 41.2 223.779 41.6C223.779 42.32 224.199 42.68 225.039 42.68C225.479 42.68 225.959 42.62 226.479 42.5C227.039 42.34 227.579 42.18 228.099 42.02C228.659 41.82 229.159 41.64 229.599 41.48C230.079 41.28 230.439 41.14 230.679 41.06C231.439 40.78 232.039 40.54 232.479 40.34C232.799 40.18 233.039 40.08 233.199 40.04C233.399 40.04 233.499 40.18 233.499 40.46C233.499 40.66 233.439 40.78 233.319 40.82L230.619 41.9C230.219 42.06 229.699 42.28 229.059 42.56C228.459 42.8 227.799 43.04 227.079 43.28C226.359 43.52 225.659 43.74 224.979 43.94C224.299 44.1 223.699 44.18 223.179 44.18C222.419 44.18 221.899 44.04 221.619 43.76C221.339 43.44 221.199 43.06 221.199 42.62C221.199 42.18 221.259 41.72 221.379 41.24C221.499 40.8 221.659 40.4 221.859 40.04H221.439C220.719 40 219.879 40 218.919 40.04C217.959 40.08 216.959 40.12 215.919 40.16C215.559 40.2 215.219 40.22 214.899 40.22C214.859 40.3 214.799 40.38 214.719 40.46C214.279 40.94 213.979 41.36 213.819 41.72ZM213.279 40.16H213.219C213.179 40.24 213.199 40.24 213.279 40.16ZM255.239 40.46C255.239 40.62 255.179 40.74 255.059 40.82L252.359 41.9C251.959 42.06 251.439 42.28 250.799 42.56C250.199 42.8 249.539 43.04 248.819 43.28C248.099 43.52 247.399 43.74 246.719 43.94C246.039 44.1 245.439 44.18 244.919 44.18C244.399 44.18 243.979 44.08 243.659 43.88C243.379 43.64 243.139 43.38 242.939 43.1C242.779 42.82 242.659 42.54 242.579 42.26C242.539 41.98 242.519 41.76 242.519 41.6C242.519 41 242.639 40.46 242.879 39.98C243.159 39.46 243.339 39.16 243.419 39.08C243.459 39.04 243.419 39.02 243.299 39.02C242.939 39.3 242.379 39.7 241.619 40.22C240.899 40.74 240.079 41.26 239.159 41.78C238.239 42.3 237.299 42.76 236.339 43.16C235.419 43.56 234.559 43.76 233.759 43.76C233.319 43.76 232.939 43.56 232.619 43.16C232.299 42.76 232.139 42.34 232.139 41.9C232.139 41.42 232.319 40.88 232.679 40.28C233.039 39.68 233.459 39.1 233.939 38.54C234.459 37.98 234.959 37.46 235.439 36.98C235.919 36.5 236.279 36.18 236.519 36.02C236.519 35.98 236.539 35.96 236.579 35.96H236.819C237.019 35.96 237.179 36.02 237.299 36.14C237.339 36.18 237.359 36.24 237.359 36.32C237.359 36.48 237.219 36.72 236.939 37.04C236.659 37.32 236.339 37.66 235.979 38.06C235.659 38.42 235.359 38.82 235.079 39.26C234.799 39.7 234.659 40.16 234.659 40.64C234.659 41.04 234.779 41.4 235.019 41.72C235.259 42 235.539 42.14 235.859 42.14C236.619 42.14 237.539 41.84 238.619 41.24C239.699 40.6 240.759 39.88 241.799 39.08C242.999 38.16 244.239 37.14 245.519 36.02C245.799 36.02 246.019 36.08 246.179 36.2C246.379 36.28 246.479 36.48 246.479 36.8C246.479 36.92 246.419 37.08 246.299 37.28C246.179 37.44 245.959 37.86 245.639 38.54C245.359 39.22 245.219 39.9 245.219 40.58C245.219 40.7 245.219 40.88 245.219 41.12C245.259 41.32 245.319 41.54 245.399 41.78C245.519 42.02 245.679 42.24 245.879 42.44C246.079 42.6 246.379 42.68 246.779 42.68C247.219 42.68 247.699 42.62 248.219 42.5C248.779 42.34 249.319 42.18 249.839 42.02C250.399 41.82 250.899 41.64 251.339 41.48C251.819 41.28 252.179 41.14 252.419 41.06C253.219 40.74 253.819 40.5 254.219 40.34C254.459 40.22 254.699 40.12 254.939 40.04C255.019 40.04 255.079 40.1 255.119 40.22C255.199 40.3 255.239 40.38 255.239 40.46ZM274.519 40.46C274.519 40.62 274.459 40.74 274.339 40.82C272.979 41.42 271.639 41.94 270.319 42.38C269.159 42.78 267.939 43.16 266.659 43.52C265.419 43.84 264.319 44 263.359 44C262.159 43.88 261.559 43.38 261.559 42.5C261.559 41.98 261.739 41.4 262.099 40.76C262.459 40.08 262.879 39.44 263.359 38.84C263.839 38.24 264.299 37.72 264.739 37.28C265.219 36.8 265.559 36.52 265.759 36.44C265.479 36.48 264.819 36.56 263.779 36.68C262.779 36.8 261.739 36.9 260.659 36.98C260.419 37.34 260.019 37.74 259.459 38.18C258.939 38.58 258.379 38.96 257.779 39.32C257.179 39.68 256.599 40 256.039 40.28C255.519 40.56 255.139 40.76 254.899 40.88C254.619 41 254.299 41.12 253.939 41.24C253.619 41.36 253.279 41.5 252.919 41.66C252.839 41.66 252.779 41.62 252.739 41.54C252.659 41.42 252.619 41.32 252.619 41.24C252.619 41.08 252.659 40.98 252.739 40.94C253.059 40.82 253.359 40.7 253.639 40.58C253.959 40.46 254.239 40.34 254.479 40.22C255.639 39.7 256.659 39.14 257.539 38.54C258.419 37.94 259.019 37.42 259.339 36.98C258.779 36.98 258.339 36.94 258.019 36.86C257.739 36.74 257.519 36.62 257.359 36.5C257.199 36.34 257.099 36.2 257.059 36.08C257.059 35.72 257.259 35.28 257.659 34.76C258.099 34.24 258.599 33.76 259.159 33.32C259.759 32.88 260.359 32.5 260.959 32.18C261.559 31.86 262.039 31.7 262.399 31.7C262.639 31.7 262.799 31.8 262.879 32C262.959 32.16 262.999 32.34 262.999 32.54C262.999 32.74 262.919 32.92 262.759 33.08C262.679 33.16 262.519 33.3 262.279 33.5C262.079 33.7 261.859 33.92 261.619 34.16C261.379 34.36 261.159 34.56 260.959 34.76C260.799 34.92 260.719 35.02 260.719 35.06C260.719 35.1 260.819 35.14 261.019 35.18C261.219 35.22 261.639 35.24 262.279 35.24C262.479 35.24 262.779 35.24 263.179 35.24C263.579 35.24 264.039 35.22 264.559 35.18C265.079 35.1 265.599 35.02 266.119 34.94C266.679 34.82 267.199 34.68 267.679 34.52C267.799 34.52 267.919 34.6 268.039 34.76C268.159 34.88 268.219 35.02 268.219 35.18C268.219 35.7 267.999 36.02 267.559 36.14C267.279 36.34 266.919 36.64 266.479 37.04C266.039 37.4 265.619 37.82 265.219 38.3C264.819 38.78 264.459 39.26 264.139 39.74C263.859 40.22 263.719 40.66 263.719 41.06C263.719 41.42 263.859 41.72 264.139 41.96C264.459 42.16 264.999 42.26 265.759 42.26C266.799 42.26 267.819 42.14 268.819 41.9C269.819 41.66 270.719 41.4 271.519 41.12C272.479 40.8 273.379 40.44 274.219 40.04C274.299 40.04 274.359 40.1 274.399 40.22C274.479 40.3 274.519 40.38 274.519 40.46ZM288.095 40.46C288.095 40.62 288.035 40.74 287.915 40.82C286.275 41.5 284.675 42.1 283.115 42.62C281.795 43.06 280.415 43.48 278.975 43.88C277.575 44.28 276.395 44.48 275.435 44.48C274.635 44.48 273.975 44.3 273.455 43.94C272.975 43.54 272.735 43.04 272.735 42.44C272.735 41.88 272.915 41.36 273.275 40.88C273.635 40.4 274.015 39.98 274.415 39.62C274.855 39.26 275.235 38.96 275.555 38.72C275.915 38.48 276.095 38.34 276.095 38.3C276.095 38.22 275.935 38.16 275.615 38.12C275.335 38.08 274.835 38 274.115 37.88C273.675 37.8 273.375 37.68 273.215 37.52C273.095 37.32 273.035 37.12 273.035 36.92C273.035 36.64 273.115 36.4 273.275 36.2C273.475 35.96 273.615 35.8 273.695 35.72C274.495 35.2 275.435 34.68 276.515 34.16C277.595 33.64 278.655 33.18 279.695 32.78C280.775 32.38 281.755 32.06 282.635 31.82C283.515 31.58 284.135 31.46 284.495 31.46C284.895 31.46 285.255 31.56 285.575 31.76C285.935 31.92 286.115 32.22 286.115 32.66C286.115 32.86 286.015 33.08 285.815 33.32C285.615 33.52 285.375 33.72 285.095 33.92C284.815 34.08 284.515 34.22 284.195 34.34C283.875 34.46 283.595 34.52 283.355 34.52C283.155 34.52 282.955 34.48 282.755 34.4C282.595 34.32 282.515 34.18 282.515 33.98C282.515 33.74 282.615 33.48 282.815 33.2C282.895 33.12 282.935 33.04 282.935 32.96C282.935 32.88 282.835 32.84 282.635 32.84C282.555 32.84 282.435 32.86 282.275 32.9C282.115 32.9 281.935 32.92 281.735 32.96C281.415 33.04 280.955 33.2 280.355 33.44C279.755 33.64 279.155 33.88 278.555 34.16C277.955 34.44 277.415 34.7 276.935 34.94C276.455 35.18 276.155 35.34 276.035 35.42C275.875 35.54 275.795 35.66 275.795 35.78C275.795 35.98 275.915 36.12 276.155 36.2C276.195 36.2 276.335 36.22 276.575 36.26C276.815 36.26 277.075 36.28 277.355 36.32C277.635 36.32 277.895 36.32 278.135 36.32C278.415 36.32 278.615 36.32 278.735 36.32C279.175 36.36 279.435 36.44 279.515 36.56C279.595 36.68 279.635 36.88 279.635 37.16C279.635 37.36 279.595 37.56 279.515 37.76C279.435 37.96 279.175 38.1 278.735 38.18C277.895 38.38 277.075 38.72 276.275 39.2C275.515 39.68 275.135 40.32 275.135 41.12C275.135 41.68 275.435 42.1 276.035 42.38C276.675 42.62 277.275 42.74 277.835 42.74C278.875 42.74 279.975 42.6 281.135 42.32C282.295 42 283.375 41.68 284.375 41.36C285.535 40.96 286.675 40.52 287.795 40.04C287.875 40.04 287.935 40.1 287.975 40.22C288.055 40.3 288.095 40.38 288.095 40.46ZM292.862 41.72C292.422 42.44 292.062 42.98 291.782 43.34C291.542 43.66 291.342 43.88 291.182 44C291.062 44.12 290.962 44.16 290.882 44.12C290.802 44.12 290.702 44.12 290.582 44.12C290.102 44.12 289.862 43.9 289.862 43.46C289.862 43.1 289.982 42.7 290.222 42.26C290.502 41.82 290.822 41.38 291.182 40.94C291.542 40.5 291.902 40.1 292.262 39.74C292.662 39.34 292.962 39.02 293.162 38.78C293.202 38.74 293.222 38.68 293.222 38.6C293.222 38.48 293.142 38.42 292.982 38.42C292.942 38.42 292.722 38.52 292.322 38.72C291.962 38.92 291.522 39.16 291.002 39.44C290.482 39.68 289.942 39.94 289.382 40.22C288.862 40.5 288.422 40.72 288.062 40.88C287.782 41 287.482 41.12 287.162 41.24C286.842 41.36 286.502 41.5 286.142 41.66C285.942 41.66 285.842 41.52 285.842 41.24C285.842 41.08 285.902 40.96 286.022 40.88C286.342 40.76 286.642 40.66 286.922 40.58C287.202 40.46 287.462 40.34 287.702 40.22C288.742 39.78 289.702 39.32 290.582 38.84C291.502 38.32 292.322 37.84 293.042 37.4C293.482 37.16 293.882 36.92 294.242 36.68C294.642 36.44 295.022 36.18 295.382 35.9C295.462 35.86 295.582 35.82 295.742 35.78C295.902 35.7 296.062 35.66 296.222 35.66C296.542 35.66 296.702 35.88 296.702 36.32C296.702 36.64 296.522 37.04 296.162 37.52C295.842 37.96 295.462 38.44 295.022 38.96C294.942 39.04 294.882 39.12 294.842 39.2H294.902C295.702 39.16 296.602 39.16 297.602 39.2C298.602 39.2 299.602 39.22 300.602 39.26C300.802 39.26 301.002 39.28 301.202 39.32C301.322 39.12 301.422 38.92 301.502 38.72C301.702 38.36 301.862 38.08 301.982 37.88C302.742 36.8 303.382 36.08 303.902 35.72C304.422 35.32 304.862 35.12 305.222 35.12C305.422 35.12 305.542 35.2 305.582 35.36C305.622 35.48 305.642 35.58 305.642 35.66C305.642 35.82 305.602 35.98 305.522 36.14L305.282 36.62C305.162 36.78 304.962 37.06 304.682 37.46C304.402 37.86 304.122 38.3 303.842 38.78C303.602 39.26 303.362 39.76 303.122 40.28C302.922 40.76 302.822 41.2 302.822 41.6C302.822 42.32 303.242 42.68 304.082 42.68C304.522 42.68 305.002 42.62 305.522 42.5C306.082 42.34 306.622 42.18 307.142 42.02C307.702 41.82 308.202 41.64 308.642 41.48C309.122 41.28 309.482 41.14 309.722 41.06C310.482 40.78 311.082 40.54 311.522 40.34C311.842 40.18 312.082 40.08 312.242 40.04C312.442 40.04 312.542 40.18 312.542 40.46C312.542 40.66 312.482 40.78 312.362 40.82L309.662 41.9C309.262 42.06 308.742 42.28 308.102 42.56C307.502 42.8 306.842 43.04 306.122 43.28C305.402 43.52 304.702 43.74 304.022 43.94C303.342 44.1 302.742 44.18 302.222 44.18C301.462 44.18 300.942 44.04 300.662 43.76C300.382 43.44 300.242 43.06 300.242 42.62C300.242 42.18 300.302 41.72 300.422 41.24C300.542 40.8 300.702 40.4 300.902 40.04H300.482C299.762 40 298.922 40 297.962 40.04C297.002 40.08 296.002 40.12 294.962 40.16C294.602 40.2 294.262 40.22 293.942 40.22C293.902 40.3 293.842 40.38 293.762 40.46C293.322 40.94 293.022 41.36 292.862 41.72ZM292.322 40.16H292.262C292.222 40.24 292.242 40.24 292.322 40.16ZM334.282 40.46C334.282 40.62 334.222 40.74 334.102 40.82L331.402 41.9C331.002 42.06 330.482 42.28 329.842 42.56C329.242 42.8 328.582 43.04 327.862 43.28C327.142 43.52 326.442 43.74 325.762 43.94C325.082 44.1 324.482 44.18 323.962 44.18C323.442 44.18 323.022 44.08 322.702 43.88C322.422 43.64 322.182 43.38 321.982 43.1C321.822 42.82 321.702 42.54 321.622 42.26C321.582 41.98 321.562 41.76 321.562 41.6C321.562 41 321.682 40.46 321.922 39.98C322.202 39.46 322.382 39.16 322.462 39.08C322.502 39.04 322.462 39.02 322.342 39.02C321.982 39.3 321.422 39.7 320.662 40.22C319.942 40.74 319.122 41.26 318.202 41.78C317.282 42.3 316.342 42.76 315.382 43.16C314.462 43.56 313.602 43.76 312.802 43.76C312.362 43.76 311.982 43.56 311.662 43.16C311.342 42.76 311.182 42.34 311.182 41.9C311.182 41.42 311.362 40.88 311.722 40.28C312.082 39.68 312.502 39.1 312.982 38.54C313.502 37.98 314.002 37.46 314.482 36.98C314.962 36.5 315.322 36.18 315.562 36.02C315.562 35.98 315.582 35.96 315.622 35.96H315.862C316.062 35.96 316.222 36.02 316.342 36.14C316.382 36.18 316.402 36.24 316.402 36.32C316.402 36.48 316.262 36.72 315.982 37.04C315.702 37.32 315.382 37.66 315.022 38.06C314.702 38.42 314.402 38.82 314.122 39.26C313.842 39.7 313.702 40.16 313.702 40.64C313.702 41.04 313.822 41.4 314.062 41.72C314.302 42 314.582 42.14 314.902 42.14C315.662 42.14 316.582 41.84 317.662 41.24C318.742 40.6 319.802 39.88 320.842 39.08C322.042 38.16 323.282 37.14 324.562 36.02C324.842 36.02 325.062 36.08 325.222 36.2C325.422 36.28 325.522 36.48 325.522 36.8C325.522 36.92 325.462 37.08 325.342 37.28C325.222 37.44 325.002 37.86 324.682 38.54C324.402 39.22 324.262 39.9 324.262 40.58C324.262 40.7 324.262 40.88 324.262 41.12C324.302 41.32 324.362 41.54 324.442 41.78C324.562 42.02 324.722 42.24 324.922 42.44C325.122 42.6 325.422 42.68 325.822 42.68C326.262 42.68 326.742 42.62 327.262 42.5C327.822 42.34 328.362 42.18 328.882 42.02C329.442 41.82 329.942 41.64 330.382 41.48C330.862 41.28 331.222 41.14 331.462 41.06C332.262 40.74 332.862 40.5 333.262 40.34C333.502 40.22 333.742 40.12 333.982 40.04C334.062 40.04 334.122 40.1 334.162 40.22C334.242 40.3 334.282 40.38 334.282 40.46ZM355.962 40.46C355.962 40.62 355.902 40.74 355.782 40.82L353.082 41.9C352.682 42.06 352.162 42.28 351.522 42.56C350.922 42.8 350.262 43.04 349.542 43.28C348.822 43.52 348.122 43.74 347.442 43.94C346.762 44.1 346.162 44.18 345.642 44.18C345.122 44.18 344.702 44.08 344.382 43.88C344.102 43.64 343.862 43.38 343.662 43.1C343.502 42.82 343.382 42.54 343.302 42.26C343.262 41.98 343.242 41.76 343.242 41.6C343.242 41 343.362 40.46 343.602 39.98C343.882 39.46 344.062 39.16 344.142 39.08C344.182 39.04 344.142 39.02 344.022 39.02C343.662 39.3 343.102 39.7 342.342 40.22C341.622 40.74 340.802 41.26 339.882 41.78C338.962 42.3 338.022 42.76 337.062 43.16C336.142 43.56 335.282 43.76 334.482 43.76C334.042 43.76 333.662 43.56 333.342 43.16C333.022 42.76 332.862 42.34 332.862 41.9C332.862 41.42 333.042 40.88 333.402 40.28C333.762 39.68 334.182 39.1 334.662 38.54C335.182 37.98 335.682 37.46 336.162 36.98C336.642 36.5 337.002 36.18 337.242 36.02C337.242 35.98 337.262 35.96 337.302 35.96H337.542C337.742 35.96 337.902 36.02 338.022 36.14C338.062 36.18 338.082 36.24 338.082 36.32C338.082 36.48 337.942 36.72 337.662 37.04C337.382 37.32 337.062 37.66 336.702 38.06C336.382 38.42 336.082 38.82 335.802 39.26C335.522 39.7 335.382 40.16 335.382 40.64C335.382 41.04 335.502 41.4 335.742 41.72C335.982 42 336.262 42.14 336.582 42.14C337.342 42.14 338.262 41.84 339.342 41.24C340.422 40.6 341.482 39.88 342.522 39.08C343.722 38.16 344.962 37.14 346.242 36.02C346.522 36.02 346.742 36.08 346.902 36.2C347.102 36.28 347.202 36.48 347.202 36.8C347.202 36.92 347.142 37.08 347.022 37.28C346.902 37.44 346.682 37.86 346.362 38.54C346.082 39.22 345.942 39.9 345.942 40.58C345.942 40.7 345.942 40.88 345.942 41.12C345.982 41.32 346.042 41.54 346.122 41.78C346.242 42.02 346.402 42.24 346.602 42.44C346.802 42.6 347.102 42.68 347.502 42.68C347.942 42.68 348.422 42.62 348.942 42.5C349.502 42.34 350.042 42.18 350.562 42.02C351.122 41.82 351.622 41.64 352.062 41.48C352.542 41.28 352.902 41.14 353.142 41.06C353.942 40.74 354.542 40.5 354.942 40.34C355.182 40.22 355.422 40.12 355.662 40.04C355.742 40.04 355.802 40.1 355.842 40.22C355.922 40.3 355.962 40.38 355.962 40.46ZM342.522 30.32C342.562 30.2 342.642 30.02 342.762 29.78C342.922 29.54 343.082 29.3 343.242 29.06C343.442 28.82 343.622 28.62 343.782 28.46C343.942 28.26 344.062 28.16 344.142 28.16C344.342 28.12 344.522 28.14 344.682 28.22C344.882 28.3 345.002 28.44 345.042 28.64C345.042 28.72 345.002 28.84 344.922 29C344.802 29.2 344.562 29.56 344.202 30.08C343.882 30.6 343.742 31.14 343.782 31.7C343.822 32.02 343.962 32.28 344.202 32.48C344.482 32.68 344.902 32.74 345.462 32.66C346.382 32.62 347.202 32.42 347.922 32.06C348.682 31.7 349.382 31.38 350.022 31.1C350.102 31.06 350.182 31.04 350.262 31.04C350.342 31 350.422 30.96 350.502 30.92C350.702 30.92 350.802 31 350.802 31.16C350.802 31.32 350.742 31.4 350.622 31.4C349.342 31.96 348.122 32.48 346.962 32.96C345.802 33.4 344.822 33.66 344.022 33.74C343.622 33.74 343.282 33.68 343.002 33.56C342.762 33.44 342.562 33.3 342.402 33.14C342.282 32.94 342.182 32.76 342.102 32.6C342.062 32.4 342.042 32.24 342.042 32.12C342.002 31.8 342.042 31.46 342.162 31.1C342.322 30.74 342.442 30.48 342.522 30.32Z" fill="#1A1A1A"/>
</svg>
