<svg width="37" height="37" viewBox="0 0 37 37" fill="none" xmlns="http://www.w3.org/2000/svg">
<circle cx="18.4149" cy="18.8216" r="17.4349" transform="rotate(-90 18.4149 18.8216)" stroke="#EEEEEE"/>
<g clip-path="url(#clip0)">
<path d="M24.3872 24.5831L21.0871 21.2829C21.9724 20.2652 22.5083 18.9373 22.5083 17.486C22.5083 14.2912 19.9098 11.6957 16.718 11.6957C13.5233 11.6957 10.9277 14.2942 10.9277 17.486C10.9277 20.6777 13.5263 23.2763 16.718 23.2763C18.1694 23.2763 19.4973 22.7403 20.515 21.855L23.8151 25.1552C23.8934 25.2335 23.9988 25.2756 24.1012 25.2756C24.2036 25.2756 24.309 25.2365 24.3872 25.1552C24.5438 24.9986 24.5438 24.7397 24.3872 24.5831ZM11.7377 17.486C11.7377 14.7399 13.9719 12.5087 16.715 12.5087C19.4611 12.5087 21.6923 14.7429 21.6923 17.486C21.6923 20.2291 19.4611 22.4663 16.715 22.4663C13.9719 22.4663 11.7377 20.2321 11.7377 17.486Z" fill="#1A1A1A"/>
</g>
<defs>
<clipPath id="clip0">
<rect width="13.58" height="13.58" fill="white" transform="translate(10.9258 11.6957)"/>
</clipPath>
</defs>
</svg>
