<svg width="36" height="37" viewBox="0 0 36 37" fill="none" xmlns="http://www.w3.org/2000/svg">
<circle cx="17.9349" cy="18.8216" r="17.4349" transform="rotate(-90 17.9349 18.8216)" stroke="#EEEEEE"/>
<g clip-path="url(#clip0)">
<path d="M17.6978 19.6569C17.7151 19.6569 17.7324 19.6569 17.7531 19.6569C17.7601 19.6569 17.767 19.6569 17.7739 19.6569C17.7843 19.6569 17.7981 19.6569 17.8085 19.6569C18.8226 19.6395 19.6429 19.283 20.2486 18.6012C21.5811 17.0991 21.3596 14.524 21.3354 14.2783C21.2489 12.4335 20.3767 11.5509 19.6568 11.139C19.1203 10.831 18.4938 10.6648 17.7947 10.651H17.7704C17.767 10.651 17.7601 10.651 17.7566 10.651H17.7358C17.3516 10.651 16.5971 10.7133 15.8737 11.1252C15.1469 11.537 14.2608 12.4196 14.1743 14.2783C14.1501 14.524 13.9286 17.0991 15.2611 18.6012C15.8634 19.283 16.6836 19.6395 17.6978 19.6569ZM15.0984 14.3648C15.0984 14.3544 15.1019 14.344 15.1019 14.3371C15.2161 11.8555 16.9778 11.589 17.7324 11.589H17.7462C17.7531 11.589 17.7635 11.589 17.7739 11.589C18.7084 11.6097 20.2971 11.9905 20.4044 14.3371C20.4044 14.3475 20.4044 14.3579 20.4078 14.3648C20.4113 14.389 20.6536 16.7426 19.5529 17.9817C19.1168 18.4731 18.5353 18.7154 17.7704 18.7223C17.7635 18.7223 17.7601 18.7223 17.7531 18.7223C17.7462 18.7223 17.7427 18.7223 17.7358 18.7223C16.9744 18.7154 16.3894 18.4731 15.9568 17.9817C14.8596 16.7495 15.095 14.3856 15.0984 14.3648Z" fill="#1A1A1A"/>
<path d="M24.8657 23.9279C24.8657 23.9244 24.8657 23.921 24.8657 23.9175C24.8657 23.8898 24.8622 23.8621 24.8622 23.831C24.8415 23.1457 24.7965 21.5432 23.2944 21.0309C23.284 21.0275 23.2701 21.024 23.2597 21.0205C21.6988 20.6225 20.4008 19.7226 20.387 19.7122C20.1759 19.5634 19.8851 19.6153 19.7363 19.8264C19.5875 20.0376 19.6394 20.3283 19.8505 20.4771C19.9094 20.5187 21.2869 21.4774 23.0105 21.9204C23.817 22.2077 23.907 23.0695 23.9312 23.8587C23.9312 23.8898 23.9312 23.9175 23.9347 23.9452C23.9381 24.2567 23.9174 24.7378 23.862 25.0147C23.3013 25.3331 21.1035 26.4337 17.76 26.4337C14.4304 26.4337 12.2187 25.3296 11.6546 25.0112C11.5992 24.7343 11.575 24.2532 11.5819 23.9417C11.5819 23.914 11.5853 23.8863 11.5853 23.8552C11.6096 23.0661 11.6996 22.2042 12.506 21.917C14.2297 21.4739 15.6072 20.5117 15.666 20.4737C15.8772 20.3248 15.9291 20.0341 15.7802 19.823C15.6314 19.6119 15.3407 19.5599 15.1295 19.7088C15.1157 19.7191 13.8247 20.619 12.2568 21.0171C12.243 21.0205 12.2326 21.024 12.2222 21.0275C10.7201 21.5432 10.6751 23.1457 10.6543 23.8275C10.6543 23.8587 10.6543 23.8863 10.6508 23.914C10.6508 23.9175 10.6508 23.921 10.6508 23.9244C10.6474 24.1044 10.6439 25.0285 10.8274 25.4923C10.862 25.5823 10.9243 25.6584 11.0073 25.7104C11.1112 25.7796 13.5997 27.3648 17.7635 27.3648C21.9272 27.3648 24.4158 25.7761 24.5196 25.7104C24.5992 25.6584 24.665 25.5823 24.6996 25.4923C24.8726 25.032 24.8692 24.1079 24.8657 23.9279Z" fill="#1A1A1A"/>
</g>
<defs>
<clipPath id="clip0">
<rect width="16.7138" height="16.7138" fill="white" transform="translate(9.40137 10.651)"/>
</clipPath>
</defs>
</svg>
