<svg width="49" height="50" viewBox="0 0 49 50" fill="none" xmlns="http://www.w3.org/2000/svg">
<circle cx="24.4318" cy="24.8216" r="24.2121" transform="rotate(-90 24.4318 24.8216)" fill="#1A1A1A"/>
<circle cx="24.618" cy="25.0076" r="20.9369" transform="rotate(-90 24.618 25.0076)" stroke="url(#paint0_linear)" stroke-width="2"/>
<g clip-path="url(#clip0)">
<path d="M35.3529 22.8179H30.9029L27.6636 15.0133C27.5037 14.6279 27.0615 14.4453 26.6762 14.6051C26.2909 14.765 26.1081 15.2071 26.268 15.5925L29.2669 22.8179H19.9685L22.9674 15.5925C23.1273 15.2071 22.9446 14.765 22.5592 14.6051C22.174 14.4452 21.7317 14.6279 21.5718 15.0133L18.3325 22.8179H13.8825C13.4652 22.8179 13.127 23.1562 13.127 23.5734C13.127 23.9907 13.4652 24.329 13.8825 24.329H14.3368L15.818 32.4298C16.14 34.1906 17.673 35.4687 19.463 35.4687H29.7725C31.5626 35.4687 33.0954 34.1906 33.4174 32.4298L34.8986 24.329H35.3529C35.7702 24.329 36.1085 23.9907 36.1085 23.5734C36.1085 23.1562 35.7701 22.8179 35.3529 22.8179ZM31.9309 32.1579C31.7403 33.2008 30.8325 33.9576 29.7724 33.9576H19.4629C18.4029 33.9576 17.4951 33.2008 17.3044 32.1579L15.8794 24.3647H33.356L31.9309 32.1579Z" fill="white"/>
</g>
<defs>
<linearGradient id="paint0_linear" x1="5.81499" y1="31.7976" x2="41.8541" y2="10.9053" gradientUnits="userSpaceOnUse">
<stop stop-color="#CC32A1"/>
<stop offset="0.828934" stop-color="#FF94E1"/>
<stop offset="1" stop-color="#FFCCF1"/>
</linearGradient>
<clipPath id="clip0">
<rect width="22.9815" height="22.9815" fill="white" transform="translate(13.127 13.5172)"/>
</clipPath>
</defs>
</svg>
