<svg width="37" height="37" viewBox="0 0 37 37" fill="none" xmlns="http://www.w3.org/2000/svg">
<circle cx="18.6746" cy="18.8216" r="17.4349" transform="rotate(-90 18.6746 18.8216)" stroke="#EEEEEE"/>
<g clip-path="url(#clip0)">
<path d="M21.9829 11.4279C21.2037 11.4279 20.4588 11.6065 19.7692 11.9589C19.2998 12.1987 18.8685 12.5173 18.4985 12.8954C18.1285 12.5173 17.6972 12.1987 17.2278 11.9589C16.5382 11.6065 15.7933 11.4279 15.014 11.4279C12.3274 11.4279 10.1416 13.6136 10.1416 16.3003C10.1416 18.2033 11.1466 20.2243 13.1286 22.3074C14.7836 24.0467 16.8097 25.4966 18.2179 26.4066L18.4985 26.5879L18.779 26.4066C20.1873 25.4966 22.2134 24.0467 23.8684 22.3074C25.8504 20.2243 26.8554 18.2033 26.8554 16.3003C26.8554 13.6136 24.6696 11.4279 21.9829 11.4279ZM23.1194 21.5948C21.6404 23.1492 19.8388 24.4706 18.4985 25.3551C17.1582 24.4706 15.3566 23.1492 13.8776 21.5948C12.0846 19.7104 11.1754 17.929 11.1754 16.3003C11.1754 14.1837 12.8974 12.4617 15.0141 12.4617C16.2327 12.4617 17.3521 13.0215 18.0852 13.9974L18.4985 14.5476L18.9118 13.9974C19.6449 13.0215 20.7643 12.4617 21.9829 12.4617C24.0995 12.4617 25.8216 14.1837 25.8216 16.3003C25.8216 17.929 24.9124 19.7104 23.1194 21.5948Z" fill="#1A1A1A"/>
</g>
<defs>
<clipPath id="clip0">
<rect width="16.7138" height="16.7138" fill="white" transform="translate(10.1416 10.651)"/>
</clipPath>
</defs>
</svg>
