<svg width="263" height="60" viewBox="0 0 263 60" fill="none" xmlns="http://www.w3.org/2000/svg">
<path d="M58.2664 37.45C58.2664 37.6833 58.1331 38 57.8664 38.4C57.5997 38.8 57.2664 39 56.8664 39C56.7664 39 56.1664 39 55.0664 39C53.9664 39 52.5497 38.9833 50.8164 38.95C49.1164 38.95 47.1664 38.95 44.9664 38.95C42.7997 38.95 40.5831 38.9333 38.3164 38.9C36.0831 38.9 33.8831 38.9 31.7164 38.9C29.5497 38.9 27.5997 38.8833 25.8664 38.85C24.1664 38.85 22.7664 38.8333 21.6664 38.8C20.5664 38.8 19.9664 38.7833 19.8664 38.75C19.3331 38.65 19.0664 38.4667 19.0664 38.2C19.0664 38.0333 19.2164 37.8 19.5164 37.5C19.6831 37.3333 19.8331 37.1833 19.9664 37.05C20.0997 36.95 20.2331 36.8667 20.3664 36.8C20.5331 36.7667 20.7164 36.7333 20.9164 36.7C21.1497 36.7 21.4497 36.7 21.8164 36.7C22.0164 36.7 22.6164 36.7 23.6164 36.7C24.6164 36.7333 25.8164 36.75 27.2164 36.75C28.6164 36.75 30.1497 36.7667 31.8164 36.8C33.4831 36.8333 35.0831 36.85 36.6164 36.85C38.1497 36.85 39.5331 36.85 40.7664 36.85C41.9997 36.8833 42.8997 36.9 43.4664 36.9H43.5164C45.3164 35.6 46.5997 34.3833 47.3664 33.25C48.1664 32.1167 48.5664 31.0667 48.5664 30.1C48.5664 28.9333 48.0497 27.9 47.0164 27C46.0164 26.0667 44.6497 25.25 42.9164 24.55C41.2164 23.8167 39.2331 23.2167 36.9664 22.75C34.6997 22.25 32.3164 21.85 29.8164 21.55C28.2164 23.55 26.6331 25.5333 25.0664 27.5C23.4997 29.4667 22.0664 31.25 20.7664 32.85C19.4997 34.45 18.4497 35.75 17.6164 36.75C16.8164 37.7833 16.3831 38.3333 16.3164 38.4L16.0664 38.65C15.8997 38.8167 15.7497 38.9 15.6164 38.9C15.2497 38.9 15.0664 38.7333 15.0664 38.4C15.0664 38.1333 15.1831 37.8833 15.4164 37.65C15.4497 37.6167 15.8497 37.1167 16.6164 36.15C17.3831 35.1833 18.3664 33.9333 19.5664 32.4C20.7997 30.8667 22.1664 29.1333 23.6664 27.2C25.1997 25.2667 26.7331 23.3167 28.2664 21.35C26.5331 21.1833 24.7997 21.0667 23.0664 21C21.3664 20.9 19.6664 20.85 17.9664 20.85C17.5331 20.85 17.3164 20.65 17.3164 20.25C17.3164 20.15 17.3164 20.0333 17.3164 19.9C17.3497 19.7667 17.4331 19.6167 17.5664 19.45C17.7997 19.15 18.1164 18.9833 18.5164 18.95C18.9497 18.8833 19.2497 18.85 19.4164 18.85C19.5164 18.85 19.9331 18.85 20.6664 18.85C21.4331 18.85 22.3497 18.8667 23.4164 18.9C24.4831 18.9 25.6164 18.9 26.8164 18.9C28.0497 18.9 29.1664 18.9 30.1664 18.9C31.3331 17.4333 32.4331 16.0333 33.4664 14.7C34.4997 13.3667 35.3997 12.2 36.1664 11.2C36.9664 10.2 37.5997 9.41667 38.0664 8.85C38.5331 8.25 38.7831 7.93333 38.8164 7.9C38.8831 7.8 39.0497 7.61667 39.3164 7.35C39.6164 7.08333 39.8997 6.95 40.1664 6.95C40.5997 6.95 40.8164 7.13333 40.8164 7.5C40.8164 7.86667 40.6331 8.2 40.2664 8.5C40.2331 8.53333 39.9831 8.85 39.5164 9.45C39.0497 10.0167 38.4331 10.7667 37.6664 11.7C36.9331 12.6333 36.0664 13.7167 35.0664 14.95C34.0664 16.1833 33.0164 17.5 31.9164 18.9H32.0664C35.4331 18.9 38.3997 18.6667 40.9664 18.2C43.5664 17.7333 45.7331 17.1167 47.4664 16.35C49.2331 15.5833 50.5664 14.7167 51.4664 13.75C52.3664 12.75 52.8164 11.7333 52.8164 10.7C52.8164 9.63333 52.3164 8.58333 51.3164 7.55C50.3497 6.48333 48.8497 5.55 46.8164 4.75C44.8164 3.91666 42.2831 3.25 39.2164 2.75C36.1831 2.25 32.5997 2 28.4664 2C25.0664 2 21.7164 2.2 18.4164 2.6C15.1497 3 12.2331 3.6 9.66641 4.4C7.09974 5.2 5.03307 6.18333 3.46641 7.35C1.86641 8.51667 1.06641 9.86667 1.06641 11.4C1.06641 11.9667 1.19974 12.4167 1.46641 12.75C1.73307 13.05 2.03307 13.3 2.36641 13.5C2.66641 13.7 2.94974 13.85 3.21641 13.95C3.48307 14.05 3.61641 14.15 3.61641 14.25C3.61641 14.5833 3.39974 14.75 2.96641 14.75C2.76641 14.75 2.49974 14.6833 2.16641 14.55C1.83307 14.4167 1.51641 14.2167 1.21641 13.95C0.916406 13.6833 0.666406 13.35 0.466405 12.95C0.233072 12.55 0.116405 12.0667 0.116405 11.5C0.116405 9.66666 0.966405 8.05 2.66641 6.65C4.36641 5.25 6.61641 4.08333 9.41641 3.15C12.1831 2.18333 15.3164 1.46667 18.8164 1C22.3497 0.499998 25.9331 0.249997 29.5664 0.249997C34.0331 0.249997 37.8997 0.516665 41.1664 1.05C44.4331 1.58333 47.1164 2.3 49.2164 3.2C51.3497 4.1 52.9164 5.11666 53.9164 6.25C54.9497 7.38333 55.4664 8.55 55.4664 9.75C55.4664 11.0167 54.9164 12.2667 53.8164 13.5C52.7497 14.7 51.1664 15.7833 49.0664 16.75C46.9997 17.7167 44.4497 18.5 41.4164 19.1C38.3831 19.7 34.9331 20 31.0664 20C30.9331 20.1333 30.8497 20.2333 30.8164 20.3C31.0164 20.3 31.6331 20.3833 32.6664 20.55C33.7331 20.6833 34.9997 20.9 36.4664 21.2C37.9664 21.5 39.5497 21.9 41.2164 22.4C42.9164 22.9 44.4831 23.5167 45.9164 24.25C47.3497 24.95 48.5331 25.8 49.4664 26.8C50.3997 27.7667 50.8664 28.9 50.8664 30.2C50.8664 31.1333 50.5831 32.15 50.0164 33.25C49.4497 34.35 48.4831 35.5333 47.1164 36.8C47.0497 36.8667 47.0164 36.9 47.0164 36.9C47.0164 36.9333 47.0664 36.95 47.1664 36.95C47.2664 36.9833 47.3664 37 47.4664 37C47.4997 37 47.7497 37 48.2164 37C48.6831 37 49.2497 37 49.9164 37C50.6164 37 51.3664 37 52.1664 37C52.9664 37 53.7331 37 54.4664 37C55.1997 37.0333 55.8497 37.05 56.4164 37.05C56.9831 37.0833 57.3664 37.1 57.5664 37.1C57.7331 37.1333 57.8831 37.1667 58.0164 37.2C58.1831 37.2333 58.2664 37.3167 58.2664 37.45ZM70.6336 32.05C70.6336 32.1833 70.5836 32.2833 70.4836 32.35L68.2336 33.25C67.9003 33.3833 67.4669 33.5667 66.9336 33.8C66.4336 34 65.8836 34.2 65.2836 34.4C64.6836 34.6 64.1003 34.7833 63.5336 34.95C62.9669 35.0833 62.4669 35.15 62.0336 35.15C61.3336 35.15 60.9836 34.9333 60.9836 34.5C60.9836 34.3667 61.0003 34.2 61.0336 34C61.1003 33.7667 61.2169 33.5333 61.3836 33.3C61.1169 33.5 60.7503 33.7333 60.2836 34C59.8169 34.2333 59.3169 34.4667 58.7836 34.7C58.2503 34.9 57.7003 35.0833 57.1336 35.25C56.6003 35.4167 56.1169 35.5 55.6836 35.5C55.0503 35.5 54.6003 35.3667 54.3336 35.1C54.0336 34.8667 53.8836 34.5667 53.8836 34.2C53.8836 33.5667 54.2169 32.7833 54.8836 31.85C55.5503 30.9167 56.4003 30.0333 57.4336 29.2C58.4669 28.3333 59.6003 27.6 60.8336 27C62.0669 26.4 63.2503 26.1 64.3836 26.1C64.9503 26.1 65.3503 26.2 65.5836 26.4C65.8169 26.6 65.9336 26.8833 65.9336 27.25C65.9336 27.7833 65.6836 28.2667 65.1836 28.7C64.7169 29.1333 64.2669 29.4833 63.8336 29.75C63.7003 29.8167 63.6003 29.85 63.5336 29.85C63.4669 29.85 63.3669 29.8167 63.2336 29.75C63.1336 29.65 63.0836 29.5333 63.0836 29.4C63.0836 29.2333 63.2169 28.9833 63.4836 28.65C63.6169 28.5167 63.7669 28.3333 63.9336 28.1C64.1336 27.8333 64.2336 27.6167 64.2336 27.45C64.2336 27.3167 64.1669 27.2167 64.0336 27.15C63.9336 27.05 63.7003 27 63.3336 27C62.7669 27 62.0669 27.2167 61.2336 27.65C60.4003 28.05 59.6003 28.5667 58.8336 29.2C58.0669 29.8 57.4003 30.4333 56.8336 31.1C56.3003 31.7667 56.0336 32.35 56.0336 32.85C56.0336 33.2167 56.1836 33.5 56.4836 33.7C56.7836 33.8667 57.1169 33.95 57.4836 33.95C57.8503 33.95 58.2669 33.8667 58.7336 33.7C59.2003 33.5333 59.6503 33.35 60.0836 33.15C60.5169 32.95 60.9003 32.75 61.2336 32.55C61.6003 32.3167 61.8336 32.15 61.9336 32.05C62.0003 31.9833 62.1003 31.8833 62.2336 31.75C62.3669 31.6167 62.5003 31.55 62.6336 31.55C62.7003 31.55 62.8003 31.5833 62.9336 31.65C63.0669 31.7167 63.1336 31.8333 63.1336 32C62.9669 32.2667 62.8503 32.5 62.7836 32.7C62.7169 32.9 62.6836 33.0833 62.6836 33.25C62.6836 33.6833 62.9836 33.9 63.5836 33.9C63.9503 33.9 64.3503 33.85 64.7836 33.75C65.2503 33.6167 65.7003 33.4833 66.1336 33.35C66.6003 33.1833 67.0169 33.0333 67.3836 32.9C67.7836 32.7333 68.0836 32.6167 68.2836 32.55C68.9503 32.2833 69.4503 32.0833 69.7836 31.95C69.9836 31.85 70.1836 31.7667 70.3836 31.7C70.4503 31.7 70.5003 31.75 70.5336 31.85C70.6003 31.9167 70.6336 31.9833 70.6336 32.05ZM101.088 2.45C101.088 3.45 100.605 4.75 99.6379 6.35C98.6712 7.95 97.3879 9.7 95.7879 11.6C94.2212 13.4667 92.4046 15.4 90.3379 17.4C88.3046 19.4 86.2212 21.3167 84.0879 23.15C81.9546 24.95 79.8379 26.5833 77.7379 28.05C75.6712 29.5167 73.8046 30.65 72.1379 31.45C72.1712 32.6167 72.4379 33.4333 72.9379 33.9C73.4712 34.3667 74.0879 34.6 74.7879 34.6C75.4546 34.6 76.1046 34.45 76.7379 34.15C77.3712 33.8167 77.9379 33.4 78.4379 32.9C78.9379 32.4 79.3379 31.85 79.6379 31.25C79.9379 30.65 80.0879 30.0833 80.0879 29.55C80.0879 29.2833 80.0712 29.0667 80.0379 28.9C80.0046 28.7333 79.9879 28.5667 79.9879 28.4C79.9879 28.2 80.0546 28.0833 80.1879 28.05C80.3546 27.9833 80.5212 27.95 80.6879 27.95C80.7546 27.95 81.1046 27.95 81.7379 27.95C82.4046 27.95 83.1879 27.9667 84.0879 28C85.0212 28 86.0212 28 87.0879 28C88.1546 28 89.1546 28 90.0879 28C90.3879 28 90.5379 28.0667 90.5379 28.2C90.5379 28.3667 90.3879 28.6333 90.0879 29C89.7546 29.4333 89.3879 29.65 88.9879 29.65C88.9546 29.65 88.8879 29.65 88.7879 29.65C88.6879 29.65 88.3879 29.65 87.8879 29.65C87.4212 29.6167 86.6712 29.6 85.6379 29.6C84.6046 29.6 83.1546 29.6 81.2879 29.6C81.1212 30.3667 80.7712 31.1333 80.2379 31.9C79.7046 32.6667 79.0712 33.35 78.3379 33.95C77.6379 34.55 76.8879 35.0333 76.0879 35.4C75.2879 35.8 74.5212 36 73.7879 36C72.6212 36 71.7212 35.6333 71.0879 34.9C70.4546 34.1667 70.1379 33.2167 70.1379 32.05C70.1379 30.35 70.6212 28.4 71.5879 26.2C72.5879 23.9667 73.8879 21.6833 75.4879 19.35C77.1212 17.0167 78.9546 14.7333 80.9879 12.5C83.0212 10.2333 85.0879 8.23333 87.1879 6.5C89.3212 4.73333 91.3879 3.31667 93.3879 2.25C95.3879 1.15 97.1379 0.599999 98.6379 0.599999C100.271 0.599999 101.088 1.21667 101.088 2.45ZM98.7379 3.3C98.7379 2.3 98.1879 1.8 97.0879 1.8C96.0212 1.8 94.6712 2.3 93.0379 3.3C91.4046 4.26667 89.6712 5.55 87.8379 7.15C86.0379 8.75 84.2212 10.5833 82.3879 12.65C80.5546 14.6833 78.8879 16.7833 77.3879 18.95C75.9212 21.0833 74.7046 23.1833 73.7379 25.25C72.7712 27.2833 72.2379 29.1167 72.1379 30.75C74.2379 29.6167 76.3546 28.2667 78.4879 26.7C80.6546 25.1 82.7212 23.4333 84.6879 21.7C86.6546 19.9333 88.4879 18.1333 90.1879 16.3C91.9212 14.4667 93.4046 12.7333 94.6379 11.1C95.9046 9.43333 96.9046 7.91667 97.6379 6.55C98.3712 5.18333 98.7379 4.1 98.7379 3.3ZM104.175 38.2C104.175 38.6333 103.825 38.85 103.125 38.85C102.792 38.7833 102.208 38.7167 101.375 38.65C100.575 38.6167 99.675 38.6 98.675 38.6C97.7417 38.6 96.8417 38.6167 95.975 38.65C95.1083 38.7167 94.2417 38.8167 93.375 38.95C91.475 41.55 89.575 44.1 87.675 46.6C85.7417 49.1 83.9083 51.3167 82.175 53.25C80.4083 55.2167 78.775 56.8 77.275 58C75.7417 59.2 74.425 59.8 73.325 59.8C72.525 59.8 71.9583 59.4833 71.625 58.85C71.2583 58.2167 71.075 57.5167 71.075 56.75C71.075 54.5167 71.7083 52.4 72.975 50.4C74.2083 48.4 75.8583 46.5667 77.925 44.9C79.9583 43.2667 82.2917 41.85 84.925 40.65C87.5583 39.4833 90.2417 38.6 92.975 38C93.8417 36.8333 94.625 35.7333 95.325 34.7C96.0583 33.6333 96.7083 32.6667 97.275 31.8C97.3083 31.7667 97.325 31.7333 97.325 31.7C97.325 31.6 97.2917 31.55 97.225 31.55C97.1917 31.55 97.1417 31.5833 97.075 31.65C96.7417 31.9167 96.275 32.2167 95.675 32.55C95.1083 32.8833 94.5083 33.2 93.875 33.5C93.2417 33.7667 92.6083 34 91.975 34.2C91.375 34.4 90.875 34.5 90.475 34.5C89.4417 34.5 88.925 34.0167 88.925 33.05C88.925 32.65 89.1083 32.15 89.475 31.55C89.875 30.95 90.325 30.35 90.825 29.75C91.3583 29.15 91.8583 28.6167 92.325 28.15C92.825 27.65 93.175 27.3333 93.375 27.2C93.375 27.1667 93.3917 27.15 93.425 27.15H93.625C93.7917 27.15 93.925 27.2 94.025 27.3C94.0583 27.3333 94.075 27.3833 94.075 27.45C92.9083 28.6167 92.125 29.5833 91.725 30.35C91.325 31.0833 91.125 31.65 91.125 32.05C91.125 32.3167 91.1917 32.5333 91.325 32.7C91.4917 32.8667 91.6583 32.9833 91.825 33.05C92.025 33.15 92.2417 33.2 92.475 33.2C93.175 33.2 94.0083 32.9167 94.975 32.35C95.9417 31.7833 96.875 31.15 97.775 30.45C98.675 29.75 99.4583 29.1 100.125 28.5C100.792 27.9 101.158 27.55 101.225 27.45C101.325 27.35 101.408 27.3 101.475 27.3C101.575 27.3 101.625 27.3667 101.625 27.5C101.625 27.7333 101.525 27.9667 101.325 28.2C100.192 29.7 99.025 31.25 97.825 32.85C96.6583 34.45 95.475 36.0833 94.275 37.75C95.2417 37.5833 96.1917 37.45 97.125 37.35C98.0583 37.2833 98.9917 37.25 99.925 37.25C100.658 37.25 101.292 37.25 101.825 37.25C102.358 37.2833 102.808 37.3 103.175 37.3C103.642 37.3 103.925 37.3833 104.025 37.55C104.125 37.7167 104.175 37.9333 104.175 38.2ZM92.175 39.2C89.2083 39.7667 86.5417 40.65 84.175 41.85C81.775 43.05 79.7583 44.4333 78.125 46C76.4583 47.5667 75.1917 49.2333 74.325 51C73.425 52.8 72.975 54.55 72.975 56.25C72.975 56.7167 73.1083 57.2 73.375 57.7C73.6417 58.2 74.0583 58.45 74.625 58.45C75.0917 58.45 75.7083 58.1667 76.475 57.6C77.2083 57.0667 78.0583 56.3333 79.025 55.4C79.9583 54.4667 80.975 53.3667 82.075 52.1C83.175 50.8333 84.3083 49.4833 85.475 48.05C86.6083 46.6167 87.7417 45.15 88.875 43.65C90.0417 42.15 91.1417 40.6667 92.175 39.2ZM165.979 34.55C165.979 34.6833 165.929 34.8333 165.829 35C165.729 35.2 165.595 35.3833 165.429 35.55C165.262 35.7167 165.079 35.85 164.879 35.95C164.712 36.0833 164.529 36.15 164.329 36.15H115.479C114.745 36.15 114.379 36.0167 114.379 35.75C114.379 35.45 114.645 35.0833 115.179 34.65C115.712 34.1833 116.362 33.95 117.129 33.95C117.229 33.95 117.962 33.95 119.329 33.95C120.729 33.95 122.462 33.95 124.529 33.95C126.595 33.9167 128.829 33.9 131.229 33.9C133.662 33.8667 135.962 33.85 138.129 33.85C140.329 33.8167 142.229 33.8 143.829 33.8C145.429 33.8 146.445 33.8 146.879 33.8C147.579 33.8 148.445 33.7167 149.479 33.55C150.512 33.35 151.512 33.0333 152.479 32.6C153.445 32.1333 154.262 31.55 154.929 30.85C155.629 30.1167 155.979 29.2333 155.979 28.2C155.979 26.9667 155.412 25.8333 154.279 24.8C153.145 23.7667 151.645 22.8333 149.779 22C147.912 21.1333 145.779 20.3333 143.379 19.6C141.012 18.8667 138.579 18.1833 136.079 17.55C133.612 16.8833 131.179 16.25 128.779 15.65C126.412 15.05 124.295 14.45 122.429 13.85C120.562 13.2167 119.062 12.5667 117.929 11.9C116.795 11.2333 116.229 10.5167 116.229 9.75C116.229 9.38333 116.479 8.9 116.979 8.3C117.512 7.66666 118.395 7 119.629 6.3C120.862 5.6 122.495 4.9 124.529 4.2C126.562 3.46667 129.079 2.81667 132.079 2.25C135.079 1.68333 138.612 1.21666 142.679 0.849999C146.779 0.483333 151.495 0.3 156.829 0.3C158.362 0.3 159.612 0.383333 160.579 0.549999C161.579 0.683331 162.362 0.866664 162.929 1.1C163.529 1.3 163.929 1.53333 164.129 1.8C164.362 2.03333 164.479 2.23333 164.479 2.4C164.479 2.63333 164.329 2.83333 164.029 3C163.729 3.13333 163.379 3.25 162.979 3.35C162.579 3.41666 162.179 3.46666 161.779 3.5C161.412 3.5 161.129 3.5 160.929 3.5C160.762 3.5 160.629 3.48333 160.529 3.45C160.429 3.38333 160.379 3.25 160.379 3.05C160.379 2.88333 160.245 2.75 159.979 2.65C159.745 2.51667 159.312 2.41666 158.679 2.35C158.079 2.25 157.245 2.18333 156.179 2.15C155.145 2.08333 153.812 2.05 152.179 2.05C146.279 2.05 141.212 2.28333 136.979 2.75C132.745 3.21666 129.245 3.78333 126.479 4.45C123.745 5.08333 121.729 5.76667 120.429 6.5C119.129 7.23333 118.479 7.85 118.479 8.35C118.479 9.05 119.045 9.71667 120.179 10.35C121.312 10.95 122.812 11.5667 124.679 12.2C126.545 12.8 128.662 13.4167 131.029 14.05C133.395 14.6833 135.812 15.3333 138.279 16C140.779 16.6667 143.212 17.3833 145.579 18.15C147.945 18.9167 150.062 19.75 151.929 20.65C153.795 21.55 155.295 22.5333 156.429 23.6C157.562 24.6667 158.129 25.8333 158.129 27.1C158.129 28.1 157.862 28.9833 157.329 29.75C156.829 30.4833 156.212 31.1333 155.479 31.7C154.745 32.2667 153.962 32.7333 153.129 33.1C152.295 33.4667 151.562 33.7833 150.929 34.05C152.295 34.05 153.645 34.0667 154.979 34.1C156.145 34.1333 157.362 34.15 158.629 34.15C159.929 34.15 161.095 34.15 162.129 34.15C162.829 34.15 163.429 34.15 163.929 34.15C164.462 34.1167 164.812 34.1 164.979 34.1C165.645 34.1 165.979 34.25 165.979 34.55ZM180.424 32.05C180.424 32.1833 180.374 32.2833 180.274 32.35C178.908 32.9167 177.574 33.4167 176.274 33.85C175.174 34.2167 174.024 34.5667 172.824 34.9C171.658 35.2333 170.674 35.4 169.874 35.4C169.208 35.4 168.658 35.25 168.224 34.95C167.824 34.6167 167.624 34.2 167.624 33.7C167.624 33.2333 167.774 32.8 168.074 32.4C168.374 32 168.691 31.65 169.024 31.35C169.391 31.05 169.708 30.8 169.974 30.6C170.274 30.4 170.424 30.2833 170.424 30.25C170.424 30.1833 170.291 30.1333 170.024 30.1C169.791 30.0667 169.374 30 168.774 29.9C168.408 29.8333 168.158 29.7333 168.024 29.6C167.924 29.4333 167.874 29.2667 167.874 29.1C167.874 28.8667 167.941 28.6667 168.074 28.5C168.241 28.3 168.358 28.1667 168.424 28.1C169.091 27.6667 169.874 27.2333 170.774 26.8C171.674 26.3667 172.558 25.9833 173.424 25.65C174.324 25.3167 175.141 25.05 175.874 24.85C176.608 24.65 177.124 24.55 177.424 24.55C177.758 24.55 178.058 24.6333 178.324 24.8C178.624 24.9333 178.774 25.1833 178.774 25.55C178.774 25.7167 178.691 25.9 178.524 26.1C178.358 26.2667 178.158 26.4333 177.924 26.6C177.691 26.7333 177.441 26.85 177.174 26.95C176.908 27.05 176.674 27.1 176.474 27.1C176.308 27.1 176.141 27.0667 175.974 27C175.841 26.9333 175.774 26.8167 175.774 26.65C175.774 26.45 175.858 26.2333 176.024 26C176.091 25.9333 176.124 25.8667 176.124 25.8C176.124 25.7333 176.041 25.7 175.874 25.7C175.808 25.7 175.708 25.7167 175.574 25.75C175.441 25.75 175.291 25.7667 175.124 25.8C174.858 25.8667 174.474 26 173.974 26.2C173.474 26.3667 172.974 26.5667 172.474 26.8C171.974 27.0333 171.524 27.25 171.124 27.45C170.724 27.65 170.474 27.7833 170.374 27.85C170.241 27.95 170.174 28.05 170.174 28.15C170.174 28.3167 170.274 28.4333 170.474 28.5C170.508 28.5 170.624 28.5167 170.824 28.55C171.024 28.55 171.241 28.5667 171.474 28.6C171.708 28.6 171.924 28.6 172.124 28.6C172.358 28.6 172.524 28.6 172.624 28.6C172.991 28.6333 173.208 28.7 173.274 28.8C173.341 28.9 173.374 29.0667 173.374 29.3C173.374 29.4667 173.341 29.6333 173.274 29.8C173.208 29.9667 172.991 30.0833 172.624 30.15C171.924 30.3167 171.241 30.6 170.574 31C169.941 31.4 169.624 31.9333 169.624 32.6C169.624 33.0667 169.874 33.4167 170.374 33.65C170.908 33.85 171.408 33.95 171.874 33.95C172.741 33.95 173.658 33.8333 174.624 33.6C175.591 33.3333 176.491 33.0667 177.324 32.8C178.291 32.4667 179.241 32.1 180.174 31.7C180.241 31.7 180.291 31.75 180.324 31.85C180.391 31.9167 180.424 31.9833 180.424 32.05ZM193.096 32.05C193.096 32.1833 193.046 32.2833 192.946 32.35C191.58 32.9167 190.246 33.4167 188.946 33.85C187.846 34.2167 186.696 34.5667 185.496 34.9C184.33 35.2333 183.346 35.4 182.546 35.4C181.78 35.4 181.08 35.15 180.446 34.65C179.813 34.15 179.496 33.4333 179.496 32.5C179.496 31.6333 179.813 30.7667 180.446 29.9C181.08 29 181.846 28.2 182.746 27.5C183.68 26.8 184.663 26.2333 185.696 25.8C186.73 25.3333 187.663 25.1 188.496 25.1C188.73 25.1 188.93 25.15 189.096 25.25C189.463 25.4167 189.646 25.7833 189.646 26.35C189.646 26.6833 189.513 27.0167 189.246 27.35C189.013 27.6833 188.746 27.9833 188.446 28.25C188.08 28.55 187.68 28.8333 187.246 29.1C187.213 29.1 187.146 29.1167 187.046 29.15C186.846 29.2167 186.63 29.25 186.396 29.25C186.23 29.25 186.146 29.1333 186.146 28.9C186.146 28.7333 186.246 28.55 186.446 28.35C186.713 28.1833 187.046 27.8833 187.446 27.45C187.88 27.0167 188.096 26.6333 188.096 26.3C188.096 26.0667 187.896 25.95 187.496 25.95C186.996 25.95 186.396 26.1333 185.696 26.5C184.996 26.8333 184.313 27.2667 183.646 27.8C183.013 28.3 182.463 28.8833 181.996 29.55C181.563 30.1833 181.346 30.8 181.346 31.4C181.346 32.2 181.613 32.8333 182.146 33.3C182.713 33.7333 183.513 33.95 184.546 33.95C185.413 33.95 186.33 33.8333 187.296 33.6C188.263 33.3333 189.163 33.0667 189.996 32.8C190.963 32.4667 191.913 32.1 192.846 31.7C192.913 31.7 192.963 31.75 192.996 31.85C193.063 31.9167 193.096 31.9833 193.096 32.05ZM209.248 32.05C209.248 32.1833 209.198 32.2833 209.098 32.35C207.964 32.85 206.848 33.2833 205.748 33.65C204.781 33.9833 203.764 34.3 202.698 34.6C201.664 34.8667 200.748 35 199.948 35C198.948 34.9 198.448 34.4833 198.448 33.75C198.448 33.3167 198.598 32.8333 198.898 32.3C199.198 31.7333 199.548 31.2 199.948 30.7C200.348 30.2 200.731 29.7667 201.098 29.4C201.498 29 201.781 28.7667 201.948 28.7C201.714 28.7333 201.164 28.8 200.298 28.9C199.464 29 198.598 29.0833 197.698 29.15C197.498 29.45 197.164 29.7833 196.698 30.15C196.264 30.4833 195.798 30.8 195.298 31.1C194.798 31.4 194.314 31.6667 193.848 31.9C193.414 32.1333 193.098 32.3 192.898 32.4C192.664 32.5 192.398 32.6 192.098 32.7C191.831 32.8 191.548 32.9167 191.248 33.05C191.181 33.05 191.131 33.0167 191.098 32.95C191.031 32.85 190.998 32.7667 190.998 32.7C190.998 32.5667 191.031 32.4833 191.098 32.45C191.364 32.35 191.614 32.25 191.848 32.15C192.114 32.05 192.348 31.95 192.548 31.85C193.514 31.4167 194.364 30.95 195.098 30.45C195.831 29.95 196.331 29.5167 196.598 29.15C196.131 29.15 195.764 29.1167 195.498 29.05C195.264 28.95 195.081 28.85 194.948 28.75C194.814 28.6167 194.731 28.5 194.698 28.4C194.698 28.1 194.864 27.7333 195.198 27.3C195.564 26.8667 195.981 26.4667 196.448 26.1C196.948 25.7333 197.448 25.4167 197.948 25.15C198.448 24.8833 198.848 24.75 199.148 24.75C199.348 24.75 199.481 24.8333 199.548 25C199.614 25.1333 199.648 25.2833 199.648 25.45C199.648 25.6167 199.581 25.7667 199.448 25.9C199.381 25.9667 199.248 26.0833 199.048 26.25C198.881 26.4167 198.698 26.6 198.498 26.8C198.298 26.9667 198.114 27.1333 197.948 27.3C197.814 27.4333 197.748 27.5167 197.748 27.55C197.748 27.5833 197.831 27.6167 197.998 27.65C198.164 27.6833 198.514 27.7 199.048 27.7C199.214 27.7 199.464 27.7 199.798 27.7C200.131 27.7 200.514 27.6833 200.948 27.65C201.381 27.5833 201.814 27.5167 202.248 27.45C202.714 27.35 203.148 27.2333 203.548 27.1C203.648 27.1 203.748 27.1667 203.848 27.3C203.948 27.4 203.998 27.5167 203.998 27.65C203.998 28.0833 203.814 28.35 203.448 28.45C203.214 28.6167 202.914 28.8667 202.548 29.2C202.181 29.5 201.831 29.85 201.498 30.25C201.164 30.65 200.864 31.05 200.598 31.45C200.364 31.85 200.248 32.2167 200.248 32.55C200.248 32.85 200.364 33.1 200.598 33.3C200.864 33.4667 201.314 33.55 201.948 33.55C202.814 33.55 203.664 33.45 204.498 33.25C205.331 33.05 206.081 32.8333 206.748 32.6C207.548 32.3333 208.298 32.0333 208.998 31.7C209.064 31.7 209.114 31.75 209.148 31.85C209.214 31.9167 209.248 31.9833 209.248 32.05ZM220.561 32.05C220.561 32.1833 220.511 32.2833 220.411 32.35C219.044 32.9167 217.711 33.4167 216.411 33.85C215.311 34.2167 214.161 34.5667 212.961 34.9C211.794 35.2333 210.811 35.4 210.011 35.4C209.344 35.4 208.794 35.25 208.361 34.95C207.961 34.6167 207.761 34.2 207.761 33.7C207.761 33.2333 207.911 32.8 208.211 32.4C208.511 32 208.828 31.65 209.161 31.35C209.528 31.05 209.844 30.8 210.111 30.6C210.411 30.4 210.561 30.2833 210.561 30.25C210.561 30.1833 210.428 30.1333 210.161 30.1C209.928 30.0667 209.511 30 208.911 29.9C208.544 29.8333 208.294 29.7333 208.161 29.6C208.061 29.4333 208.011 29.2667 208.011 29.1C208.011 28.8667 208.078 28.6667 208.211 28.5C208.378 28.3 208.494 28.1667 208.561 28.1C209.228 27.6667 210.011 27.2333 210.911 26.8C211.811 26.3667 212.694 25.9833 213.561 25.65C214.461 25.3167 215.278 25.05 216.011 24.85C216.744 24.65 217.261 24.55 217.561 24.55C217.894 24.55 218.194 24.6333 218.461 24.8C218.761 24.9333 218.911 25.1833 218.911 25.55C218.911 25.7167 218.828 25.9 218.661 26.1C218.494 26.2667 218.294 26.4333 218.061 26.6C217.828 26.7333 217.578 26.85 217.311 26.95C217.044 27.05 216.811 27.1 216.611 27.1C216.444 27.1 216.278 27.0667 216.111 27C215.978 26.9333 215.911 26.8167 215.911 26.65C215.911 26.45 215.994 26.2333 216.161 26C216.228 25.9333 216.261 25.8667 216.261 25.8C216.261 25.7333 216.178 25.7 216.011 25.7C215.944 25.7 215.844 25.7167 215.711 25.75C215.578 25.75 215.428 25.7667 215.261 25.8C214.994 25.8667 214.611 26 214.111 26.2C213.611 26.3667 213.111 26.5667 212.611 26.8C212.111 27.0333 211.661 27.25 211.261 27.45C210.861 27.65 210.611 27.7833 210.511 27.85C210.378 27.95 210.311 28.05 210.311 28.15C210.311 28.3167 210.411 28.4333 210.611 28.5C210.644 28.5 210.761 28.5167 210.961 28.55C211.161 28.55 211.378 28.5667 211.611 28.6C211.844 28.6 212.061 28.6 212.261 28.6C212.494 28.6 212.661 28.6 212.761 28.6C213.128 28.6333 213.344 28.7 213.411 28.8C213.478 28.9 213.511 29.0667 213.511 29.3C213.511 29.4667 213.478 29.6333 213.411 29.8C213.344 29.9667 213.128 30.0833 212.761 30.15C212.061 30.3167 211.378 30.6 210.711 31C210.078 31.4 209.761 31.9333 209.761 32.6C209.761 33.0667 210.011 33.4167 210.511 33.65C211.044 33.85 211.544 33.95 212.011 33.95C212.878 33.95 213.794 33.8333 214.761 33.6C215.728 33.3333 216.628 33.0667 217.461 32.8C218.428 32.4667 219.378 32.1 220.311 31.7C220.378 31.7 220.428 31.75 220.461 31.85C220.528 31.9167 220.561 31.9833 220.561 32.05ZM262.083 16.6C262.017 16.8667 261.883 17.0667 261.683 17.2C261.483 17.3 261.1 17.3833 260.533 17.45C260.367 17.45 259.75 17.4667 258.683 17.5C257.617 17.5 256.2 17.5167 254.433 17.55C252.7 17.5833 250.65 17.6167 248.283 17.65C245.917 17.65 243.35 17.65 240.583 17.65C239.05 19.0167 237.417 20.3833 235.683 21.75C233.95 23.1167 232.25 24.4 230.583 25.6C228.917 26.8 227.35 27.9 225.883 28.9C224.417 29.8667 223.167 30.6667 222.133 31.3C221.567 32.5667 221.133 33.7667 220.833 34.9C220.533 36 220.383 36.9833 220.383 37.85C220.383 38.0833 220.333 38.2833 220.233 38.45C220.167 38.65 219.967 38.7833 219.633 38.85C219.533 38.8833 219.4 38.9 219.233 38.9C218.867 38.9 218.617 38.7833 218.483 38.55C218.317 38.35 218.233 38.1167 218.233 37.85C218.267 37.15 218.567 36.0833 219.133 34.65C219.733 33.2167 220.533 31.5833 221.533 29.75C222.533 27.8833 223.7 25.9167 225.033 23.85C226.367 21.75 227.783 19.7 229.283 17.7H212.833C212.467 17.7 212.117 17.6833 211.783 17.65C211.45 17.5833 211.283 17.4167 211.283 17.15C211.283 17.0833 211.333 16.9833 211.433 16.85C211.5 16.6833 211.567 16.5333 211.633 16.4C211.667 16.3333 211.75 16.25 211.883 16.15C212.117 15.9833 212.55 15.9 213.183 15.9H219.433C221.233 15.9 223.133 15.9167 225.133 15.95C227.133 15.95 228.967 15.95 230.633 15.95C231.9 14.35 233.183 12.85 234.483 11.45C235.817 10.05 237.133 8.83333 238.433 7.8C239.733 6.73333 241 5.9 242.233 5.3C243.467 4.66666 244.633 4.35 245.733 4.35C246.6 4.35 247.233 4.53333 247.633 4.9C248.033 5.26667 248.233 6.05 248.233 7.25C248.233 8.38333 247.683 9.7 246.583 11.2C245.517 12.6667 244.133 14.2333 242.433 15.9C244.267 15.8667 246.2 15.8333 248.233 15.8C250.3 15.7667 252.217 15.75 253.983 15.75C255.783 15.7167 257.283 15.7 258.483 15.7C259.717 15.6667 260.4 15.65 260.533 15.65C260.9 15.65 261.25 15.75 261.583 15.95C261.917 16.1167 262.083 16.3333 262.083 16.6ZM246.233 7.4C246.233 6.96667 246.1 6.58333 245.833 6.25C245.6 5.88333 245.167 5.7 244.533 5.7C243.767 5.7 242.883 5.96666 241.883 6.5C240.883 7.03333 239.833 7.76667 238.733 8.7C237.633 9.6 236.483 10.6833 235.283 11.95C234.083 13.1833 232.9 14.5167 231.733 15.95C232.867 15.95 233.85 15.95 234.683 15.95C235.517 15.95 236.283 15.95 236.983 15.95C237.683 15.95 238.333 15.95 238.933 15.95C239.567 15.9167 240.2 15.9 240.833 15.9C242.433 14.2667 243.733 12.7167 244.733 11.25C245.733 9.75 246.233 8.46666 246.233 7.4ZM230.383 17.7C228.817 19.7333 227.35 21.8333 225.983 24C224.65 26.1667 223.517 28.25 222.583 30.25C223.583 29.65 224.75 28.9 226.083 28C227.417 27.1 228.817 26.1 230.283 25C231.783 23.8667 233.283 22.6833 234.783 21.45C236.283 20.1833 237.7 18.9167 239.033 17.65L230.383 17.7Z" fill="#1A1A1A"/>
</svg>
