<svg width="23" height="24" viewBox="0 0 23 24" fill="none" xmlns="http://www.w3.org/2000/svg">
<g clip-path="url(#clip0)">
<path d="M22.799 22.7761L17.2096 16.9437C18.709 15.145 19.6167 12.7982 19.6167 10.2333C19.6167 4.58714 15.2156 -1.90735e-06 9.80986 -1.90735e-06C4.399 -1.90735e-06 0.00299072 4.59246 0.00299072 10.2333C0.00299072 15.8741 4.4041 20.4665 9.80986 20.4665C12.268 20.4665 14.517 19.5193 16.2407 17.9548L21.83 23.7871C21.9626 23.9255 22.1411 24 22.3145 24C22.4879 24 22.6664 23.9308 22.799 23.7871C23.0642 23.5104 23.0642 23.0528 22.799 22.7761ZM1.37483 10.2333C1.37483 5.38004 5.15887 1.43681 9.80476 1.43681C14.4558 1.43681 18.2347 5.38536 18.2347 10.2333C18.2347 15.0812 14.4558 19.035 9.80476 19.035C5.15887 19.035 1.37483 15.0865 1.37483 10.2333Z" fill="#1A1A1A"/>
</g>
<defs>
<clipPath id="clip0">
<rect width="23" height="24" fill="white"/>
</clipPath>
</defs>
</svg>
