<svg width="420" height="96" viewBox="0 0 420 96" fill="none" xmlns="http://www.w3.org/2000/svg">
<path d="M93.7263 59.92C93.7263 60.2933 93.5129 60.8 93.0863 61.44C92.6596 62.08 92.1263 62.4 91.4863 62.4C91.3263 62.4 90.3663 62.4 88.6063 62.4C86.8463 62.4 84.5796 62.3733 81.8063 62.32C79.0863 62.32 75.9663 62.32 72.4462 62.32C68.9796 62.32 65.4329 62.2933 61.8063 62.24C58.2329 62.24 54.7129 62.24 51.2463 62.24C47.7796 62.24 44.6596 62.2133 41.8863 62.16C39.1663 62.16 36.9263 62.1333 35.1663 62.08C33.4063 62.08 32.4463 62.0533 32.2863 62C31.4329 61.84 31.0063 61.5467 31.0063 61.12C31.0063 60.8533 31.2463 60.48 31.7263 60C31.9929 59.7333 32.2329 59.4933 32.4463 59.28C32.6596 59.12 32.8729 58.9867 33.0863 58.88C33.3529 58.8267 33.6463 58.7733 33.9663 58.72C34.3396 58.72 34.8196 58.72 35.4062 58.72C35.7263 58.72 36.6863 58.72 38.2863 58.72C39.8863 58.7733 41.8063 58.8 44.0463 58.8C46.2863 58.8 48.7396 58.8267 51.4063 58.88C54.0729 58.9333 56.6329 58.96 59.0863 58.96C61.5396 58.96 63.7529 58.96 65.7263 58.96C67.6996 59.0133 69.1396 59.04 70.0463 59.04H70.1263C73.0063 56.96 75.0596 55.0133 76.2863 53.2C77.5663 51.3867 78.2063 49.7067 78.2063 48.16C78.2063 46.2933 77.3796 44.64 75.7263 43.2C74.1263 41.7067 71.9396 40.4 69.1663 39.28C66.4463 38.1067 63.2729 37.1467 59.6463 36.4C56.0196 35.6 52.2063 34.96 48.2063 34.48C45.6463 37.68 43.1129 40.8533 40.6063 44C38.0996 47.1467 35.8063 50 33.7263 52.56C31.6996 55.12 30.0196 57.2 28.6863 58.8C27.4063 60.4533 26.7129 61.3333 26.6063 61.44L26.2063 61.84C25.9396 62.1067 25.6996 62.24 25.4863 62.24C24.8996 62.24 24.6062 61.9733 24.6062 61.44C24.6062 61.0133 24.7929 60.6133 25.1662 60.24C25.2196 60.1867 25.8596 59.3867 27.0863 57.84C28.3129 56.2933 29.8863 54.2933 31.8063 51.84C33.7796 49.3867 35.9663 46.6133 38.3663 43.52C40.8196 40.4267 43.2729 37.3067 45.7263 34.16C42.9529 33.8933 40.1796 33.7067 37.4063 33.6C34.6863 33.44 31.9663 33.36 29.2463 33.36C28.5529 33.36 28.2063 33.04 28.2063 32.4C28.2063 32.24 28.2063 32.0533 28.2063 31.84C28.2596 31.6267 28.3929 31.3867 28.6063 31.12C28.9796 30.64 29.4863 30.3733 30.1263 30.32C30.8196 30.2133 31.2996 30.16 31.5663 30.16C31.7263 30.16 32.3929 30.16 33.5663 30.16C34.7929 30.16 36.2596 30.1867 37.9663 30.24C39.6729 30.24 41.4863 30.24 43.4063 30.24C45.3796 30.24 47.1663 30.24 48.7663 30.24C50.6329 27.8933 52.3929 25.6533 54.0463 23.52C55.6996 21.3867 57.1396 19.52 58.3663 17.92C59.6463 16.32 60.6596 15.0667 61.4063 14.16C62.1529 13.2 62.5529 12.6933 62.6063 12.64C62.7129 12.48 62.9796 12.1867 63.4063 11.76C63.8863 11.3333 64.3396 11.12 64.7663 11.12C65.4596 11.12 65.8062 11.4133 65.8062 12C65.8062 12.5867 65.5129 13.12 64.9263 13.6C64.8729 13.6533 64.4729 14.16 63.7263 15.12C62.9796 16.0267 61.9929 17.2267 60.7663 18.72C59.5929 20.2133 58.2063 21.9467 56.6063 23.92C55.0063 25.8933 53.3263 28 51.5663 30.24H51.8063C57.1929 30.24 61.9396 29.8667 66.0463 29.12C70.2063 28.3733 73.6729 27.3867 76.4463 26.16C79.2729 24.9333 81.4063 23.5467 82.8463 22C84.2863 20.4 85.0063 18.7733 85.0063 17.12C85.0063 15.4133 84.2063 13.7333 82.6063 12.08C81.0596 10.3733 78.6596 8.88 75.4062 7.6C72.2062 6.26666 68.1529 5.2 63.2463 4.4C58.3929 3.6 52.6596 3.2 46.0463 3.2C40.6063 3.2 35.2463 3.52 29.9663 4.16C24.7396 4.8 20.0729 5.76 15.9662 7.04C11.8596 8.32 8.55292 9.89333 6.04625 11.76C3.48625 13.6267 2.20625 15.7867 2.20625 18.24C2.20625 19.1467 2.41958 19.8667 2.84625 20.4C3.27292 20.88 3.75292 21.28 4.28625 21.6C4.76625 21.92 5.21958 22.16 5.64625 22.32C6.07292 22.48 6.28625 22.64 6.28625 22.8C6.28625 23.3333 5.93958 23.6 5.24625 23.6C4.92625 23.6 4.49958 23.4933 3.96625 23.28C3.43292 23.0667 2.92625 22.7467 2.44625 22.32C1.96625 21.8933 1.56625 21.36 1.24625 20.72C0.872915 20.08 0.686249 19.3067 0.686249 18.4C0.686249 15.4667 2.04625 12.88 4.76625 10.64C7.48625 8.4 11.0862 6.53333 15.5662 5.04C19.9929 3.49333 25.0062 2.34667 30.6063 1.6C36.2596 0.799997 41.9929 0.399996 47.8063 0.399996C54.9529 0.399996 61.1396 0.826663 66.3663 1.68C71.5929 2.53333 75.8863 3.68 79.2463 5.12C82.6596 6.56 85.1663 8.18666 86.7663 10C88.4196 11.8133 89.2463 13.68 89.2463 15.6C89.2463 17.6267 88.3663 19.6267 86.6063 21.6C84.8996 23.52 82.3663 25.2533 79.0063 26.8C75.6996 28.3467 71.6196 29.6 66.7663 30.56C61.9129 31.52 56.3929 32 50.2063 32C49.9929 32.2133 49.8596 32.3733 49.8063 32.48C50.1263 32.48 51.1129 32.6133 52.7663 32.88C54.4729 33.0933 56.4996 33.44 58.8463 33.92C61.2463 34.4 63.7796 35.04 66.4463 35.84C69.1663 36.64 71.6729 37.6267 73.9663 38.8C76.2596 39.92 78.1529 41.28 79.6463 42.88C81.1396 44.4267 81.8863 46.24 81.8863 48.32C81.8863 49.8133 81.4329 51.44 80.5263 53.2C79.6196 54.96 78.0729 56.8533 75.8863 58.88C75.7796 58.9867 75.7263 59.04 75.7263 59.04C75.7263 59.0933 75.8063 59.12 75.9663 59.12C76.1263 59.1733 76.2863 59.2 76.4463 59.2C76.4996 59.2 76.8996 59.2 77.6463 59.2C78.3929 59.2 79.2996 59.2 80.3663 59.2C81.4863 59.2 82.6863 59.2 83.9663 59.2C85.2463 59.2 86.4729 59.2 87.6463 59.2C88.8196 59.2533 89.8596 59.28 90.7663 59.28C91.6729 59.3333 92.2863 59.36 92.6063 59.36C92.8729 59.4133 93.1129 59.4667 93.3263 59.52C93.5929 59.5733 93.7263 59.7067 93.7263 59.92ZM113.514 51.28C113.514 51.4933 113.434 51.6533 113.274 51.76L109.674 53.2C109.14 53.4133 108.447 53.7067 107.594 54.08C106.794 54.4 105.914 54.72 104.954 55.04C103.994 55.36 103.06 55.6533 102.154 55.92C101.247 56.1333 100.447 56.24 99.7538 56.24C98.6338 56.24 98.0738 55.8933 98.0738 55.2C98.0738 54.9867 98.1004 54.72 98.1537 54.4C98.2604 54.0267 98.4471 53.6533 98.7138 53.28C98.2871 53.6 97.7004 53.9733 96.9538 54.4C96.2071 54.7733 95.4071 55.1467 94.5538 55.52C93.7004 55.84 92.8204 56.1333 91.9138 56.4C91.0604 56.6667 90.2871 56.8 89.5938 56.8C88.5804 56.8 87.8604 56.5867 87.4337 56.16C86.9537 55.7867 86.7137 55.3067 86.7137 54.72C86.7137 53.7067 87.2471 52.4533 88.3138 50.96C89.3804 49.4667 90.7404 48.0533 92.3938 46.72C94.0471 45.3333 95.8604 44.16 97.8338 43.2C99.8071 42.24 101.7 41.76 103.514 41.76C104.42 41.76 105.06 41.92 105.434 42.24C105.807 42.56 105.994 43.0133 105.994 43.6C105.994 44.4533 105.594 45.2267 104.794 45.92C104.047 46.6133 103.327 47.1733 102.634 47.6C102.42 47.7067 102.26 47.76 102.154 47.76C102.047 47.76 101.887 47.7067 101.674 47.6C101.514 47.44 101.434 47.2533 101.434 47.04C101.434 46.7733 101.647 46.3733 102.074 45.84C102.287 45.6267 102.527 45.3333 102.794 44.96C103.114 44.5333 103.274 44.1867 103.274 43.92C103.274 43.7067 103.167 43.5467 102.954 43.44C102.794 43.28 102.42 43.2 101.834 43.2C100.927 43.2 99.8071 43.5467 98.4738 44.24C97.1404 44.88 95.8604 45.7067 94.6338 46.72C93.4071 47.68 92.3404 48.6933 91.4338 49.76C90.5804 50.8267 90.1538 51.76 90.1538 52.56C90.1538 53.1467 90.3938 53.6 90.8738 53.92C91.3538 54.1867 91.8871 54.32 92.4738 54.32C93.0604 54.32 93.7271 54.1867 94.4738 53.92C95.2204 53.6533 95.9404 53.36 96.6338 53.04C97.3271 52.72 97.9404 52.4 98.4738 52.08C99.0604 51.7067 99.4338 51.44 99.5938 51.28C99.7004 51.1733 99.8604 51.0133 100.074 50.8C100.287 50.5867 100.5 50.48 100.714 50.48C100.82 50.48 100.98 50.5333 101.194 50.64C101.407 50.7467 101.514 50.9333 101.514 51.2C101.247 51.6267 101.06 52 100.954 52.32C100.847 52.64 100.794 52.9333 100.794 53.2C100.794 53.8933 101.274 54.24 102.234 54.24C102.82 54.24 103.46 54.16 104.154 54C104.9 53.7867 105.62 53.5733 106.314 53.36C107.06 53.0933 107.727 52.8533 108.314 52.64C108.954 52.3733 109.434 52.1867 109.754 52.08C110.82 51.6533 111.62 51.3333 112.154 51.12C112.474 50.96 112.794 50.8267 113.114 50.72C113.22 50.72 113.3 50.8 113.354 50.96C113.46 51.0667 113.514 51.1733 113.514 51.28ZM162.241 3.92C162.241 5.52 161.467 7.6 159.921 10.16C158.374 12.72 156.321 15.52 153.761 18.56C151.254 21.5467 148.347 24.64 145.041 27.84C141.787 31.04 138.454 34.1067 135.041 37.04C131.627 39.92 128.241 42.5333 124.881 44.88C121.574 47.2267 118.587 49.04 115.921 50.32C115.974 52.1867 116.401 53.4933 117.201 54.24C118.054 54.9867 119.041 55.36 120.161 55.36C121.227 55.36 122.267 55.12 123.281 54.64C124.294 54.1067 125.201 53.44 126.001 52.64C126.801 51.84 127.441 50.96 127.921 50C128.401 49.04 128.641 48.1333 128.641 47.28C128.641 46.8533 128.614 46.5067 128.561 46.24C128.507 45.9733 128.481 45.7067 128.481 45.44C128.481 45.12 128.587 44.9333 128.801 44.88C129.067 44.7733 129.334 44.72 129.601 44.72C129.707 44.72 130.267 44.72 131.281 44.72C132.347 44.72 133.601 44.7467 135.041 44.8C136.534 44.8 138.134 44.8 139.841 44.8C141.547 44.8 143.147 44.8 144.641 44.8C145.121 44.8 145.361 44.9067 145.361 45.12C145.361 45.3867 145.121 45.8133 144.641 46.4C144.107 47.0933 143.521 47.44 142.881 47.44C142.827 47.44 142.721 47.44 142.561 47.44C142.401 47.44 141.921 47.44 141.121 47.44C140.374 47.3867 139.174 47.36 137.521 47.36C135.867 47.36 133.547 47.36 130.561 47.36C130.294 48.5867 129.734 49.8133 128.881 51.04C128.027 52.2667 127.014 53.36 125.841 54.32C124.721 55.28 123.521 56.0533 122.241 56.64C120.961 57.28 119.734 57.6 118.561 57.6C116.694 57.6 115.254 57.0133 114.241 55.84C113.227 54.6667 112.721 53.1467 112.721 51.28C112.721 48.56 113.494 45.44 115.041 41.92C116.641 38.3467 118.721 34.6933 121.281 30.96C123.894 27.2267 126.827 23.5733 130.081 20C133.334 16.3733 136.641 13.1733 140.001 10.4C143.414 7.57333 146.721 5.30666 149.921 3.6C153.121 1.84 155.921 0.959998 158.321 0.959998C160.934 0.959998 162.241 1.94666 162.241 3.92ZM158.481 5.28C158.481 3.68 157.601 2.88 155.841 2.88C154.134 2.88 151.974 3.68 149.361 5.28C146.747 6.82667 143.974 8.88 141.041 11.44C138.161 14 135.254 16.9333 132.321 20.24C129.387 23.4933 126.721 26.8533 124.321 30.32C121.974 33.7333 120.027 37.0933 118.481 40.4C116.934 43.6533 116.081 46.5867 115.921 49.2C119.281 47.3867 122.667 45.2267 126.081 42.72C129.547 40.16 132.854 37.4933 136.001 34.72C139.147 31.8933 142.081 29.0133 144.801 26.08C147.574 23.1467 149.947 20.3733 151.921 17.76C153.947 15.0933 155.547 12.6667 156.721 10.48C157.894 8.29333 158.481 6.56 158.481 5.28ZM167.18 61.12C167.18 61.8133 166.62 62.16 165.5 62.16C164.967 62.0533 164.033 61.9467 162.7 61.84C161.42 61.7867 159.98 61.76 158.38 61.76C156.887 61.76 155.447 61.7867 154.06 61.84C152.673 61.9467 151.287 62.1067 149.9 62.32C146.86 66.48 143.82 70.56 140.78 74.56C137.687 78.56 134.753 82.1067 131.98 85.2C129.153 88.3467 126.54 90.88 124.14 92.8C121.687 94.72 119.58 95.68 117.82 95.68C116.54 95.68 115.633 95.1733 115.1 94.16C114.513 93.1467 114.22 92.0267 114.22 90.8C114.22 87.2267 115.233 83.84 117.26 80.64C119.233 77.44 121.873 74.5067 125.18 71.84C128.433 69.2267 132.167 66.96 136.38 65.04C140.593 63.1733 144.887 61.76 149.26 60.8C150.647 58.9333 151.9 57.1733 153.02 55.52C154.193 53.8133 155.233 52.2667 156.14 50.88C156.193 50.8267 156.22 50.7733 156.22 50.72C156.22 50.56 156.167 50.48 156.06 50.48C156.007 50.48 155.927 50.5333 155.82 50.64C155.287 51.0667 154.54 51.5467 153.58 52.08C152.673 52.6133 151.713 53.12 150.7 53.6C149.687 54.0267 148.673 54.4 147.66 54.72C146.7 55.04 145.9 55.2 145.26 55.2C143.607 55.2 142.78 54.4267 142.78 52.88C142.78 52.24 143.073 51.44 143.66 50.48C144.3 49.52 145.02 48.56 145.82 47.6C146.673 46.64 147.473 45.7867 148.22 45.04C149.02 44.24 149.58 43.7333 149.9 43.52C149.9 43.4667 149.927 43.44 149.98 43.44H150.3C150.567 43.44 150.78 43.52 150.94 43.68C150.993 43.7333 151.02 43.8133 151.02 43.92C149.153 45.7867 147.9 47.3333 147.26 48.56C146.62 49.7333 146.3 50.64 146.3 51.28C146.3 51.7067 146.407 52.0533 146.62 52.32C146.887 52.5867 147.153 52.7733 147.42 52.88C147.74 53.04 148.087 53.12 148.46 53.12C149.58 53.12 150.913 52.6667 152.46 51.76C154.007 50.8533 155.5 49.84 156.94 48.72C158.38 47.6 159.633 46.56 160.7 45.6C161.767 44.64 162.353 44.08 162.46 43.92C162.62 43.76 162.753 43.68 162.86 43.68C163.02 43.68 163.1 43.7867 163.1 44C163.1 44.3733 162.94 44.7467 162.62 45.12C160.807 47.52 158.94 50 157.02 52.56C155.153 55.12 153.26 57.7333 151.34 60.4C152.887 60.1333 154.407 59.92 155.9 59.76C157.393 59.6533 158.887 59.6 160.38 59.6C161.553 59.6 162.567 59.6 163.42 59.6C164.273 59.6533 164.993 59.68 165.58 59.68C166.327 59.68 166.78 59.8133 166.94 60.08C167.1 60.3467 167.18 60.6933 167.18 61.12ZM147.98 62.72C143.233 63.6267 138.967 65.04 135.18 66.96C131.34 68.88 128.113 71.0933 125.5 73.6C122.833 76.1067 120.807 78.7733 119.42 81.6C117.98 84.48 117.26 87.28 117.26 90C117.26 90.7467 117.473 91.52 117.9 92.32C118.327 93.12 118.993 93.52 119.9 93.52C120.647 93.52 121.633 93.0667 122.86 92.16C124.033 91.3067 125.393 90.1333 126.94 88.64C128.433 87.1467 130.06 85.3867 131.82 83.36C133.58 81.3333 135.393 79.1733 137.26 76.88C139.073 74.5867 140.887 72.24 142.7 69.84C144.567 67.44 146.327 65.0667 147.98 62.72ZM266.066 55.28C266.066 55.4933 265.986 55.7333 265.826 56C265.666 56.32 265.452 56.6133 265.186 56.88C264.919 57.1467 264.626 57.36 264.306 57.52C264.039 57.7333 263.746 57.84 263.426 57.84H185.266C184.092 57.84 183.506 57.6267 183.506 57.2C183.506 56.72 183.932 56.1333 184.786 55.44C185.639 54.6933 186.679 54.32 187.906 54.32C188.066 54.32 189.239 54.32 191.426 54.32C193.666 54.32 196.439 54.32 199.746 54.32C203.052 54.2667 206.626 54.24 210.466 54.24C214.359 54.1867 218.039 54.16 221.506 54.16C225.026 54.1067 228.066 54.08 230.626 54.08C233.186 54.08 234.812 54.08 235.506 54.08C236.626 54.08 238.012 53.9467 239.666 53.68C241.319 53.36 242.919 52.8533 244.466 52.16C246.012 51.4133 247.319 50.48 248.386 49.36C249.506 48.1867 250.066 46.7733 250.066 45.12C250.066 43.1467 249.159 41.3333 247.346 39.68C245.532 38.0267 243.132 36.5333 240.146 35.2C237.159 33.8133 233.746 32.5333 229.906 31.36C226.119 30.1867 222.226 29.0933 218.226 28.08C214.279 27.0133 210.386 26 206.546 25.04C202.759 24.08 199.372 23.12 196.386 22.16C193.399 21.1467 190.999 20.1067 189.186 19.04C187.372 17.9733 186.466 16.8267 186.466 15.6C186.466 15.0133 186.866 14.24 187.666 13.28C188.519 12.2667 189.932 11.2 191.906 10.08C193.879 8.96 196.492 7.84 199.746 6.72C202.999 5.54666 207.026 4.50667 211.826 3.6C216.626 2.69333 222.279 1.94666 228.786 1.36C235.346 0.773332 242.892 0.48 251.426 0.48C253.879 0.48 255.879 0.613333 257.426 0.879999C259.026 1.09333 260.279 1.38666 261.186 1.76C262.146 2.08 262.786 2.45333 263.106 2.88C263.479 3.25333 263.666 3.57333 263.666 3.84C263.666 4.21333 263.426 4.53333 262.946 4.8C262.466 5.01333 261.906 5.2 261.266 5.36C260.626 5.46666 259.986 5.54666 259.346 5.6C258.759 5.6 258.306 5.6 257.986 5.6C257.719 5.6 257.506 5.57333 257.346 5.52C257.186 5.41333 257.106 5.2 257.106 4.88C257.106 4.61333 256.892 4.4 256.466 4.24C256.092 4.02667 255.399 3.86666 254.386 3.76C253.426 3.6 252.092 3.49333 250.386 3.44C248.732 3.33333 246.599 3.28 243.986 3.28C234.546 3.28 226.439 3.65333 219.666 4.4C212.892 5.14666 207.292 6.05333 202.866 7.12C198.492 8.13333 195.266 9.22666 193.186 10.4C191.106 11.5733 190.066 12.56 190.066 13.36C190.066 14.48 190.972 15.5467 192.786 16.56C194.599 17.52 196.999 18.5067 199.986 19.52C202.972 20.48 206.359 21.4667 210.146 22.48C213.932 23.4933 217.799 24.5333 221.746 25.6C225.746 26.6667 229.639 27.8133 233.426 29.04C237.212 30.2667 240.599 31.6 243.586 33.04C246.572 34.48 248.972 36.0533 250.786 37.76C252.599 39.4667 253.506 41.3333 253.506 43.36C253.506 44.96 253.079 46.3733 252.226 47.6C251.426 48.7733 250.439 49.8133 249.266 50.72C248.092 51.6267 246.839 52.3733 245.506 52.96C244.172 53.5467 242.999 54.0533 241.986 54.48C244.172 54.48 246.332 54.5067 248.466 54.56C250.332 54.6133 252.279 54.64 254.306 54.64C256.386 54.64 258.252 54.64 259.906 54.64C261.026 54.64 261.986 54.64 262.786 54.64C263.639 54.5867 264.199 54.56 264.466 54.56C265.532 54.56 266.066 54.8 266.066 55.28ZM289.179 51.28C289.179 51.4933 289.099 51.6533 288.939 51.76C286.752 52.6667 284.619 53.4667 282.539 54.16C280.779 54.7467 278.939 55.3067 277.019 55.84C275.152 56.3733 273.579 56.64 272.299 56.64C271.232 56.64 270.352 56.4 269.659 55.92C269.019 55.3867 268.699 54.72 268.699 53.92C268.699 53.1733 268.939 52.48 269.419 51.84C269.899 51.2 270.405 50.64 270.939 50.16C271.525 49.68 272.032 49.28 272.459 48.96C272.939 48.64 273.179 48.4533 273.179 48.4C273.179 48.2933 272.965 48.2133 272.539 48.16C272.165 48.1067 271.499 48 270.539 47.84C269.952 47.7333 269.552 47.5733 269.339 47.36C269.179 47.0933 269.099 46.8267 269.099 46.56C269.099 46.1867 269.205 45.8667 269.419 45.6C269.685 45.28 269.872 45.0667 269.979 44.96C271.045 44.2667 272.299 43.5733 273.739 42.88C275.179 42.1867 276.592 41.5733 277.979 41.04C279.419 40.5067 280.725 40.08 281.899 39.76C283.072 39.44 283.899 39.28 284.379 39.28C284.912 39.28 285.392 39.4133 285.819 39.68C286.299 39.8933 286.539 40.2933 286.539 40.88C286.539 41.1467 286.405 41.44 286.139 41.76C285.872 42.0267 285.552 42.2933 285.179 42.56C284.805 42.7733 284.405 42.96 283.979 43.12C283.552 43.28 283.179 43.36 282.859 43.36C282.592 43.36 282.325 43.3067 282.059 43.2C281.845 43.0933 281.739 42.9067 281.739 42.64C281.739 42.32 281.872 41.9733 282.139 41.6C282.245 41.4933 282.299 41.3867 282.299 41.28C282.299 41.1733 282.165 41.12 281.899 41.12C281.792 41.12 281.632 41.1467 281.419 41.2C281.205 41.2 280.965 41.2267 280.699 41.28C280.272 41.3867 279.659 41.6 278.859 41.92C278.059 42.1867 277.259 42.5067 276.459 42.88C275.659 43.2533 274.939 43.6 274.299 43.92C273.659 44.24 273.259 44.4533 273.099 44.56C272.885 44.72 272.779 44.88 272.779 45.04C272.779 45.3067 272.939 45.4933 273.259 45.6C273.312 45.6 273.499 45.6267 273.819 45.68C274.139 45.68 274.485 45.7067 274.859 45.76C275.232 45.76 275.579 45.76 275.899 45.76C276.272 45.76 276.539 45.76 276.699 45.76C277.285 45.8133 277.632 45.92 277.739 46.08C277.845 46.24 277.899 46.5067 277.899 46.88C277.899 47.1467 277.845 47.4133 277.739 47.68C277.632 47.9467 277.285 48.1333 276.699 48.24C275.579 48.5067 274.485 48.96 273.419 49.6C272.405 50.24 271.899 51.0933 271.899 52.16C271.899 52.9067 272.299 53.4667 273.099 53.84C273.952 54.16 274.752 54.32 275.499 54.32C276.885 54.32 278.352 54.1333 279.899 53.76C281.445 53.3333 282.885 52.9067 284.219 52.48C285.765 51.9467 287.285 51.36 288.779 50.72C288.885 50.72 288.965 50.8 289.019 50.96C289.125 51.0667 289.179 51.1733 289.179 51.28ZM309.454 51.28C309.454 51.4933 309.374 51.6533 309.214 51.76C307.028 52.6667 304.894 53.4667 302.814 54.16C301.054 54.7467 299.214 55.3067 297.294 55.84C295.428 56.3733 293.854 56.64 292.574 56.64C291.348 56.64 290.228 56.24 289.214 55.44C288.201 54.64 287.694 53.4933 287.694 52C287.694 50.6133 288.201 49.2267 289.214 47.84C290.228 46.4 291.454 45.12 292.894 44C294.388 42.88 295.961 41.9733 297.614 41.28C299.268 40.5333 300.761 40.16 302.094 40.16C302.468 40.16 302.788 40.24 303.054 40.4C303.641 40.6667 303.934 41.2533 303.934 42.16C303.934 42.6933 303.721 43.2267 303.294 43.76C302.921 44.2933 302.494 44.7733 302.014 45.2C301.428 45.68 300.788 46.1333 300.094 46.56C300.041 46.56 299.934 46.5867 299.774 46.64C299.454 46.7467 299.108 46.8 298.734 46.8C298.468 46.8 298.334 46.6133 298.334 46.24C298.334 45.9733 298.494 45.68 298.814 45.36C299.241 45.0933 299.774 44.6133 300.414 43.92C301.108 43.2267 301.454 42.6133 301.454 42.08C301.454 41.7067 301.134 41.52 300.494 41.52C299.694 41.52 298.734 41.8133 297.614 42.4C296.494 42.9333 295.401 43.6267 294.334 44.48C293.321 45.28 292.441 46.2133 291.694 47.28C291.001 48.2933 290.654 49.28 290.654 50.24C290.654 51.52 291.081 52.5333 291.934 53.28C292.841 53.9733 294.121 54.32 295.774 54.32C297.161 54.32 298.628 54.1333 300.174 53.76C301.721 53.3333 303.161 52.9067 304.494 52.48C306.041 51.9467 307.561 51.36 309.054 50.72C309.161 50.72 309.241 50.8 309.294 50.96C309.401 51.0667 309.454 51.1733 309.454 51.28ZM335.296 51.28C335.296 51.4933 335.216 51.6533 335.056 51.76C333.243 52.56 331.456 53.2533 329.696 53.84C328.15 54.3733 326.523 54.88 324.816 55.36C323.163 55.7867 321.696 56 320.416 56C318.816 55.84 318.016 55.1733 318.016 54C318.016 53.3067 318.256 52.5333 318.736 51.68C319.216 50.7733 319.776 49.92 320.416 49.12C321.056 48.32 321.67 47.6267 322.256 47.04C322.896 46.4 323.35 46.0267 323.616 45.92C323.243 45.9733 322.363 46.08 320.976 46.24C319.643 46.4 318.256 46.5333 316.816 46.64C316.496 47.12 315.963 47.6533 315.216 48.24C314.523 48.7733 313.776 49.28 312.976 49.76C312.176 50.24 311.403 50.6667 310.656 51.04C309.963 51.4133 309.456 51.68 309.136 51.84C308.763 52 308.336 52.16 307.856 52.32C307.43 52.48 306.976 52.6667 306.496 52.88C306.39 52.88 306.31 52.8267 306.256 52.72C306.15 52.56 306.096 52.4267 306.096 52.32C306.096 52.1067 306.15 51.9733 306.256 51.92C306.683 51.76 307.083 51.6 307.456 51.44C307.883 51.28 308.256 51.12 308.576 50.96C310.123 50.2667 311.483 49.52 312.656 48.72C313.83 47.92 314.63 47.2267 315.056 46.64C314.31 46.64 313.723 46.5867 313.296 46.48C312.923 46.32 312.63 46.16 312.416 46C312.203 45.7867 312.07 45.6 312.016 45.44C312.016 44.96 312.283 44.3733 312.816 43.68C313.403 42.9867 314.07 42.3467 314.816 41.76C315.616 41.1733 316.416 40.6667 317.216 40.24C318.016 39.8133 318.656 39.6 319.136 39.6C319.456 39.6 319.67 39.7333 319.776 40C319.883 40.2133 319.936 40.4533 319.936 40.72C319.936 40.9867 319.83 41.2267 319.616 41.44C319.51 41.5467 319.296 41.7333 318.976 42C318.71 42.2667 318.416 42.56 318.096 42.88C317.776 43.1467 317.483 43.4133 317.216 43.68C317.003 43.8933 316.896 44.0267 316.896 44.08C316.896 44.1333 317.03 44.1867 317.296 44.24C317.563 44.2933 318.123 44.32 318.976 44.32C319.243 44.32 319.643 44.32 320.176 44.32C320.71 44.32 321.323 44.2933 322.016 44.24C322.71 44.1333 323.403 44.0267 324.096 43.92C324.843 43.76 325.536 43.5733 326.176 43.36C326.336 43.36 326.496 43.4667 326.656 43.68C326.816 43.84 326.896 44.0267 326.896 44.24C326.896 44.9333 326.603 45.36 326.016 45.52C325.643 45.7867 325.163 46.1867 324.576 46.72C323.99 47.2 323.43 47.76 322.896 48.4C322.363 49.04 321.883 49.68 321.456 50.32C321.083 50.96 320.896 51.5467 320.896 52.08C320.896 52.56 321.083 52.96 321.456 53.28C321.883 53.5467 322.603 53.68 323.616 53.68C325.003 53.68 326.363 53.52 327.696 53.2C329.03 52.88 330.23 52.5333 331.296 52.16C332.576 51.7333 333.776 51.2533 334.896 50.72C335.003 50.72 335.083 50.8 335.136 50.96C335.243 51.0667 335.296 51.1733 335.296 51.28ZM353.398 51.28C353.398 51.4933 353.318 51.6533 353.158 51.76C350.971 52.6667 348.838 53.4667 346.758 54.16C344.998 54.7467 343.158 55.3067 341.238 55.84C339.371 56.3733 337.798 56.64 336.518 56.64C335.451 56.64 334.571 56.4 333.878 55.92C333.238 55.3867 332.918 54.72 332.918 53.92C332.918 53.1733 333.158 52.48 333.638 51.84C334.118 51.2 334.624 50.64 335.158 50.16C335.744 49.68 336.251 49.28 336.678 48.96C337.158 48.64 337.398 48.4533 337.398 48.4C337.398 48.2933 337.184 48.2133 336.758 48.16C336.384 48.1067 335.718 48 334.758 47.84C334.171 47.7333 333.771 47.5733 333.558 47.36C333.398 47.0933 333.318 46.8267 333.318 46.56C333.318 46.1867 333.424 45.8667 333.638 45.6C333.904 45.28 334.091 45.0667 334.198 44.96C335.264 44.2667 336.518 43.5733 337.958 42.88C339.398 42.1867 340.811 41.5733 342.198 41.04C343.638 40.5067 344.944 40.08 346.118 39.76C347.291 39.44 348.118 39.28 348.598 39.28C349.131 39.28 349.611 39.4133 350.038 39.68C350.518 39.8933 350.758 40.2933 350.758 40.88C350.758 41.1467 350.624 41.44 350.358 41.76C350.091 42.0267 349.771 42.2933 349.398 42.56C349.024 42.7733 348.624 42.96 348.198 43.12C347.771 43.28 347.398 43.36 347.078 43.36C346.811 43.36 346.544 43.3067 346.278 43.2C346.064 43.0933 345.958 42.9067 345.958 42.64C345.958 42.32 346.091 41.9733 346.358 41.6C346.464 41.4933 346.518 41.3867 346.518 41.28C346.518 41.1733 346.384 41.12 346.118 41.12C346.011 41.12 345.851 41.1467 345.638 41.2C345.424 41.2 345.184 41.2267 344.918 41.28C344.491 41.3867 343.878 41.6 343.078 41.92C342.278 42.1867 341.478 42.5067 340.678 42.88C339.878 43.2533 339.158 43.6 338.518 43.92C337.878 44.24 337.478 44.4533 337.318 44.56C337.104 44.72 336.998 44.88 336.998 45.04C336.998 45.3067 337.158 45.4933 337.478 45.6C337.531 45.6 337.718 45.6267 338.038 45.68C338.358 45.68 338.704 45.7067 339.078 45.76C339.451 45.76 339.798 45.76 340.118 45.76C340.491 45.76 340.758 45.76 340.918 45.76C341.504 45.8133 341.851 45.92 341.958 46.08C342.064 46.24 342.118 46.5067 342.118 46.88C342.118 47.1467 342.064 47.4133 341.958 47.68C341.851 47.9467 341.504 48.1333 340.918 48.24C339.798 48.5067 338.704 48.96 337.638 49.6C336.624 50.24 336.118 51.0933 336.118 52.16C336.118 52.9067 336.518 53.4667 337.318 53.84C338.171 54.16 338.971 54.32 339.718 54.32C341.104 54.32 342.571 54.1333 344.118 53.76C345.664 53.3333 347.104 52.9067 348.438 52.48C349.984 51.9467 351.504 51.36 352.997 50.72C353.104 50.72 353.184 50.8 353.238 50.96C353.344 51.0667 353.398 51.1733 353.398 51.28ZM419.833 26.56C419.726 26.9867 419.513 27.3067 419.193 27.52C418.873 27.68 418.26 27.8133 417.353 27.92C417.086 27.92 416.1 27.9467 414.393 28C412.686 28 410.42 28.0267 407.593 28.08C404.82 28.1333 401.54 28.1867 397.753 28.24C393.966 28.24 389.86 28.24 385.433 28.24C382.98 30.4267 380.366 32.6133 377.593 34.8C374.82 36.9867 372.1 39.04 369.433 40.96C366.766 42.88 364.26 44.64 361.913 46.24C359.566 47.7867 357.566 49.0667 355.913 50.08C355.006 52.1067 354.313 54.0267 353.833 55.84C353.353 57.6 353.113 59.1733 353.113 60.56C353.113 60.9333 353.033 61.2533 352.873 61.52C352.766 61.84 352.446 62.0533 351.913 62.16C351.753 62.2133 351.54 62.24 351.273 62.24C350.686 62.24 350.286 62.0533 350.073 61.68C349.806 61.36 349.673 60.9867 349.673 60.56C349.726 59.44 350.206 57.7333 351.113 55.44C352.073 53.1467 353.353 50.5333 354.953 47.6C356.553 44.6133 358.42 41.4667 360.553 38.16C362.686 34.8 364.953 31.52 367.353 28.32H341.033C340.446 28.32 339.886 28.2933 339.353 28.24C338.82 28.1333 338.553 27.8667 338.553 27.44C338.553 27.3333 338.633 27.1733 338.793 26.96C338.9 26.6933 339.006 26.4533 339.113 26.24C339.166 26.1333 339.3 26 339.513 25.84C339.886 25.5733 340.58 25.44 341.593 25.44H351.593C354.473 25.44 357.513 25.4667 360.713 25.52C363.913 25.52 366.846 25.52 369.513 25.52C371.54 22.96 373.593 20.56 375.673 18.32C377.806 16.08 379.913 14.1333 381.993 12.48C384.073 10.7733 386.1 9.44 388.073 8.48C390.046 7.46666 391.913 6.96 393.673 6.96C395.06 6.96 396.073 7.25333 396.713 7.84C397.353 8.42666 397.673 9.68 397.673 11.6C397.673 13.4133 396.793 15.52 395.033 17.92C393.326 20.2667 391.113 22.7733 388.393 25.44C391.326 25.3867 394.42 25.3333 397.673 25.28C400.98 25.2267 404.046 25.2 406.873 25.2C409.753 25.1467 412.153 25.12 414.073 25.12C416.046 25.0667 417.14 25.04 417.353 25.04C417.94 25.04 418.5 25.2 419.033 25.52C419.566 25.7867 419.833 26.1333 419.833 26.56ZM394.473 11.84C394.473 11.1467 394.26 10.5333 393.833 10C393.46 9.41333 392.766 9.12 391.753 9.12C390.526 9.12 389.113 9.54666 387.513 10.4C385.913 11.2533 384.233 12.4267 382.473 13.92C380.713 15.36 378.873 17.0933 376.953 19.12C375.033 21.0933 373.14 23.2267 371.273 25.52C373.086 25.52 374.66 25.52 375.993 25.52C377.326 25.52 378.553 25.52 379.673 25.52C380.793 25.52 381.833 25.52 382.793 25.52C383.806 25.4667 384.82 25.44 385.833 25.44C388.393 22.8267 390.473 20.3467 392.073 18C393.673 15.6 394.473 13.5467 394.473 11.84ZM369.113 28.32C366.606 31.5733 364.26 34.9333 362.073 38.4C359.94 41.8667 358.126 45.2 356.633 48.4C358.233 47.44 360.1 46.24 362.233 44.8C364.366 43.36 366.606 41.76 368.953 40C371.353 38.1867 373.753 36.2933 376.153 34.32C378.553 32.2933 380.82 30.2667 382.953 28.24L369.113 28.32Z" fill="#1A1A1A"/>
</svg>
