<svg width="36" height="36" viewBox="0 0 36 36" fill="none" xmlns="http://www.w3.org/2000/svg">
<circle cx="17.7879" cy="18.2121" r="17.7879" transform="rotate(-90 17.7879 18.2121)" fill="#1A1A1A"/>
<circle cx="17.9246" cy="18.3487" r="15.1164" transform="rotate(-90 17.9246 18.3487)" stroke="url(#paint0_linear)" stroke-width="2"/>
<g clip-path="url(#clip0)">
<path d="M25.8115 16.7398H22.5422L20.1624 11.006C20.0449 10.7229 19.72 10.5887 19.437 10.7061C19.1539 10.8236 19.0196 11.1484 19.1371 11.4315L21.3403 16.7398H14.509L16.7122 11.4315C16.8297 11.1484 16.6954 10.8236 16.4123 10.7061C16.1293 10.5886 15.8044 10.7229 15.6869 11.006L13.3071 16.7398H10.0378C9.73124 16.7398 9.48273 16.9884 9.48273 17.2949C9.48273 17.6014 9.73124 17.85 10.0378 17.85H10.3716L11.4598 23.8014C11.6963 25.095 12.8225 26.034 14.1376 26.034H21.7117C23.0268 26.034 24.153 25.095 24.3895 23.8014L25.4777 17.85H25.8115C26.118 17.85 26.3666 17.6014 26.3666 17.2949C26.3666 16.9884 26.118 16.7398 25.8115 16.7398ZM23.2975 23.6017C23.1574 24.3678 22.4904 24.9238 21.7117 24.9238H14.1376C13.3588 24.9238 12.6918 24.3678 12.5517 23.6017L11.5048 17.8762H24.3444L23.2975 23.6017Z" fill="white"/>
</g>
<defs>
<linearGradient id="paint0_linear" x1="4.11056" y1="23.3371" x2="30.5874" y2="7.98822" gradientUnits="userSpaceOnUse">
<stop stop-color="#CC32A1"/>
<stop offset="0.828934" stop-color="#FF94E1"/>
<stop offset="1" stop-color="#FFCCF1"/>
</linearGradient>
<clipPath id="clip0">
<rect width="16.8838" height="16.8838" fill="white" transform="translate(9.48273 9.90698)"/>
</clipPath>
</defs>
</svg>
