<svg width="16" height="21" viewBox="0 0 16 21" fill="none" xmlns="http://www.w3.org/2000/svg">
<path fill-rule="evenodd" clip-rule="evenodd" d="M7 1C7 0.447715 7.44771 0 8 0C8.55228 0 9 0.447715 9 1V20C9 20.5523 8.55228 21 8 21C7.44771 21 7 20.5523 7 20V1ZM14 10C14 9.44771 14.4477 9 15 9C15.5523 9 16 9.44772 16 10V20C16 20.5523 15.5523 21 15 21C14.4477 21 14 20.5523 14 20V10ZM1 15C0.447715 15 0 15.4477 0 16V20C0 20.5523 0.447715 21 1 21C1.55229 21 2 20.5523 2 20V16C2 15.4477 1.55229 15 1 15Z" fill="#1A1A1A"/>
</svg>
